<?xml version="1.0" encoding="UTF-8" standalone="no"?>
<svg
   xmlns:dc="http://purl.org/dc/elements/1.1/"
   xmlns:cc="http://creativecommons.org/ns#"
   xmlns:rdf="http://www.w3.org/1999/02/22-rdf-syntax-ns#"
   xmlns:svg="http://www.w3.org/2000/svg"
   xmlns="http://www.w3.org/2000/svg"
   viewBox="0 0 188.97333 188.97333"
   height="188.97333"
   width="188.97333"
   xml:space="preserve"
   id="svg2"
   version="1.1"><metadata
     id="metadata8"><rdf:RDF><cc:Work
         rdf:about=""><dc:format>image/svg+xml</dc:format><dc:type
           rdf:resource="http://purl.org/dc/dcmitype/StillImage" /></cc:Work></rdf:RDF></metadata><defs
     id="defs6"><clipPath
       id="clipPath18"
       clipPathUnits="userSpaceOnUse"><path
         id="path16"
         d="M 0,141.73 H 141.73 V 0 H 0 Z" /></clipPath></defs><g
     transform="matrix(1.3333333,0,0,-1.3333333,0,188.97333)"
     id="g10"><g
       id="g12"><g
         clip-path="url(#clipPath18)"
         id="g14"><g
           transform="translate(40.7002,63.6816)"
           id="g20"><path
             id="path22"
             style="fill:#373535;fill-opacity:1;fill-rule:nonzero;stroke:none"
             d="m 0,0 c -2.559,0 -4.644,-1.923 -4.644,-4.282 v -30.795 c 0,-2.361 2.085,-4.283 4.644,-4.283 2.56,0 4.644,1.922 4.644,4.283 V -4.282 C 4.644,-1.923 2.56,0 0,0" /></g><g
           transform="translate(78.498,63.6816)"
           id="g24"><path
             id="path26"
             style="fill:#373535;fill-opacity:1;fill-rule:nonzero;stroke:none"
             d="m 0,0 c -2.56,0 -4.645,-1.923 -4.645,-4.282 v -30.795 c 0,-2.361 2.085,-4.283 4.645,-4.283 2.562,0 4.641,1.922 4.641,4.283 V -4.282 C 4.641,-1.923 2.562,0 0,0" /></g><g
           transform="translate(132.1602,37.8125)"
           id="g28"><path
             id="path30"
             style="fill:#373535;fill-opacity:1;fill-rule:nonzero;stroke:none"
             d="m 0,0 c 0,-4.057 -4.728,-7.48 -10.321,-7.48 h -6.137 v 54.238 h 6.137 C -4.728,46.758 0,43.332 0,39.275 Z M -36.928,58.387 H -79.35 c -1.134,0 -2.176,-0.377 -2.984,-1.001 h -0.38 v -0.329 c -0.793,-0.767 -1.283,-1.807 -1.283,-2.948 V 39.715 c 0,-1.927 -2.436,-3.555 -5.319,-3.555 -2.887,0 -5.324,1.628 -5.324,3.555 v 14.394 c 0,1.141 -0.488,2.179 -1.279,2.945 v 0.332 h -0.383 c -0.808,0.624 -1.85,1.001 -2.984,1.001 h -8.908 c -8.095,0 -14.678,4.888 -14.678,10.896 0,6.013 6.583,10.904 14.678,10.904 1.861,0 3.699,-0.263 5.443,-0.782 l 1.447,-0.216 c 0.562,0 1.121,0.095 1.836,0.348 l 1.973,0.961 0.584,1.588 c 1.746,4.741 7.569,8.052 14.161,8.052 2.464,0 4.809,-0.443 6.89,-1.285 l 1.082,-0.398 h 0.869 c 1.436,0 2.813,0.627 3.691,1.68 2.713,3.277 7.39,5.231 12.509,5.231 8.062,0 14.645,-4.92 14.673,-10.951 0,-1.275 0.609,-2.477 1.805,-3.385 l 1.688,-0.988 1.491,0.103 c 0.431,0.029 0.8,0.042 1.124,0.042 8.092,0 14.675,-4.891 14.675,-10.904 0,-6.008 -6.583,-10.896 -14.675,-10.896 m 11.177,-71.124 c 0,-8.46 -9.12,-15.34 -20.331,-15.34 h -52.953 c -11.216,0 -20.339,6.88 -20.339,15.34 v 64.795 l 0.766,-0.303 c 3.272,-1.275 6.775,-1.923 10.414,-1.923 h 4.261 V 39.715 c 0,-6.676 6.558,-12.112 14.617,-12.112 8.058,0 14.616,5.436 14.616,12.112 v 10.117 h 37.772 c 3.644,0 7.148,0.65 10.416,1.931 l 0.761,0.297 z M 3.27,50.838 c -3.672,2.884 -8.5,4.475 -13.591,4.475 h -6.137 v 3.837 c 2.292,3.061 3.504,6.559 3.504,10.133 0,9.819 -9.047,18.123 -21.046,19.314 l -0.29,0.029 c -2.381,8.871 -12.194,15.292 -23.419,15.292 -6.501,0 -12.803,-2.17 -17.29,-5.96 l -0.269,-0.227 -0.539,0.132 c -10.565,2.573 -22.708,-1.47 -27.986,-9.3 l -0.09,-0.135 -0.522,0.066 c -1.249,0.169 -2.524,0.248 -3.789,0.248 -13.214,0 -23.966,-8.729 -23.966,-19.459 0,-3.582 1.213,-7.08 3.498,-10.124 v -71.896 c 0,-13.18 13.292,-23.906 29.627,-23.906 h 52.953 c 14.765,0 27.327,8.85 29.328,20.608 h 6.433 C 0.492,-16.035 9.288,-8.84 9.288,0 v 39.275 c 0,4.413 -2.135,8.518 -6.018,11.563" /></g></g></g></g></svg>