<?xml version="1.0" encoding="UTF-8" standalone="no"?>
<svg
   xmlns:dc="http://purl.org/dc/elements/1.1/"
   xmlns:cc="http://creativecommons.org/ns#"
   xmlns:rdf="http://www.w3.org/1999/02/22-rdf-syntax-ns#"
   xmlns:svg="http://www.w3.org/2000/svg"
   xmlns="http://www.w3.org/2000/svg"
   viewBox="0 0 188.97333 188.97333"
   height="188.97333"
   width="188.97333"
   xml:space="preserve"
   id="svg2"
   version="1.1"><metadata
     id="metadata8"><rdf:RDF><cc:Work
         rdf:about=""><dc:format>image/svg+xml</dc:format><dc:type
           rdf:resource="http://purl.org/dc/dcmitype/StillImage" /></cc:Work></rdf:RDF></metadata><defs
     id="defs6"><clipPath
       id="clipPath18"
       clipPathUnits="userSpaceOnUse"><path
         id="path16"
         d="M 0,141.73 H 141.73 V 0 H 0 Z" /></clipPath></defs><g
     transform="matrix(1.3333333,0,0,-1.3333333,0,188.97333)"
     id="g10"><g
       id="g12"><g
         clip-path="url(#clipPath18)"
         id="g14"><g
           transform="translate(39.1738,40.2607)"
           id="g20"><path
             id="path22"
             style="fill:#231f20;fill-opacity:1;fill-rule:nonzero;stroke:none"
             d="m 0,0 c 0.934,-0.925 2.102,-1.388 3.271,-1.388 1.167,0 2.412,0.463 3.27,1.388 L 31.929,25.117 57.316,0 c 0.935,-0.925 2.103,-1.388 3.272,-1.388 1.168,0 2.414,0.463 3.27,1.388 1.792,1.771 1.792,4.7 0,6.549 L 38.549,31.59 63.857,56.708 c 1.793,1.771 1.793,4.7 0,6.548 -1.791,1.85 -4.749,1.773 -6.619,0 L 31.929,38.139 6.541,63.179 c -1.792,1.773 -4.751,1.773 -6.619,0 -1.792,-1.771 -1.792,-4.7 0,-6.549 L 25.309,31.59 0,6.472 C -1.87,4.7 -1.87,1.771 0,0" /></g><g
           transform="translate(39.1738,40.2607)"
           id="g24"><path
             id="path26"
             style="fill:none;stroke:#231f20;stroke-width:3;stroke-linecap:butt;stroke-linejoin:miter;stroke-miterlimit:10;stroke-dasharray:none;stroke-opacity:1"
             d="m 0,0 c 0.934,-0.925 2.102,-1.388 3.271,-1.388 1.167,0 2.412,0.463 3.27,1.388 L 31.929,25.117 57.316,0 c 0.935,-0.925 2.103,-1.388 3.272,-1.388 1.168,0 2.414,0.463 3.27,1.388 1.792,1.771 1.792,4.7 0,6.549 L 38.549,31.59 63.857,56.708 c 1.793,1.771 1.793,4.7 0,6.548 -1.791,1.85 -4.749,1.773 -6.619,0 L 31.929,38.139 6.541,63.179 c -1.792,1.773 -4.751,1.773 -6.619,0 -1.792,-1.771 -1.792,-4.7 0,-6.549 L 25.309,31.59 0,6.472 C -1.87,4.7 -1.87,1.771 0,0 Z" /></g><g
           transform="translate(71.1025,130.4844)"
           id="g28"><path
             id="path30"
             style="fill:#231f20;fill-opacity:1;fill-rule:nonzero;stroke:none"
             d="m 0,0 c 32.71,0 59.266,-26.273 59.266,-58.634 0,-32.361 -26.556,-58.634 -59.266,-58.634 -32.709,0 -59.265,26.273 -59.265,58.634 C -59.265,-26.273 -32.709,0 0,0 m 0,-126.514 c 37.85,0 68.61,30.436 68.61,67.88 0,37.446 -30.76,67.88 -68.61,67.88 -37.848,0 -68.61,-30.436 -68.61,-67.88 0,-37.446 30.762,-67.88 68.61,-67.88" /></g><g
           transform="translate(71.1025,130.4844)"
           id="g32"><path
             id="path34"
             style="fill:none;stroke:#231f20;stroke-width:3;stroke-linecap:butt;stroke-linejoin:miter;stroke-miterlimit:10;stroke-dasharray:none;stroke-opacity:1"
             d="m 0,0 c 32.71,0 59.266,-26.273 59.266,-58.634 0,-32.361 -26.556,-58.634 -59.266,-58.634 -32.709,0 -59.265,26.273 -59.265,58.634 C -59.265,-26.273 -32.709,0 0,0 Z m 0,-126.514 c 37.85,0 68.61,30.436 68.61,67.88 0,37.446 -30.76,67.88 -68.61,67.88 -37.848,0 -68.61,-30.436 -68.61,-67.88 0,-37.446 30.762,-67.88 68.61,-67.88 z" /></g></g></g></g></svg>