<?xml version="1.0" encoding="utf-8"?>
<!-- Generator: Adobe Illustrator 19.0.0, SVG Export Plug-In . SVG Version: 6.00 Build 0)  -->
<svg version="1.1" id="Layer_1" xmlns="http://www.w3.org/2000/svg" xmlns:xlink="http://www.w3.org/1999/xlink" x="0px" y="0px"
	 viewBox="0 0 141.7 141.7" style="enable-background:new 0 0 141.7 141.7;" xml:space="preserve">
<g>
	<path d="M134.3,27.7c-0.5-1-0.8-2-0.7-2.8c0.7-4.8-0.9-9.5-4.3-12.9c-3.4-3.4-8.1-5-12.9-4.3c-0.9,0.1-1.9-0.1-2.8-0.7
		c-12.5-7-29.5-8.9-47-5.2C50.1,5.4,34.6,13.4,24,24C13.5,34.5,5.4,50,1.9,66.5c-3.8,17.7-1.9,34.3,5.2,46.9
		c0.5,0.9,0.8,1.9,0.7,2.8c-0.7,4.8,0.9,9.5,4.3,12.9c3.4,3.4,8,5,12.9,4.3c0.8-0.1,1.9,0.1,2.8,0.7c8.3,4.6,18.5,7.1,29.5,7.1
		c5.7,0,11.6-0.6,17.5-1.9c16.5-3.5,32.1-11.6,42.6-22.1c10.6-10.5,18.6-26,22.1-42.5C143.3,57,141.4,40.3,134.3,27.7z M17.8,123.4
		c-1.6-1.6-2.3-3.8-2-6.1c0.4-2.6-0.2-5.4-1.6-7.9C8,98.6,6.5,83.9,9.8,68.2c3.2-15,10.5-29.1,20-38.5c9.5-9.5,23.5-16.7,38.6-19.9
		c15.6-3.3,30.6-1.7,41.4,4.3c2.5,1.4,5.3,2,7.9,1.6c2.3-0.3,4.5,0.4,6.1,2c1.6,1.6,2.3,3.8,2,6.1c-0.3,2.6,0.2,5.4,1.6,7.9
		c6.1,10.9,7.7,25.6,4.3,41.3c-3.2,15-10.5,29.1-20,38.5c-9.5,9.5-23.5,16.7-38.6,19.9c-15.6,3.3-30.6,1.7-41.4-4.3
		c-2-1.1-4.2-1.7-6.4-1.7c-0.5,0-1,0-1.5,0.1C21.6,125.8,19.4,125,17.8,123.4z"/>
	<path d="M20,92.6c-0.4-2.2-2.4-3.7-4.7-3.3c-2.2,0.4-3.7,2.5-3.3,4.7c0.4,2.4,1,4.8,1.8,6.9c0.2,0.6,0.5,1.1,1,1.6
		c0.8,0.8,1.8,1.2,2.9,1.2c0.4,0,0.9-0.1,1.3-0.2c2.1-0.7,3.2-3,2.5-5.1C20.9,96.6,20.4,94.7,20,92.6z"/>
	<path d="M120.9,46c0.2,0.7,0.5,1.4,1.1,1.9c0.8,0.8,1.8,1.2,2.9,1.2c0.3,0,0.6,0,1-0.1c2.2-0.5,3.5-2.7,3-4.9
		c-0.5-2.2-1.2-4.4-2.1-6.5c-0.8-2-3.3-3-5.3-2.2c-2.1,0.8-3,3.2-2.2,5.3C119.8,42.3,120.4,44.1,120.9,46z"/>
	<path d="M26.7,45c-1.9-1-4.5-0.3-5.5,1.6c-6.1,11.1-9.7,24.3-10,36.2c0,1.1,0.4,2.2,1.2,2.9c0.7,0.7,1.7,1.2,2.8,1.2h0.1
		c2.2,0,4-1.8,4-4c0.2-10.6,3.5-22.5,9-32.5C29.4,48.5,28.6,46.1,26.7,45z M15.3,85.5L15.3,85.5L15.3,85.5L15.3,85.5z"/>
	<path d="M114.7,96.2c0.6,0.3,1.3,0.5,1.9,0.5c1.5,0,2.8-0.8,3.5-2.1c6.8-12.3,10.4-26.8,9.9-39.7c-0.1-2.2-1.8-3.9-4.2-3.9h0
		c-1.1,0-2.1,0.5-2.8,1.3c-0.7,0.8-1.1,1.8-1.1,2.9c0.4,11.5-2.9,24.4-9,35.5c-0.9,1.6-0.6,3.5,0.7,4.8
		C114.1,95.7,114.4,96,114.7,96.2z"/>
	<path d="M86.6,38.8L86.6,38.8c1.1,0,2.1-0.4,2.9-1.2c0.7-0.8,1.2-1.8,1.2-2.8c0-1.1-0.4-2.1-1.2-2.9c-1.5-1.5-4.2-1.5-5.7,0
		c-0.8,0.8-1.2,1.8-1.2,2.8c0,1.1,0.4,2.1,1.2,2.9C84.5,38.4,85.6,38.8,86.6,38.8z"/>
	<path d="M102.6,66.7L102.6,66.7c1.1,0,2.1-0.4,2.9-1.2c0.7-0.8,1.2-1.8,1.2-2.8c0-1.1-0.4-2.1-1.2-2.9c-1.5-1.5-4.2-1.5-5.7,0
		c-0.8,0.8-1.2,1.8-1.2,2.8c0,1,0.4,2.1,1.2,2.9C100.5,66.2,101.5,66.7,102.6,66.7z"/>
	<path d="M52.8,52.7L52.8,52.7c1.1,0,2.1-0.4,2.9-1.2c0.8-0.7,1.2-1.8,1.2-2.8c0-1.1-0.4-2.1-1.2-2.9c-1.5-1.5-4.2-1.5-5.7,0
		c-0.8,0.8-1.2,1.8-1.2,2.9c0,1.1,0.4,2.1,1.2,2.8C50.7,52.3,51.7,52.7,52.8,52.7z"/>
	<path d="M78.7,106.4V105v0l0,0v0V106.4c1.1,0,2.1-0.4,2.9-1.2c0.8-0.8,1.2-1.8,1.2-2.8c0-1.1-0.4-2.1-1.2-2.9
		c-1.5-1.5-4.2-1.5-5.7,0c-0.8,0.7-1.2,1.8-1.2,2.9c0,1.1,0.4,2.1,1.2,2.8C76.6,106,77.6,106.4,78.7,106.4z"/>
	<path d="M48.8,104.4L48.8,104.4c1.1,0,2.1-0.4,2.9-1.2c0.8-0.7,1.2-1.8,1.2-2.8c0-1.1-0.4-2.1-1.2-2.9c-1.5-1.5-4.2-1.5-5.7,0
		c-0.8,0.8-1.2,1.8-1.2,2.9c0,1.1,0.4,2.1,1.2,2.8C46.7,104,47.7,104.4,48.8,104.4z M48.8,103.1L48.8,103.1L48.8,103.1L48.8,103.1z"
		/>
</g>
</svg>
