<?xml version="1.0" encoding="UTF-8" standalone="no"?>
<svg
   xmlns:dc="http://purl.org/dc/elements/1.1/"
   xmlns:cc="http://creativecommons.org/ns#"
   xmlns:rdf="http://www.w3.org/1999/02/22-rdf-syntax-ns#"
   xmlns:svg="http://www.w3.org/2000/svg"
   xmlns="http://www.w3.org/2000/svg"
   viewBox="0 0 188.97333 188.97333"
   height="188.97333"
   width="188.97333"
   xml:space="preserve"
   id="svg2"
   version="1.1"><metadata
     id="metadata8"><rdf:RDF><cc:Work
         rdf:about=""><dc:format>image/svg+xml</dc:format><dc:type
           rdf:resource="http://purl.org/dc/dcmitype/StillImage" /></cc:Work></rdf:RDF></metadata><defs
     id="defs6"><clipPath
       id="clipPath18"
       clipPathUnits="userSpaceOnUse"><path
         id="path16"
         d="M 0,141.73 H 141.73 V 0 H 0 Z" /></clipPath></defs><g
     transform="matrix(1.3333333,0,0,-1.3333333,0,188.97333)"
     id="g10"><g
       id="g12"><g
         clip-path="url(#clipPath18)"
         id="g14"><g
           transform="translate(17.7993,18.3096)"
           id="g20"><path
             id="path22"
             style="fill:#373535;fill-opacity:1;fill-rule:nonzero;stroke:none"
             d="m 0,0 c -1.6,1.592 -2.339,3.805 -2.036,6.062 0.355,2.594 -0.218,5.384 -1.616,7.871 -6.152,10.901 -7.694,25.563 -4.345,41.296 3.191,15.012 10.464,29.053 19.951,38.523 9.484,9.474 23.545,16.734 38.578,19.922 15.594,3.301 30.567,1.728 41.353,-4.339 2.478,-1.392 5.273,-1.975 7.882,-1.618 2.271,0.31 4.476,-0.442 6.069,-2.028 1.6,-1.6 2.336,-3.813 2.031,-6.069 -0.349,-2.592 0.229,-5.386 1.627,-7.866 6.146,-10.893 7.685,-25.558 4.344,-41.297 C 110.645,35.446 103.375,21.405 93.888,11.938 84.407,2.464 70.345,-4.802 55.308,-7.99 39.724,-11.294 24.743,-9.719 13.952,-3.646 11.951,-2.529 9.751,-1.93 7.598,-1.93 7.085,-1.93 6.577,-1.968 6.078,-2.038 3.807,-2.333 1.594,-1.592 0,0 m 116.524,95.709 c -0.534,0.951 -0.764,1.954 -0.654,2.818 0.654,4.775 -0.917,9.465 -4.324,12.861 -3.384,3.374 -8.073,4.985 -12.877,4.32 -0.873,-0.115 -1.866,0.12 -2.822,0.656 -12.488,7.026 -29.486,8.901 -46.991,5.198 C 32.33,118.057 16.798,110 6.242,99.456 -4.323,88.906 -12.394,73.396 -15.901,56.9 -19.653,39.245 -17.803,22.577 -10.69,9.964 c 0.54,-0.948 0.772,-1.945 0.657,-2.807 -0.657,-4.775 0.917,-9.457 4.321,-12.858 3.376,-3.38 8.034,-4.998 12.884,-4.318 0.844,0.121 1.872,-0.13 2.817,-0.664 8.256,-4.638 18.458,-7.091 29.503,-7.091 5.671,0 11.558,0.637 17.491,1.891 16.528,3.51 32.058,11.567 42.62,22.119 10.557,10.541 18.624,26.049 22.134,42.548 3.756,17.652 1.905,34.318 -5.213,46.925" /></g><g
           transform="translate(20.0288,49.1064)"
           id="g24"><path
             id="path26"
             style="fill:#373535;fill-opacity:1;fill-rule:nonzero;stroke:none"
             d="M 0,0 C -0.382,2.158 -2.399,3.657 -4.678,3.271 -6.869,2.878 -8.34,0.785 -7.953,-1.406 c 0.429,-2.42 1.024,-4.753 1.763,-6.94 0.202,-0.593 0.541,-1.138 0.966,-1.552 0.754,-0.752 1.799,-1.189 2.863,-1.189 0.44,0 0.877,0.071 1.294,0.213 2.102,0.714 3.237,3.003 2.527,5.112 C 0.852,-3.969 0.36,-2.028 0,0" /></g><g
           transform="translate(120.874,95.7666)"
           id="g28"><path
             id="path30"
             style="fill:#373535;fill-opacity:1;fill-rule:nonzero;stroke:none"
             d="m 0,0 c 0.175,-0.73 0.546,-1.393 1.064,-1.902 0.77,-0.766 1.78,-1.185 2.855,-1.185 0.316,0 0.639,0.038 0.955,0.111 2.162,0.526 3.494,2.712 2.97,4.868 C 7.314,4.088 6.615,6.269 5.753,8.375 4.929,10.384 2.494,11.403 0.48,10.569 -1.572,9.724 -2.565,7.364 -1.72,5.298 -1.026,3.63 -0.447,1.848 0,0" /></g><g
           transform="translate(15.2856,56.2402)"
           id="g32"><path
             id="path34"
             style="fill:#373535;fill-opacity:1;fill-rule:nonzero;stroke:none"
             d="M 0,0 V 0 -0.005 Z M 11.411,40.494 C 9.525,41.535 6.954,40.789 5.925,38.902 -0.172,27.813 -3.802,14.623 -4.04,2.71 c -0.019,-1.096 0.413,-2.164 1.183,-2.927 0.736,-0.736 1.722,-1.156 2.772,-1.182 H 0 c 2.186,0 3.996,1.776 4.037,3.957 0.21,10.642 3.482,22.475 8.976,32.466 1.059,1.949 0.341,4.405 -1.602,5.47" /></g><g
           transform="translate(114.7441,45.5742)"
           id="g36"><path
             id="path38"
             style="fill:#373535;fill-opacity:1;fill-rule:nonzero;stroke:none"
             d="m 0,0 c 0.595,-0.321 1.267,-0.496 1.938,-0.496 1.485,0 2.838,0.802 3.547,2.099 6.769,12.307 10.394,26.765 9.935,39.659 -0.076,2.177 -1.845,3.884 -4.17,3.884 H 11.244 C 10.164,45.107 9.165,44.655 8.434,43.864 7.69,43.074 7.309,42.046 7.353,40.973 7.757,29.494 4.492,16.56 -1.6,5.478 -2.451,3.913 -2.173,1.946 -0.912,0.687 -0.645,0.42 -0.344,0.19 0,0" /></g><g
           transform="translate(86.6387,102.9292)"
           id="g40"><path
             id="path42"
             style="fill:#373535;fill-opacity:1;fill-rule:nonzero;stroke:none"
             d="M 0,0 H 0.032 C 1.081,0 2.118,0.425 2.882,1.18 3.63,1.938 4.056,2.979 4.05,4.014 4.056,5.072 3.63,6.113 2.871,6.887 1.381,8.353 -1.321,8.405 -2.839,6.878 -3.603,6.118 -4.028,5.074 -4.018,4.039 -4.028,2.973 -3.598,1.927 -2.839,1.174 -2.091,0.428 -1.06,0 0,0" /></g><g
           transform="translate(102.5879,75.0786)"
           id="g44"><path
             id="path46"
             style="fill:#373535;fill-opacity:1;fill-rule:nonzero;stroke:none"
             d="m 0,0 h 0.011 c 1.059,0 2.096,0.428 2.855,1.186 0.747,0.757 1.173,1.793 1.173,2.842 0,1.06 -0.426,2.099 -1.179,2.854 -1.484,1.477 -4.203,1.523 -5.709,0 C -3.613,6.124 -4.045,5.083 -4.039,4.034 -4.045,2.984 -3.613,1.946 -2.86,1.183 -2.112,0.431 -1.075,0 0,0" /></g><g
           transform="translate(52.7769,89.0024)"
           id="g48"><path
             id="path50"
             style="fill:#373535;fill-opacity:1;fill-rule:nonzero;stroke:none"
             d="M 0,0 H 0.03 C 1.089,0 2.126,0.431 2.871,1.18 3.622,1.927 4.05,2.965 4.05,4.028 4.05,5.085 3.622,6.124 2.866,6.887 1.37,8.367 -1.31,8.405 -2.844,6.879 -3.594,6.126 -4.023,5.088 -4.023,4.028 -4.023,2.96 -3.589,1.919 -2.847,1.186 -2.102,0.434 -1.067,0 0,0" /></g><g
           transform="translate(78.666,35.2939)"
           id="g52"><path
             id="path54"
             style="fill:#373535;fill-opacity:1;fill-rule:nonzero;stroke:none"
             d="M 0,0 V 1.396 1.397 1.396 L 0.03,0 C 1.089,0 2.126,0.437 2.869,1.178 3.628,1.93 4.064,2.966 4.054,4.022 4.064,5.091 3.628,6.132 2.874,6.879 1.379,8.378 -1.315,8.389 -2.833,6.885 -3.586,6.138 -4.02,5.097 -4.02,4.034 -4.025,2.977 -3.591,1.93 -2.838,1.188 -2.088,0.437 -1.053,0 0,0" /></g><g
           transform="translate(48.7949,38.6797)"
           id="g56"><path
             id="path58"
             style="fill:#373535;fill-opacity:1;fill-rule:nonzero;stroke:none"
             d="m 0,0 v 0 -0.001 z m 0,-1.396 h 0.011 c 1.072,0 2.115,0.43 2.855,1.183 C 3.622,0.533 4.053,1.574 4.047,2.632 4.053,3.689 3.622,4.73 2.866,5.488 1.384,6.966 -1.305,7.015 -2.852,5.482 -3.603,4.726 -4.031,3.689 -4.031,2.632 -4.031,1.58 -3.6,0.545 -2.847,-0.213 -2.093,-0.966 -1.056,-1.396 0,-1.396" /></g></g></g></g></svg>