<?xml version="1.0" encoding="UTF-8" standalone="no"?>
<svg
   xmlns:dc="http://purl.org/dc/elements/1.1/"
   xmlns:cc="http://creativecommons.org/ns#"
   xmlns:rdf="http://www.w3.org/1999/02/22-rdf-syntax-ns#"
   xmlns:svg="http://www.w3.org/2000/svg"
   xmlns="http://www.w3.org/2000/svg"
   viewBox="0 0 188.97333 188.97333"
   height="188.97333"
   width="188.97333"
   xml:space="preserve"
   id="svg2"
   version="1.1"><metadata
     id="metadata8"><rdf:RDF><cc:Work
         rdf:about=""><dc:format>image/svg+xml</dc:format><dc:type
           rdf:resource="http://purl.org/dc/dcmitype/StillImage" /></cc:Work></rdf:RDF></metadata><defs
     id="defs6"><clipPath
       id="clipPath18"
       clipPathUnits="userSpaceOnUse"><path
         id="path16"
         d="M 0,141.73 H 141.73 V 0 H 0 Z" /></clipPath></defs><g
     transform="matrix(1.3333333,0,0,-1.3333333,0,188.97333)"
     id="g10"><g
       id="g12"><g
         clip-path="url(#clipPath18)"
         id="g14"><g
           transform="translate(70.1709,17.5127)"
           id="g20"><path
             id="path22"
             style="fill:#231f20;fill-opacity:1;fill-rule:evenodd;stroke:none"
             d="m 0,0 c 2.663,0 4.83,1.971 4.83,4.425 v 53.379 c 0,2.454 -2.167,4.452 -4.83,4.452 -2.657,0 -4.797,-1.998 -4.797,-4.452 V 4.425 C -4.797,1.971 -2.657,0 0,0 m -24.108,0 c 2.663,0 4.829,1.971 4.829,4.425 v 53.379 c 0,2.454 -2.166,4.452 -4.829,4.452 -2.658,0 -4.798,-1.998 -4.798,-4.452 V 4.425 c 0,-2.454 2.14,-4.425 4.798,-4.425 m 72.33,88.946 h -96.44 c -2.657,0 -4.797,1.976 -4.797,4.43 0,2.454 2.14,4.452 4.797,4.452 h 96.44 c 2.661,0 4.827,-1.998 4.827,-4.452 0,-2.454 -2.166,-4.43 -4.827,-4.43 M 43.419,0 c 0,-4.914 -4.333,-8.909 -9.653,-8.909 h -67.501 c -5.345,0 -9.653,3.995 -9.653,8.909 v 80.042 h 86.807 z m -57.872,111.184 c 0,2.454 2.163,4.43 4.827,4.43 H 9.656 c 2.661,0 4.827,-1.976 4.827,-4.43 v -4.452 h -28.936 z m 67.502,-4.452 H 24.112 v 8.882 c 0,4.93 -4.307,8.904 -9.629,8.904 h -28.936 c -5.32,0 -9.655,-3.974 -9.655,-8.904 v -8.882 h -28.907 c -5.347,0 -9.656,-3.974 -9.656,-8.904 v -8.882 c 0,-4.908 4.309,-8.904 9.656,-8.904 V 0 c 0,-9.844 8.612,-17.813 19.28,-17.813 h 67.501 c 10.641,0 19.283,7.969 19.283,17.813 v 80.042 c 5.345,0 9.652,3.996 9.652,8.904 v 8.882 c 0,4.93 -4.307,8.904 -9.652,8.904 M 24.112,0 c 2.661,0 4.827,1.971 4.827,4.425 v 53.379 c 0,2.454 -2.166,4.452 -4.827,4.452 -2.66,0 -4.802,-1.998 -4.802,-4.452 V 4.425 C 19.31,1.971 21.452,0 24.112,0" /></g></g></g></g></svg>