<?xml version="1.0" encoding="utf-8"?>
<!-- Generator: Adobe Illustrator 19.0.0, SVG Export Plug-In . SVG Version: 6.00 Build 0)  -->
<svg version="1.1" id="Layer_1" xmlns="http://www.w3.org/2000/svg" xmlns:xlink="http://www.w3.org/1999/xlink" x="0px" y="0px"
	 viewBox="0 0 141.7 141.7" style="enable-background:new 0 0 141.7 141.7;" xml:space="preserve">
<g>
	<path d="M41.8,79.1c-3.8,0-6.9,3.4-6.9,7.5c0,4.1,3.1,7.5,6.9,7.5c3.8,0,6.9-3.4,6.9-7.5C48.8,82.5,45.7,79.1,41.8,79.1z"/>
	<path d="M99.7,79.1c-3.8,0-6.9,3.4-6.9,7.5c0,4.1,3.1,7.5,6.9,7.5c3.8,0,6.9-3.4,6.9-7.5C106.6,82.5,103.5,79.1,99.7,79.1z"/>
	<path d="M128.2,65.2v-1.6C128.2,28.5,102.4,0,70.8,0S13.4,28.5,13.4,63.6v1.6C5.6,67.3,0,75,0,84c0,9.1,5.7,16.9,13.7,18.9
		c1.3,13.6,7.2,23.8,17.4,30.2c9.2,5.8,22.2,8.5,39.7,8.5c17.5,0,30.5-2.8,39.7-8.5c10.2-6.4,16.1-16.5,17.4-30.2
		c8-2,13.7-9.8,13.7-18.9C141.6,75,136,67.3,128.2,65.2z M133,84c0,3.8-1.9,7.3-4.8,9.1V74.9C131.1,76.7,133,80.2,133,84z
		 M70.8,132.5c-16,0-27.5-2.4-35.4-7.3c-9-5.6-13.4-14.9-13.4-28.4V63.6c0-23.8,14.2-45.2,34.6-52.1c14.7,0.3,22.5,12.2,22.5,20.6
		c0,6.3-4.5,11.3-10,11.3c-4,0-7.2-3.7-7.2-8.2c0-3.1,2.2-5.6,4.9-5.6c2.4,0,4.3-2,4.3-4.6c0-2.5-1.9-4.6-4.3-4.6
		c-7.4,0-13.4,6.6-13.4,14.7c0,9.5,7.1,17.3,15.7,17.3c10.3,0,18.6-9.2,18.6-20.5c0-6.9-3.1-14.4-8.4-20c-0.9-0.9-1.8-1.8-2.8-2.7
		c24.2,3.2,43.2,26.3,43.2,54.1v33.2c0,13.5-4.4,22.8-13.4,28.4C98.3,130.1,86.7,132.5,70.8,132.5z M13.4,74.9v18.2
		c-2.9-1.8-4.8-5.2-4.8-9.1C8.5,80.2,10.5,76.7,13.4,74.9z"/>
	<path d="M80.8,94.5c-2.7,3-6.2,4.6-10,4.6c-3.8,0-7.4-1.6-10-4.6c-1.6-1.8-4.5-1.8-6.2,0c-1.6,1.8-1.6,4.5,0,6.3
		c4.3,4.8,10.1,7.4,16.2,7.4c6.1,0,11.9-2.6,16.2-7.4c1.6-1.8,1.6-4.6,0-6.3C85.4,92.7,82.5,92.7,80.8,94.5z"/>
</g>
</svg>
