<?xml version="1.0" encoding="UTF-8" standalone="no"?>
<svg
   xmlns:dc="http://purl.org/dc/elements/1.1/"
   xmlns:cc="http://creativecommons.org/ns#"
   xmlns:rdf="http://www.w3.org/1999/02/22-rdf-syntax-ns#"
   xmlns:svg="http://www.w3.org/2000/svg"
   xmlns="http://www.w3.org/2000/svg"
   viewBox="0 0 188.97333 188.97333"
   height="188.97333"
   width="188.97333"
   xml:space="preserve"
   id="svg2"
   version="1.1"><metadata
     id="metadata8"><rdf:RDF><cc:Work
         rdf:about=""><dc:format>image/svg+xml</dc:format><dc:type
           rdf:resource="http://purl.org/dc/dcmitype/StillImage" /></cc:Work></rdf:RDF></metadata><defs
     id="defs6"><clipPath
       id="clipPath18"
       clipPathUnits="userSpaceOnUse"><path
         id="path16"
         d="M 0,141.73 H 141.73 V 0 H 0 Z" /></clipPath></defs><g
     transform="matrix(1.3333333,0,0,-1.3333333,0,188.97333)"
     id="g10"><g
       id="g12"><g
         clip-path="url(#clipPath18)"
         id="g14"><g
           transform="translate(41.8481,62.6055)"
           id="g20"><path
             id="path22"
             style="fill:#373535;fill-opacity:1;fill-rule:nonzero;stroke:none"
             d="m 0,0 c -3.814,0 -6.916,-3.368 -6.916,-7.503 0,-4.14 3.102,-7.503 6.916,-7.503 3.814,0 6.916,3.363 6.916,7.503 C 6.916,-3.368 3.814,0 0,0" /></g><g
           transform="translate(99.7188,62.6055)"
           id="g24"><path
             id="path26"
             style="fill:#373535;fill-opacity:1;fill-rule:nonzero;stroke:none"
             d="m 0,0 c -3.806,0 -6.91,-3.368 -6.91,-7.503 0,-4.14 3.104,-7.503 6.91,-7.503 3.817,0 6.916,3.363 6.916,7.503 C 6.916,-3.368 3.817,0 0,0" /></g><g
           transform="translate(13.3828,66.7891)"
           id="g28"><path
             id="path30"
             style="fill:#373535;fill-opacity:1;fill-rule:nonzero;stroke:none"
             d="m 0,0 v -18.177 c -2.92,1.763 -4.834,5.239 -4.834,9.089 0,3.838 1.914,7.322 4.834,9.088 m 57.405,-57.602 c -15.958,0 -27.544,2.394 -35.42,7.299 -9.044,5.639 -13.44,14.937 -13.44,28.423 v 33.232 c 0,23.779 14.23,45.16 34.638,52.095 14.713,-0.337 22.545,-12.166 22.545,-20.637 0,-6.25 -4.508,-11.336 -10.048,-11.336 -3.96,0 -7.182,3.657 -7.182,8.155 0,3.095 2.196,5.612 4.895,5.612 2.356,0 4.27,2.048 4.27,4.565 0,2.52 -1.914,4.569 -4.27,4.569 -7.413,0 -13.443,-6.614 -13.443,-14.746 0,-9.532 7.056,-17.289 15.73,-17.289 10.254,0 18.591,9.182 18.591,20.47 0,6.948 -3.132,14.414 -8.375,19.971 -0.895,0.946 -1.844,1.833 -2.847,2.657 24.241,-3.153 43.207,-26.339 43.207,-54.086 V -21.88 c 0,-13.491 -4.393,-22.784 -13.437,-28.423 -7.876,-4.905 -19.46,-7.299 -35.414,-7.299 m 62.234,48.514 c 0,-3.844 -1.909,-7.32 -4.826,-9.089 v 18.174 c 2.917,-1.766 4.826,-5.247 4.826,-9.085 m -4.826,18.85 v 1.59 c 0,35.064 -25.756,63.589 -57.408,63.589 C 25.753,74.941 0,46.416 0,11.352 v -1.59 c -7.821,-2.135 -13.382,-9.87 -13.382,-18.85 0,-9.132 5.687,-16.91 13.67,-18.932 1.319,-13.647 7.169,-23.793 17.395,-30.168 9.216,-5.752 22.21,-8.544 39.722,-8.544 17.507,0 30.499,2.792 39.725,8.544 10.224,6.375 16.07,16.526 17.387,30.168 7.985,2.022 13.667,9.8 13.667,18.932 0,8.98 -5.556,16.715 -13.371,18.85" /></g><g
           transform="translate(80.8193,47.2383)"
           id="g32"><path
             id="path34"
             style="fill:#373535;fill-opacity:1;fill-rule:nonzero;stroke:none"
             d="m 0,0 c -2.683,-2.986 -6.247,-4.631 -10.034,-4.631 -3.788,0 -7.353,1.645 -10.04,4.631 -1.623,1.806 -4.528,1.806 -6.168,-0.006 -1.587,-1.773 -1.587,-4.549 0.006,-6.322 4.314,-4.792 10.07,-7.434 16.204,-7.434 6.137,0 11.886,2.642 16.191,7.428 C 7.766,-4.561 7.766,-1.773 6.164,0 4.541,1.806 1.634,1.806 0,0" /></g></g></g></g></svg>