<?xml version="1.0" encoding="UTF-8" standalone="no"?>
<svg
   xmlns:dc="http://purl.org/dc/elements/1.1/"
   xmlns:cc="http://creativecommons.org/ns#"
   xmlns:rdf="http://www.w3.org/1999/02/22-rdf-syntax-ns#"
   xmlns:svg="http://www.w3.org/2000/svg"
   xmlns="http://www.w3.org/2000/svg"
   viewBox="0 0 188.97333 188.97333"
   height="188.97333"
   width="188.97333"
   xml:space="preserve"
   id="svg2"
   version="1.1"><metadata
     id="metadata8"><rdf:RDF><cc:Work
         rdf:about=""><dc:format>image/svg+xml</dc:format><dc:type
           rdf:resource="http://purl.org/dc/dcmitype/StillImage" /></cc:Work></rdf:RDF></metadata><defs
     id="defs6"><clipPath
       id="clipPath18"
       clipPathUnits="userSpaceOnUse"><path
         id="path16"
         d="M 0,141.73 H 141.73 V 0 H 0 Z" /></clipPath></defs><g
     transform="matrix(1.3333333,0,0,-1.3333333,0,188.97333)"
     id="g10"><g
       id="g12"><g
         clip-path="url(#clipPath18)"
         id="g14"><g
           transform="translate(93.498,128.085)"
           id="g20"><path
             id="path22"
             style="fill:#ffffff;fill-opacity:1;fill-rule:nonzero;stroke:none"
             d="m 0,0 c -0.25,-1.832 -2.064,-3.258 -4.258,-3.258 h -33.007 c -2.188,0 -3.997,1.426 -4.247,3.258 -16.129,-4.117 -27.253,-16.223 -27.253,-29.898 v -52.124 h 96.012 v 52.124 C 27.247,-16.226 16.126,-4.119 0,0" /></g><g
           transform="translate(116.9717,14.8184)"
           id="g24"><path
             id="path26"
             style="fill:#ffffff;fill-opacity:1;fill-rule:nonzero;stroke:none"
             d="m 0,0 c 0,-3.471 3.617,-6.292 8.06,-6.292 4.453,0 8.071,2.821 8.071,6.292 0,2.171 -1.464,4.149 -3.775,5.292 V 0 c 0,-2.039 -1.925,-3.689 -4.296,-3.689 -2.405,0 -4.287,1.618 -4.287,3.689 V 5.292 C 1.458,4.155 0,2.171 0,0" /></g><path
           id="path28"
           style="fill:#ffffff;fill-opacity:1;fill-rule:nonzero;stroke:none"
           d="m 60.524,132.224 h 24.425 v 2.102 H 60.524 Z" /><g
           transform="translate(120.7705,98.0781)"
           id="g30"><path
             id="path32"
             style="fill:#373535;fill-opacity:1;fill-rule:nonzero;stroke:none"
             d="M 0,0 V -52.124 H -96.012 V 0 c 0,13.675 11.124,25.782 27.253,29.898 0.25,-1.831 2.059,-3.258 4.246,-3.258 h 33.008 c 2.193,0 4.008,1.427 4.258,3.258 C -11.121,25.779 0,13.673 0,0 m 4.286,-89.66 c -4.442,0 -8.059,2.821 -8.059,6.292 0,2.171 1.458,4.155 3.773,5.292 v -5.292 c 0,-2.071 1.882,-3.69 4.286,-3.69 2.371,0 4.297,1.651 4.297,3.69 v 5.292 c 2.311,-1.143 3.774,-3.121 3.774,-5.292 0,-3.471 -3.618,-6.292 -8.071,-6.292 M -60.221,36.139 h 24.425 V 34.037 H -60.221 Z M 8.583,-70.133 V 0 c 0,17.83 -14.667,33.141 -35.802,37.542 v 2.298 c 0,2.042 -1.92,3.704 -4.286,3.704 h -33.008 c -2.357,0 -4.274,-1.662 -4.274,-3.704 V 37.542 C -89.922,33.141 -104.584,17.833 -104.584,0 v -13.126 h -11.867 c -2.368,0 -4.294,-1.657 -4.294,-3.693 0,-2.041 1.926,-3.703 4.294,-3.703 h 11.867 v -31.602 h -11.867 c -2.368,0 -4.294,-1.662 -4.294,-3.707 0,-2.033 1.926,-3.685 4.294,-3.685 h 11.867 v -23.179 c -1.937,-0.591 -3.283,-2.144 -3.283,-3.964 v -7.069 c 0,-2.339 2.222,-4.242 4.959,-4.242 h 5.142 c 2.74,0 4.966,1.903 4.966,4.242 v 7.069 c 0,1.782 -1.311,3.318 -3.198,3.926 v 23.217 H 0 v -10.617 c -7.225,-1.574 -12.357,-6.997 -12.357,-13.235 0,-7.544 7.47,-13.684 16.643,-13.684 9.185,0 16.649,6.14 16.649,13.69 -0.011,6.232 -5.138,11.65 -12.352,13.229" /></g></g></g></g></svg>
