<?xml version="1.0" encoding="UTF-8" standalone="no"?>
<svg
   xmlns:dc="http://purl.org/dc/elements/1.1/"
   xmlns:cc="http://creativecommons.org/ns#"
   xmlns:rdf="http://www.w3.org/1999/02/22-rdf-syntax-ns#"
   xmlns:svg="http://www.w3.org/2000/svg"
   xmlns="http://www.w3.org/2000/svg"
   viewBox="0 0 188.97333 188.97333"
   height="188.97333"
   width="188.97333"
   xml:space="preserve"
   id="svg2"
   version="1.1"><metadata
     id="metadata8"><rdf:RDF><cc:Work
         rdf:about=""><dc:format>image/svg+xml</dc:format><dc:type
           rdf:resource="http://purl.org/dc/dcmitype/StillImage" /></cc:Work></rdf:RDF></metadata><defs
     id="defs6"><clipPath
       id="clipPath18"
       clipPathUnits="userSpaceOnUse"><path
         id="path16"
         d="M 0,141.73 H 141.73 V 0 H 0 Z" /></clipPath></defs><g
     transform="matrix(1.3333333,0,0,-1.3333333,0,188.97333)"
     id="g10"><g
       id="g12"><g
         clip-path="url(#clipPath18)"
         id="g14"><g
           transform="translate(132.8008,29.7783)"
           id="g20"><path
             id="path22"
             style="fill:#373535;fill-opacity:1;fill-rule:nonzero;stroke:none"
             d="m 0,0 -2.202,-1.904 c -3.193,-2.772 -6.191,-13.483 -6.191,-18.377 0,-4.99 3.763,-9.048 8.387,-9.048 4.63,0 8.393,4.058 8.393,9.048 0,4.894 -2.998,15.605 -6.186,18.372 z" /></g><g
           transform="translate(70.5508,90.4126)"
           id="g24"><path
             id="path26"
             style="fill:#373535;fill-opacity:1;fill-rule:nonzero;stroke:none"
             d="m 0,0 -58.708,15.54 c -2.29,0.596 -3.954,3.193 -3.954,6.177 0,2.973 1.669,5.582 3.957,6.2 L -1.166,43.274 0.1,43.431 58.777,27.917 c 2.304,-0.623 3.973,-3.23 3.973,-6.2 0,-2.979 -1.658,-5.575 -3.973,-6.177 L 1.246,0.159 Z M -40.445,2.489 -2.907,-7.516 C -0.915,-8.02 1.05,-8.02 3.061,-7.489 L 40.533,2.489 V -29.13 c 0,-6.961 -14.071,-16.605 -40.49,-16.605 -26.418,0 -40.488,9.644 -40.488,16.605 z M 70.637,21.717 c 0,6.592 -4.043,12.274 -9.824,13.814 L 2.985,50.943 c -1.938,0.505 -3.976,0.505 -5.951,-0.026 L -60.742,35.531 c -5.777,-1.54 -9.809,-7.222 -9.809,-13.814 0,-6.588 4.027,-12.27 9.803,-13.82 L -48.334,4.602 V -29.13 c 0,-15.319 18.085,-24.465 48.377,-24.465 16.325,0 29.357,2.662 37.686,7.698 8.839,5.334 10.691,12.065 10.691,16.767 V 4.602 l 12.393,3.292 c 5.781,1.553 9.824,7.235 9.824,13.823" /></g><g
           transform="translate(128.8545,86.4717)"
           id="g28"><path
             id="path30"
             style="fill:#373535;fill-opacity:1;fill-rule:nonzero;stroke:none"
             d="m 0,0 v -46.182 c 0,-2.175 1.766,-3.943 3.94,-3.943 2.175,0 3.941,1.768 3.941,3.943 V 0 C 7.881,2.176 6.115,3.946 3.94,3.946 1.766,3.946 0,2.176 0,0" /></g></g></g></g></svg>