<?xml version="1.0" encoding="utf-8"?>
<!-- Generator: Adobe Illustrator 19.0.0, SVG Export Plug-In . SVG Version: 6.00 Build 0)  -->
<svg version="1.1" id="Layer_1" xmlns="http://www.w3.org/2000/svg" xmlns:xlink="http://www.w3.org/1999/xlink" x="0px" y="0px"
	 viewBox="0 0 141.7 141.7" style="enable-background:new 0 0 141.7 141.7;" xml:space="preserve">
<g>
	<path d="M132.8,112l-2.2,1.9c-3.2,2.8-6.2,13.5-6.2,18.4c0,5,3.8,9,8.4,9c4.6,0,8.4-4.1,8.4-9c0-4.9-3-15.6-6.2-18.4L132.8,112z"/>
	<path d="M141.2,29.6c0-6.6-4-12.3-9.8-13.8L73.5,0.4c-1.9-0.5-4-0.5-6,0L9.8,15.8C4,17.3,0,23,0,29.6c0,6.6,4,12.3,9.8,13.8
		l12.4,3.3v33.7c0,15.3,18.1,24.5,48.4,24.5c16.3,0,29.4-2.7,37.7-7.7c8.8-5.3,10.7-12.1,10.7-16.8V46.7l12.4-3.3
		C137.1,41.9,141.2,36.2,141.2,29.6z M30.1,48.8l37.5,10c2,0.5,4,0.5,6,0l37.5-10v31.6c0,7-14.1,16.6-40.5,16.6
		c-26.4,0-40.5-9.6-40.5-16.6V48.8z M70.6,51.3L11.8,35.8c-2.3-0.6-4-3.2-4-6.2c0-3,1.7-5.6,4-6.2L69.4,8l1.3-0.2l58.7,15.5
		c2.3,0.6,4,3.2,4,6.2c0,3-1.7,5.6-4,6.2L71.8,51.2L70.6,51.3z"/>
	<path d="M128.9,55.3v46.2c0,2.2,1.8,3.9,3.9,3.9c2.2,0,3.9-1.8,3.9-3.9V55.3c0-2.2-1.8-3.9-3.9-3.9
		C130.6,51.3,128.9,53.1,128.9,55.3z"/>
</g>
</svg>
