<?xml version="1.0" encoding="UTF-8" standalone="no"?>
<svg
   xmlns:dc="http://purl.org/dc/elements/1.1/"
   xmlns:cc="http://creativecommons.org/ns#"
   xmlns:rdf="http://www.w3.org/1999/02/22-rdf-syntax-ns#"
   xmlns:svg="http://www.w3.org/2000/svg"
   xmlns="http://www.w3.org/2000/svg"
   viewBox="0 0 188.97333 188.97333"
   height="188.97333"
   width="188.97333"
   xml:space="preserve"
   id="svg2"
   version="1.1"><metadata
     id="metadata8"><rdf:RDF><cc:Work
         rdf:about=""><dc:format>image/svg+xml</dc:format><dc:type
           rdf:resource="http://purl.org/dc/dcmitype/StillImage" /></cc:Work></rdf:RDF></metadata><defs
     id="defs6"><clipPath
       id="clipPath18"
       clipPathUnits="userSpaceOnUse"><path
         id="path16"
         d="M 0,141.73 H 141.73 V 0 H 0 Z" /></clipPath></defs><g
     transform="matrix(1.3333333,0,0,-1.3333333,0,188.97333)"
     id="g10"><g
       id="g12"><g
         clip-path="url(#clipPath18)"
         id="g14"><g
           transform="translate(89.3379,76.2446)"
           id="g20"><path
             id="path22"
             style="fill:#373535;fill-opacity:1;fill-rule:nonzero;stroke:none"
             d="m 0,0 h -35.734 c -1.975,0 -3.574,1.311 -3.574,2.933 0,1.62 1.599,2.932 3.574,2.932 H 10e-4 C 1.976,5.865 3.575,4.553 3.575,2.933 3.575,1.311 1.976,0 0,0 m -75.044,-35.19 c -3.94,0 -7.146,-2.629 -7.146,-5.865 v -26.392 c 0,-1.616 1.601,-2.932 3.572,-2.932 h 10.721 v 35.189 z m 28.589,-35.189 h 57.178 v 29.324 c 0,3.236 -3.205,5.865 -7.15,5.865 h -42.881 c -3.94,0 -7.147,-2.629 -7.147,-5.865 z m 78.617,0 h 10.72 c 1.969,0 3.574,1.316 3.574,2.932 v 26.392 c 0,3.236 -3.204,5.865 -7.146,5.865 h -7.148 z m 10.72,-5.866 h -121.5 c -5.91,0 -10.719,3.947 -10.719,8.798 v 26.392 c 0,6.468 6.41,11.73 14.293,11.73 h 7.147 V 2.933 c 0,1.62 1.599,2.932 3.576,2.932 1.973,0 3.572,-1.312 3.572,-2.932 v -73.312 h 7.147 v 29.324 c 0,6.468 6.411,11.73 14.294,11.73 H 3.575 c 7.88,0 14.293,-5.262 14.293,-11.73 v -29.324 h 7.147 V 2.933 c 0,1.62 1.599,2.932 3.574,2.932 1.976,0 3.573,-1.312 3.573,-2.932 v -32.258 h 7.149 c 7.879,0 14.293,-5.262 14.293,-11.73 v -26.392 c 0,-4.851 -4.81,-8.798 -10.722,-8.798" /></g><g
           transform="translate(89.3379,76.2446)"
           id="g24"><path
             id="path26"
             style="fill:none;stroke:#373535;stroke-width:2;stroke-linecap:butt;stroke-linejoin:miter;stroke-miterlimit:10;stroke-dasharray:none;stroke-opacity:1"
             d="m 0,0 h -35.734 c -1.975,0 -3.574,1.311 -3.574,2.933 0,1.62 1.599,2.932 3.574,2.932 H 10e-4 C 1.976,5.865 3.575,4.553 3.575,2.933 3.575,1.311 1.976,0 0,0 Z m -75.044,-35.19 c -3.94,0 -7.146,-2.629 -7.146,-5.865 v -26.392 c 0,-1.616 1.601,-2.932 3.572,-2.932 h 10.721 v 35.189 z m 28.589,-35.189 h 57.178 v 29.324 c 0,3.236 -3.205,5.865 -7.15,5.865 h -42.881 c -3.94,0 -7.147,-2.629 -7.147,-5.865 z m 78.617,0 h 10.72 c 1.969,0 3.574,1.316 3.574,2.932 v 26.392 c 0,3.236 -3.204,5.865 -7.146,5.865 h -7.148 z m 10.72,-5.866 h -121.5 c -5.91,0 -10.719,3.947 -10.719,8.798 v 26.392 c 0,6.468 6.41,11.73 14.293,11.73 h 7.147 V 2.933 c 0,1.62 1.599,2.932 3.576,2.932 1.973,0 3.572,-1.312 3.572,-2.932 v -73.312 h 7.147 v 29.324 c 0,6.468 6.411,11.73 14.294,11.73 H 3.575 c 7.88,0 14.293,-5.262 14.293,-11.73 v -29.324 h 7.147 V 2.933 c 0,1.62 1.599,2.932 3.574,2.932 1.976,0 3.573,-1.312 3.573,-2.932 v -32.258 h 7.149 c 7.879,0 14.293,-5.262 14.293,-11.73 v -26.392 c 0,-4.851 -4.81,-8.798 -10.722,-8.798 z" /></g><path
           id="path28"
           style="fill:#373535;fill-opacity:1;fill-rule:nonzero;stroke:none"
           d="m 42.883,70.38 h 7.147 v 23.459 h -7.147 z m 50.03,0 h 7.147 v 23.459 h -7.147 z m 10.72,-5.866 H 89.338 c -1.976,0 -3.573,1.312 -3.573,2.933 v 29.324 c 0,1.621 1.597,2.933 3.573,2.933 h 14.295 c 1.974,0 3.573,-1.312 3.573,-2.933 V 82.109 h 10.721 c 1.968,0 3.573,1.315 3.573,2.933 v 35.189 c 0,8.084 -8.013,14.663 -17.867,14.663 H 39.31 c -9.852,0 -17.87,-6.578 -17.87,-14.663 V 85.042 c 0,-1.618 1.603,-2.933 3.577,-2.933 h 10.719 v 14.662 c 0,1.622 1.597,2.933 3.574,2.933 h 14.294 c 1.974,0 3.572,-1.311 3.572,-2.933 V 67.447 c 0,-1.621 -1.598,-2.933 -3.572,-2.933 H 39.31 c -1.977,0 -3.574,1.312 -3.574,2.933 v 8.798 H 25.017 c -5.913,0 -10.723,3.946 -10.723,8.797 v 35.189 c 0,11.318 11.224,20.527 25.016,20.527 h 64.323 c 13.793,0 25.014,-9.209 25.014,-20.527 V 85.042 c 0,-4.851 -4.808,-8.797 -10.72,-8.797 h -10.721 v -8.798 c 0,-1.621 -1.599,-2.933 -3.573,-2.933 M 25.015,23.46 H 3.574 C 1.599,23.46 0,24.771 0,26.393 c 0,1.622 1.599,2.933 3.574,2.933 h 21.443 c 1.973,0 3.572,-1.311 3.572,-2.933 0,-1.622 -1.599,-2.933 -3.574,-2.933 m 78.618,0 H 39.31 c -1.977,0 -3.574,1.311 -3.574,2.933 0,1.622 1.597,2.933 3.574,2.933 h 64.323 c 1.974,0 3.573,-1.311 3.573,-2.933 0,-1.622 -1.599,-2.933 -3.573,-2.933 m 35.734,0 h -21.44 c -1.975,0 -3.574,1.311 -3.574,2.933 0,1.622 1.599,2.933 3.574,2.933 h 21.44 c 1.976,0 3.575,-1.311 3.575,-2.933 0,-1.622 -1.599,-2.933 -3.575,-2.933" /><path
           id="path30"
           style="fill:none;stroke:#373535;stroke-width:2;stroke-linecap:butt;stroke-linejoin:miter;stroke-miterlimit:10;stroke-dasharray:none;stroke-opacity:1"
           d="m 42.883,70.38 h 7.147 v 23.459 h -7.147 z m 50.03,0 h 7.147 v 23.459 h -7.147 z m 10.72,-5.866 H 89.338 c -1.976,0 -3.573,1.312 -3.573,2.933 v 29.324 c 0,1.621 1.597,2.933 3.573,2.933 h 14.295 c 1.974,0 3.573,-1.312 3.573,-2.933 V 82.109 h 10.721 c 1.968,0 3.573,1.315 3.573,2.933 v 35.189 c 0,8.084 -8.013,14.663 -17.867,14.663 H 39.31 c -9.852,0 -17.87,-6.578 -17.87,-14.663 V 85.042 c 0,-1.618 1.603,-2.933 3.577,-2.933 h 10.719 v 14.662 c 0,1.622 1.597,2.933 3.574,2.933 h 14.294 c 1.974,0 3.572,-1.311 3.572,-2.933 V 67.447 c 0,-1.621 -1.598,-2.933 -3.572,-2.933 H 39.31 c -1.977,0 -3.574,1.312 -3.574,2.933 v 8.798 H 25.017 c -5.913,0 -10.723,3.946 -10.723,8.797 v 35.189 c 0,11.318 11.224,20.527 25.016,20.527 h 64.323 c 13.793,0 25.014,-9.209 25.014,-20.527 V 85.042 c 0,-4.851 -4.808,-8.797 -10.72,-8.797 h -10.721 v -8.798 c 0,-1.621 -1.599,-2.933 -3.573,-2.933 z M 25.015,23.46 H 3.574 C 1.599,23.46 0,24.771 0,26.393 c 0,1.622 1.599,2.933 3.574,2.933 h 21.443 c 1.973,0 3.572,-1.311 3.572,-2.933 0,-1.622 -1.599,-2.933 -3.574,-2.933 z m 78.618,0 H 39.31 c -1.977,0 -3.574,1.311 -3.574,2.933 0,1.622 1.597,2.933 3.574,2.933 h 64.323 c 1.974,0 3.573,-1.311 3.573,-2.933 0,-1.622 -1.599,-2.933 -3.573,-2.933 z m 35.734,0 h -21.44 c -1.975,0 -3.574,1.311 -3.574,2.933 0,1.622 1.599,2.933 3.574,2.933 h 21.44 c 1.976,0 3.575,-1.311 3.575,-2.933 0,-1.622 -1.599,-2.933 -3.575,-2.933 z" /></g></g></g></svg>