<?xml version="1.0" encoding="UTF-8" standalone="no"?>
<svg
   xmlns:dc="http://purl.org/dc/elements/1.1/"
   xmlns:cc="http://creativecommons.org/ns#"
   xmlns:rdf="http://www.w3.org/1999/02/22-rdf-syntax-ns#"
   xmlns:svg="http://www.w3.org/2000/svg"
   xmlns="http://www.w3.org/2000/svg"
   viewBox="0 0 188.97333 188.97333"
   height="188.97333"
   width="188.97333"
   xml:space="preserve"
   id="svg2"
   version="1.1"><metadata
     id="metadata8"><rdf:RDF><cc:Work
         rdf:about=""><dc:format>image/svg+xml</dc:format><dc:type
           rdf:resource="http://purl.org/dc/dcmitype/StillImage" /></cc:Work></rdf:RDF></metadata><defs
     id="defs6"><clipPath
       id="clipPath18"
       clipPathUnits="userSpaceOnUse"><path
         id="path16"
         d="M 0,141.73 H 141.73 V 0 H 0 Z" /></clipPath></defs><g
     transform="matrix(1.3333333,0,0,-1.3333333,0,188.97333)"
     id="g10"><g
       id="g12"><g
         clip-path="url(#clipPath18)"
         id="g14"><g
           transform="translate(89.3379,76.2446)"
           id="g20"><path
             id="path22"
             style="fill:#000000;fill-opacity:1;fill-rule:nonzero;stroke:none"
             d="m 0,0 h -35.734 c -1.975,0 -3.574,1.311 -3.574,2.933 0,1.62 1.599,2.932 3.574,2.932 H 10e-4 C 1.976,5.865 3.575,4.553 3.575,2.933 3.575,1.311 1.976,0 0,0 m -75.044,-35.19 c -3.94,0 -7.146,-2.629 -7.146,-5.865 v -26.392 c 0,-1.616 1.601,-2.932 3.572,-2.932 h 10.721 v 35.189 z m 28.589,-35.189 h 57.178 v 29.324 c 0,3.236 -3.205,5.865 -7.15,5.865 h -42.881 c -3.94,0 -7.147,-2.629 -7.147,-5.865 z m 78.617,0 h 10.72 c 1.969,0 3.574,1.316 3.574,2.932 v 26.392 c 0,3.236 -3.204,5.865 -7.146,5.865 h -7.148 z m 10.72,-5.866 h -121.5 c -5.91,0 -10.719,3.947 -10.719,8.798 v 26.392 c 0,6.468 6.41,11.73 14.293,11.73 h 7.147 V 2.933 c 0,1.62 1.599,2.932 3.576,2.932 1.973,0 3.572,-1.312 3.572,-2.932 v -73.312 h 7.147 v 29.324 c 0,6.468 6.411,11.73 14.294,11.73 H 3.575 c 7.88,0 14.293,-5.262 14.293,-11.73 v -29.324 h 7.147 V 2.933 c 0,1.62 1.599,2.932 3.574,2.932 1.976,0 3.573,-1.312 3.573,-2.932 v -32.258 h 7.149 c 7.879,0 14.293,-5.262 14.293,-11.73 v -26.392 c 0,-4.851 -4.81,-8.798 -10.722,-8.798" /></g><g
           transform="translate(53.604,81.1094)"
           id="g24"><path
             id="path26"
             style="fill:#000000;fill-opacity:1;fill-rule:nonzero;stroke:none"
             d="m 0,0 c -1.419,0 -2.574,-0.867 -2.574,-1.932 0,-1.066 1.155,-1.933 2.574,-1.933 h 35.734 c 1.42,0 2.575,0.867 2.575,1.933 C 38.309,-0.867 37.154,0 35.735,0 Z M 35.734,-5.865 H 0 c -2.522,0 -4.574,1.764 -4.574,3.933 C -4.574,0.236 -2.522,2 0,2 h 35.735 c 2.522,0 4.574,-1.764 4.574,-3.932 0,-2.169 -2.053,-3.933 -4.575,-3.933 m -75.044,-35.19 c -3.389,0 -6.147,-2.182 -6.147,-4.865 v -26.392 c 0,-1.047 1.179,-1.932 2.573,-1.932 h 9.72 v 33.189 z m 8.146,-35.189 h -11.72 c -2.521,0 -4.573,1.764 -4.573,3.932 v 26.392 c 0,3.785 3.655,6.865 8.147,6.865 h 8.146 z m 21.443,2 h 55.178 v 28.324 c 0,2.683 -2.759,4.865 -6.15,4.865 H -3.574 c -3.389,0 -6.147,-2.182 -6.147,-4.865 z m 57.178,-2 h -59.178 v 30.324 c 0,3.785 3.655,6.865 8.147,6.865 h 42.881 c 4.493,0 8.15,-3.08 8.15,-6.865 z m 21.439,2 h 9.72 c 1.395,0 2.574,0.885 2.574,1.932 v 26.392 c 0,2.683 -2.757,4.865 -6.147,4.865 h -6.147 z m 9.72,-2 h -11.72 v 37.189 h 8.147 c 4.493,0 8.147,-3.08 8.147,-6.865 v -26.392 c 0,-2.168 -2.052,-3.932 -4.574,-3.932 M -39.31,-35.189 c -7.33,0 -13.294,-4.814 -13.294,-10.731 v -26.392 c 0,-4.299 4.361,-7.797 9.72,-7.797 h 121.5 c 5.361,0 9.722,3.498 9.722,7.797 v 26.392 c 0,5.917 -5.963,10.731 -13.294,10.731 H 66.896 V -1.932 C 66.896,-0.867 65.742,0 64.323,0 62.904,0 61.749,-0.867 61.749,-1.932 v -74.312 h -9.147 v 30.324 c 0,5.917 -5.963,10.731 -13.293,10.731 H -3.574 c -7.33,0 -13.294,-4.814 -13.294,-10.731 v -30.324 h -9.147 v 74.312 c 0,1.065 -1.154,1.932 -2.572,1.932 -1.421,0 -2.577,-0.867 -2.577,-1.932 v -33.257 z m 117.926,-46.92 h -121.5 c -6.462,0 -11.72,4.395 -11.72,9.797 v 26.392 c 0,7.02 6.861,12.731 15.294,12.731 h 6.146 v 31.257 c 0,2.168 2.053,3.932 4.577,3.932 2.521,0 4.572,-1.764 4.572,-3.932 v -72.312 h 5.147 v 28.324 c 0,7.02 6.861,12.731 15.294,12.731 h 42.883 c 8.433,0 15.293,-5.711 15.293,-12.731 v -28.324 h 5.147 V -1.932 C 59.749,0.236 61.8,2 64.323,2 c 2.521,0 4.573,-1.764 4.573,-3.932 v -31.257 h 6.148 c 8.433,0 15.294,-5.711 15.294,-12.731 v -26.392 c 0,-5.402 -5.258,-9.797 -11.722,-9.797" /></g><path
           id="path28"
           style="fill:#000000;fill-opacity:1;fill-rule:nonzero;stroke:none"
           d="m 42.883,70.38 h 7.147 v 23.459 h -7.147 z m 50.03,0 h 7.147 v 23.459 h -7.147 z m 10.72,-5.866 H 89.338 c -1.976,0 -3.573,1.312 -3.573,2.933 v 29.324 c 0,1.621 1.597,2.933 3.573,2.933 h 14.295 c 1.974,0 3.573,-1.312 3.573,-2.933 V 82.109 h 10.721 c 1.968,0 3.573,1.315 3.573,2.933 v 35.189 c 0,8.084 -8.013,14.663 -17.867,14.663 H 39.31 c -9.852,0 -17.87,-6.578 -17.87,-14.663 V 85.042 c 0,-1.618 1.603,-2.933 3.577,-2.933 h 10.719 v 14.662 c 0,1.622 1.597,2.933 3.574,2.933 h 14.294 c 1.974,0 3.572,-1.311 3.572,-2.933 V 67.447 c 0,-1.621 -1.598,-2.933 -3.572,-2.933 H 39.31 c -1.977,0 -3.574,1.312 -3.574,2.933 v 8.798 H 25.017 c -5.913,0 -10.723,3.946 -10.723,8.797 v 35.189 c 0,11.318 11.224,20.527 25.016,20.527 h 64.323 c 13.793,0 25.014,-9.209 25.014,-20.527 V 85.042 c 0,-4.851 -4.808,-8.797 -10.72,-8.797 h -10.721 v -8.798 c 0,-1.621 -1.599,-2.933 -3.573,-2.933 M 25.015,23.46 H 3.574 C 1.599,23.46 0,24.771 0,26.393 c 0,1.622 1.599,2.933 3.574,2.933 h 21.443 c 1.973,0 3.572,-1.311 3.572,-2.933 0,-1.622 -1.599,-2.933 -3.574,-2.933 m 78.618,0 H 39.31 c -1.977,0 -3.574,1.311 -3.574,2.933 0,1.622 1.597,2.933 3.574,2.933 h 64.323 c 1.974,0 3.573,-1.311 3.573,-2.933 0,-1.622 -1.599,-2.933 -3.573,-2.933 m 35.734,0 h -21.44 c -1.975,0 -3.574,1.311 -3.574,2.933 0,1.622 1.599,2.933 3.574,2.933 h 21.44 c 1.976,0 3.575,-1.311 3.575,-2.933 0,-1.622 -1.599,-2.933 -3.575,-2.933" /><path
           id="path30"
           style="fill:#000000;fill-opacity:1;fill-rule:nonzero;stroke:none"
           d="m 43.883,71.38 h 5.147 v 21.459 h -5.147 z m 7.147,-1.999 h -9.147 v 25.458 h 9.147 z m 42.883,1.999 h 5.147 v 21.459 h -5.147 z m 7.148,-1.999 h -9.147 v 25.458 h 9.147 z M 89.338,98.704 c -1.419,0 -2.573,-0.867 -2.573,-1.933 V 67.447 c 0,-1.066 1.154,-1.933 2.573,-1.933 h 14.295 c 1.419,0 2.573,0.867 2.573,1.933 v 9.798 h 11.721 c 5.36,0 9.72,3.498 9.72,7.797 v 35.189 c 0,10.768 -10.772,19.527 -24.014,19.527 H 39.31 c -13.243,0 -24.016,-8.759 -24.016,-19.527 V 85.042 c 0,-4.299 4.361,-7.797 9.723,-7.797 h 11.719 v -9.798 c 0,-1.066 1.155,-1.933 2.574,-1.933 h 14.294 c 1.418,0 2.572,0.867 2.572,1.933 v 29.324 c 0,1.066 -1.154,1.933 -2.572,1.933 H 39.31 c -1.419,0 -2.574,-0.867 -2.574,-1.933 V 81.109 H 25.017 c -2.524,0 -4.577,1.765 -4.577,3.933 v 35.189 c 0,8.637 8.465,15.663 18.87,15.663 h 64.323 c 10.403,0 18.867,-7.026 18.867,-15.663 V 85.042 c 0,-2.168 -2.052,-3.933 -4.573,-3.933 h -11.721 v 15.662 c 0,1.066 -1.154,1.933 -2.573,1.933 z m 14.295,-35.19 H 89.338 c -2.522,0 -4.573,1.764 -4.573,3.933 v 29.324 c 0,2.168 2.051,3.933 4.573,3.933 h 14.295 c 2.521,0 4.573,-1.765 4.573,-3.933 V 83.109 h 9.721 c 1.394,0 2.573,0.886 2.573,1.933 v 35.189 c 0,7.534 -7.566,13.663 -16.867,13.663 H 39.31 c -9.302,0 -16.87,-6.129 -16.87,-13.663 V 85.042 c 0,-1.047 1.18,-1.933 2.577,-1.933 h 9.719 v 13.662 c 0,2.168 2.052,3.933 4.574,3.933 h 14.294 c 2.521,0 4.572,-1.765 4.572,-3.933 V 67.447 c 0,-2.169 -2.051,-3.933 -4.572,-3.933 H 39.31 c -2.522,0 -4.574,1.764 -4.574,3.933 v 7.798 h -9.719 c -6.464,0 -11.723,4.395 -11.723,9.797 v 35.189 c 0,11.871 11.67,21.527 26.016,21.527 h 64.323 c 14.345,0 26.014,-9.656 26.014,-21.527 V 85.042 c 0,-5.402 -5.257,-9.797 -11.72,-9.797 h -9.721 v -7.798 c 0,-2.169 -2.052,-3.933 -4.573,-3.933 M 3.574,28.326 C 2.155,28.326 1,27.459 1,26.393 1,25.327 2.155,24.46 3.574,24.46 h 21.441 c 1.419,0 2.574,0.867 2.574,1.933 0,1.066 -1.154,1.933 -2.572,1.933 z M 25.015,22.46 H 3.574 C 1.052,22.46 -1,24.224 -1,26.393 c 0,2.169 2.052,3.933 4.574,3.933 h 21.443 c 2.521,0 4.572,-1.764 4.572,-3.933 0,-2.169 -2.052,-3.933 -4.574,-3.933 m 14.295,5.866 c -1.419,0 -2.574,-0.867 -2.574,-1.933 0,-1.066 1.155,-1.933 2.574,-1.933 h 64.323 c 1.419,0 2.573,0.867 2.573,1.933 0,1.066 -1.154,1.933 -2.573,1.933 z M 103.633,22.46 H 39.31 c -2.522,0 -4.574,1.764 -4.574,3.933 0,2.169 2.052,3.933 4.574,3.933 h 64.323 c 2.521,0 4.573,-1.764 4.573,-3.933 0,-2.169 -2.052,-3.933 -4.573,-3.933 m 14.294,5.866 c -1.419,0 -2.574,-0.867 -2.574,-1.933 0,-1.066 1.155,-1.933 2.574,-1.933 h 21.44 c 1.42,0 2.575,0.867 2.575,1.933 0,1.066 -1.155,1.933 -2.575,1.933 z m 21.44,-5.866 h -21.44 c -2.523,0 -4.574,1.764 -4.574,3.933 0,2.169 2.051,3.933 4.574,3.933 h 21.44 c 2.523,0 4.575,-1.764 4.575,-3.933 0,-2.169 -2.052,-3.933 -4.575,-3.933" /><g
           transform="translate(113.3535,75.1997)"
           id="g32"><path
             id="path34"
             style="fill:#ffffff;fill-opacity:1;fill-rule:nonzero;stroke:none"
             d="m 0,0 h -5.146 v -7.797 c 0,-2.169 -2.052,-3.934 -4.574,-3.934 h -14.295 c -2.521,0 -4.573,1.765 -4.573,3.934 V 0 h -26.588 v -7.797 c 0,-2.169 -2.052,-3.934 -4.573,-3.934 h -14.294 c -2.521,0 -4.573,1.765 -4.573,3.934 V 0 h -5.148 v -68.379 h 5.148 v 28.324 c 0,7.019 6.861,12.73 15.294,12.73 h 42.883 c 8.432,0 15.293,-5.711 15.293,-12.73 V -68.379 H 0 Z" /></g><g
           transform="translate(22.4414,85.042)"
           id="g36"><path
             id="path38"
             style="fill:#ffffff;fill-opacity:1;fill-rule:nonzero;stroke:none"
             d="m 0,0 c 0,-1.047 1.18,-1.933 2.576,-1.933 h 9.72 v 13.662 c 0,2.168 2.052,3.933 4.573,3.933 h 14.295 c 2.521,0 4.572,-1.765 4.572,-3.933 V -1.933 h 26.588 v 13.662 c 0,2.168 2.052,3.933 4.573,3.933 h 14.295 c 2.522,0 4.574,-1.765 4.574,-3.933 V -1.933 h 9.72 c 1.395,0 2.574,0.886 2.574,1.933 v 35.189 c 0,7.534 -7.567,13.663 -16.868,13.663 H 16.869 C 7.567,48.852 0,42.723 0,35.189 Z" /></g><g
           transform="translate(128.6484,40.0098)"
           id="g40"><path
             id="path42"
             style="fill:#ffffff;fill-opacity:1;fill-rule:nonzero;stroke:none"
             d="M 0,0 H -6.147 V -9.729 H 6.146 v 4.864 C 6.146,-2.183 3.39,0 0,0" /></g><g
           transform="translate(134.7949,8.7529)"
           id="g44"><path
             id="path46"
             style="fill:#ffffff;fill-opacity:1;fill-rule:nonzero;stroke:none"
             d="M 0,0 V 13.662 H -12.294 V -1.933 h 9.72 C -1.179,-1.933 0,-1.048 0,0" /></g><g
           transform="translate(99.0615,35.1445)"
           id="g48"><path
             id="path50"
             style="fill:#ffffff;fill-opacity:1;fill-rule:nonzero;stroke:none"
             d="M 0,0 C 0,2.683 -2.759,4.865 -6.149,4.865 H -49.03 c -3.39,0 -6.147,-2.182 -6.147,-4.865 V -4.863 H 0 Z" /></g><path
           id="path52"
           style="fill:#ffffff;fill-opacity:1;fill-rule:nonzero;stroke:none"
           d="M 99.062,22.415 H 43.885 V 6.82 h 55.177 z" /><g
           transform="translate(20.4414,30.2813)"
           id="g54"><path
             id="path56"
             style="fill:#ffffff;fill-opacity:1;fill-rule:nonzero;stroke:none"
             d="m 0,0 v 9.729 h -6.146 c -3.39,0 -6.147,-2.183 -6.147,-4.866 V 0 Z" /></g><path
           id="path58"
           style="fill:#ffffff;fill-opacity:1;fill-rule:nonzero;stroke:none"
           d="M 99.062,92.794 H 93.915 V 71.335 h 5.147 z" /><path
           id="path60"
           style="fill:#ffffff;fill-opacity:1;fill-rule:nonzero;stroke:none"
           d="m 43.884,71.335 h 5.147 v 21.459 h -5.147 z" /><g
           transform="translate(10.7212,6.8203)"
           id="g62"><path
             id="path64"
             style="fill:#ffffff;fill-opacity:1;fill-rule:nonzero;stroke:none"
             d="M 0,0 H 9.72 V 15.595 H -2.573 V 1.933 C -2.573,0.885 -1.395,0 0,0" /></g></g></g></g></svg>
