<?xml version="1.0" encoding="UTF-8" standalone="no"?>
<svg
   xmlns:dc="http://purl.org/dc/elements/1.1/"
   xmlns:cc="http://creativecommons.org/ns#"
   xmlns:rdf="http://www.w3.org/1999/02/22-rdf-syntax-ns#"
   xmlns:svg="http://www.w3.org/2000/svg"
   xmlns="http://www.w3.org/2000/svg"
   viewBox="0 0 188.97333 188.97333"
   height="188.97333"
   width="188.97333"
   xml:space="preserve"
   id="svg2"
   version="1.1"><metadata
     id="metadata8"><rdf:RDF><cc:Work
         rdf:about=""><dc:format>image/svg+xml</dc:format><dc:type
           rdf:resource="http://purl.org/dc/dcmitype/StillImage" /></cc:Work></rdf:RDF></metadata><defs
     id="defs6"><clipPath
       id="clipPath18"
       clipPathUnits="userSpaceOnUse"><path
         id="path16"
         d="M 0,141.73 H 141.73 V 0 H 0 Z" /></clipPath></defs><g
     transform="matrix(1.3333333,0,0,-1.3333333,0,188.97333)"
     id="g10"><g
       id="g12"><g
         clip-path="url(#clipPath18)"
         id="g14"><g
           transform="translate(108.0195,44.5898)"
           id="g20"><path
             id="path22"
             style="fill:none;stroke:#373535;stroke-width:8.5;stroke-linecap:butt;stroke-linejoin:miter;stroke-miterlimit:10;stroke-dasharray:none;stroke-opacity:1"
             d="m 0,0 c 0,-2.747 -2.228,-4.976 -4.974,-4.976 h -63.693 c -2.747,0 -4.977,2.23 -4.977,4.976 v 38.958 c 0,6.868 5.569,12.436 12.437,12.436 h 48.77 C -5.567,51.394 0,45.826 0,38.958 Z m -8.981,-32.294 c -4.8,0 -8.697,3.894 -8.697,8.696 0,4.808 3.897,8.7 8.697,8.7 4.806,0 8.697,-3.892 8.697,-8.7 0,-4.802 -3.891,-8.696 -8.697,-8.696 z m -55.684,0 c -4.802,0 -8.693,3.894 -8.693,8.696 0,4.808 3.891,8.7 8.693,8.7 4.804,0 8.702,-3.892 8.702,-8.7 0,-4.802 -3.898,-8.696 -8.702,-8.696 z m 22.195,98.425 h -20.858 c -15.264,0 -27.632,-12.37 -27.632,-27.628 v -66.38 c 0,-6.867 5.569,-12.436 12.437,-12.436 H 4.881 c 6.869,0 12.437,5.569 12.437,12.436 v 66.38 C 17.317,53.761 4.949,66.131 -10.313,66.131 h -20.854" /></g><g
           transform="translate(70.8672,119.52)"
           id="g24"><path
             id="path26"
             style="fill:#373535;fill-opacity:1;fill-rule:nonzero;stroke:none"
             d="M 0,0 -6.482,12.579 H 6.484 Z m 37.148,3.884 -6.481,15.424 c -0.759,1.799 -2.521,2.969 -4.471,2.969 h -52.394 c -1.951,0 -3.713,-1.17 -4.47,-2.969 L -37.152,3.884 c -1.037,-2.471 0.123,-5.314 2.59,-6.353 2.463,-1.025 5.31,0.12 6.352,2.592 l 5.232,12.456 h 5.59 L -5.824,-9.865 H 5.827 l 11.565,22.444 h 5.583 L 28.208,0.123 c 0.782,-1.855 2.581,-2.973 4.47,-2.973 0.631,0 1.265,0.124 1.881,0.381 2.467,1.039 3.628,3.882 2.589,6.353" /></g></g></g></g></svg>