<?xml version="1.0" encoding="UTF-8" standalone="no"?>
<svg
   xmlns:dc="http://purl.org/dc/elements/1.1/"
   xmlns:cc="http://creativecommons.org/ns#"
   xmlns:rdf="http://www.w3.org/1999/02/22-rdf-syntax-ns#"
   xmlns:svg="http://www.w3.org/2000/svg"
   xmlns="http://www.w3.org/2000/svg"
   viewBox="0 0 188.97333 188.97333"
   height="188.97333"
   width="188.97333"
   xml:space="preserve"
   id="svg2"
   version="1.1"><metadata
     id="metadata8"><rdf:RDF><cc:Work
         rdf:about=""><dc:format>image/svg+xml</dc:format><dc:type
           rdf:resource="http://purl.org/dc/dcmitype/StillImage" /></cc:Work></rdf:RDF></metadata><defs
     id="defs6"><clipPath
       id="clipPath18"
       clipPathUnits="userSpaceOnUse"><path
         id="path16"
         d="M 0,141.73 H 141.73 V 0 H 0 Z" /></clipPath></defs><g
     transform="matrix(1.3333333,0,0,-1.3333333,0,188.97333)"
     id="g10"><g
       id="g12"><g
         clip-path="url(#clipPath18)"
         id="g14"><g
           transform="translate(86.2236,27.3789)"
           id="g20"><path
             id="path22"
             style="fill:none;stroke:#373535;stroke-width:7;stroke-linecap:butt;stroke-linejoin:miter;stroke-miterlimit:10;stroke-dasharray:none;stroke-opacity:1"
             d="m 0,0 c 0.168,0.75 0.26,1.52 0.26,2.312 0,5.978 -5.219,10.832 -11.672,10.832 -1.679,0 -3.296,-0.322 -4.745,-0.92 -2.976,7.736 -10.879,13.289 -20.234,13.289 -7.214,0 -13.576,-3.304 -17.482,-8.357 -1.633,0.568 -3.385,0.877 -5.218,0.877 -8.237,0 -14.92,-6.203 -14.92,-13.865 0,-1.276 0.211,-2.522 0.563,-3.697 -5.098,-1.416 -9.246,-5.75 -9.246,-10.896 v -0.279 c 0,-6.304 6.652,-12.521 13.44,-12.521 h 64.967 c 6.773,0 11.046,6.217 11.046,12.521 v 0.279 C 6.759,-5.75 4.287,-1.753 0,0 Z" /></g><g
           transform="translate(84.8984,24.1396)"
           id="g24"><path
             id="path26"
             style="fill:#ffffff;fill-opacity:1;fill-rule:nonzero;stroke:none"
             d="m 0,0 -2.736,1.119 0.646,2.885 c 0.117,0.526 0.175,1.032 0.175,1.546 0,4.043 -3.666,7.332 -8.172,7.332 -1.194,0 -2.373,-0.227 -3.407,-0.654 l -3.316,-1.373 -1.289,3.35 c -2.542,6.608 -9.36,11.047 -16.966,11.047 -5.827,0 -11.327,-2.616 -14.713,-6.997 l -1.539,-1.99 -2.377,0.824 c -1.308,0.453 -2.679,0.683 -4.072,0.683 -6.297,0 -11.42,-4.649 -11.42,-10.365 0,-0.866 0.14,-1.772 0.416,-2.693 l 1.024,-3.421 -3.441,-0.955 c -3.871,-1.076 -6.682,-4.24 -6.682,-7.525 v -0.279 c 0,-4.384 5.109,-9.019 9.94,-9.019 h 64.967 c 4.724,0 7.546,4.586 7.546,9.019 v 0.279 C 4.584,-3.861 2.87,-1.175 0,0" /></g><g
           transform="translate(77.6074,52.8301)"
           id="g28"><path
             id="path30"
             style="fill:#ffffff;fill-opacity:1;fill-rule:nonzero;stroke:none"
             d="m 0,0 c 5.555,-0.732 10.642,-3.175 14.538,-6.936 4.5,4.85 8.541,10.693 11.348,16.459 0.233,0.481 0.23,1.018 -0.008,1.514 -0.266,0.562 -0.821,1.008 -1.49,1.207 L 5.101,17.936 27.157,82.283 c 0.02,0.057 0.088,0.261 -0.049,0.525 -0.076,0.148 -0.273,0.416 -0.726,0.549 -0.678,0.199 -1.516,-0.118 -1.694,-0.643 L 2.727,18.644 -16.279,24.252 c -0.729,0.214 -1.546,0.131 -2.194,-0.227 -0.578,-0.319 -0.976,-0.829 -1.1,-1.403 -0.677,-3.268 -1.102,-6.79 -1.249,-10.317 C -12.519,10.739 -5.119,6.38 0,0" /></g><g
           transform="translate(105.0078,139.522)"
           id="g32"><path
             id="path34"
             style="fill:none;stroke:#373535;stroke-width:7;stroke-linecap:butt;stroke-linejoin:miter;stroke-miterlimit:10;stroke-dasharray:none;stroke-opacity:1"
             d="m 0,0 c -2.52,0.736 -5.203,-0.538 -5.997,-2.875 l -20.871,-60.891 -15.792,4.66 c -1.632,0.481 -3.402,0.298 -4.882,-0.524 -1.465,-0.807 -2.487,-2.167 -2.823,-3.725 -0.93,-4.49 -1.404,-9.31 -1.386,-14.078 9.183,-0.907 17.421,-5.582 22.518,-12.609 6.727,-0.479 12.617,-3.823 16.263,-8.737 5.89,5.637 11.138,12.876 14.632,20.057 0.701,1.443 0.701,3.101 0,4.56 -0.686,1.445 -2.03,2.564 -3.646,3.045 l -15.79,4.659 20.871,60.892 C 3.89,-3.229 2.502,-0.737 0,0 Z" /></g></g></g></g></svg>
