<?xml version="1.0" encoding="utf-8"?>
<!-- Generator: Adobe Illustrator 19.0.0, SVG Export Plug-In . SVG Version: 6.00 Build 0)  -->
<svg version="1.1" id="Layer_1" xmlns="http://www.w3.org/2000/svg" xmlns:xlink="http://www.w3.org/1999/xlink" x="0px" y="0px"
	 viewBox="0 0 141.7 141.7" style="enable-background:new 0 0 141.7 141.7;" xml:space="preserve">
<g>
	<path d="M40.7,78c-2.6,0-4.6,1.9-4.6,4.3v30.8c0,2.4,2.1,4.3,4.6,4.3c2.6,0,4.6-1.9,4.6-4.3V82.3C45.3,80,43.3,78,40.7,78z"/>
	<path d="M78.5,78c-2.6,0-4.6,1.9-4.6,4.3v30.8c0,2.4,2.1,4.3,4.6,4.3c2.6,0,4.6-1.9,4.6-4.3V82.3C83.1,80,81.1,78,78.5,78z"/>
	<path d="M135.4,53.1c-3.7-2.9-8.5-4.5-13.6-4.5h-6.1v-3.8c2.3-3.1,3.5-6.6,3.5-10.1c0-9.8-9-18.1-21-19.3l-0.3,0
		C95.5,6.4,85.7,0,74.5,0c-6.5,0-12.8,2.2-17.3,6l-0.3,0.2l-0.5-0.1c-10.6-2.6-22.7,1.5-28,9.3l-0.1,0.1l-0.5-0.1
		c-1.2-0.2-2.5-0.2-3.8-0.2c-13.2,0-24,8.7-24,19.5c0,3.6,1.2,7.1,3.5,10.1v71.9c0,13.2,13.3,23.9,29.6,23.9h53
		c14.8,0,27.3-8.8,29.3-20.6h6.4c10.8,0,19.6-7.2,19.6-16V64.6C141.4,60.2,139.3,56.1,135.4,53.1z M106.4,116.7
		c0,8.5-9.1,15.3-20.3,15.3h-53c-11.2,0-20.3-6.9-20.3-15.3V51.9l0.8,0.3c3.3,1.3,6.8,1.9,10.4,1.9h4.3v10.1
		c0,6.7,6.6,12.1,14.6,12.1c8.1,0,14.6-5.4,14.6-12.1V54.1h37.8c3.6,0,7.1-0.7,10.4-1.9l0.8-0.3V116.7z M95.2,45.5H52.8
		c-1.1,0-2.2,0.4-3,1h-0.4v0.3c-0.8,0.8-1.3,1.8-1.3,2.9v14.4c0,1.9-2.4,3.6-5.3,3.6c-2.9,0-5.3-1.6-5.3-3.6V49.8
		c0-1.1-0.5-2.2-1.3-2.9v-0.3h-0.4c-0.8-0.6-1.8-1-3-1H24c-8.1,0-14.7-4.9-14.7-10.9c0-6,6.6-10.9,14.7-10.9c1.9,0,3.7,0.3,5.4,0.8
		l1.4,0.2c0.6,0,1.1-0.1,1.8-0.3l2-1l0.6-1.6c1.7-4.7,7.6-8.1,14.2-8.1c2.5,0,4.8,0.4,6.9,1.3l1.1,0.4h0.9c1.4,0,2.8-0.6,3.7-1.7
		c2.7-3.3,7.4-5.2,12.5-5.2c8.1,0,14.6,4.9,14.7,11c0,1.3,0.6,2.5,1.8,3.4l1.7,1l1.5-0.1c0.4,0,0.8,0,1.1,0
		c8.1,0,14.7,4.9,14.7,10.9C109.9,40.6,103.3,45.5,95.2,45.5z M132.2,103.9c0,4.1-4.7,7.5-10.3,7.5h-6.1V57.2h6.1
		c5.6,0,10.3,3.4,10.3,7.5V103.9z"/>
</g>
</svg>
