<?xml version="1.0" encoding="utf-8"?>
<!-- Generator: Adobe Illustrator 19.0.0, SVG Export Plug-In . SVG Version: 6.00 Build 0)  -->
<svg version="1.1" id="Layer_1" xmlns="http://www.w3.org/2000/svg" xmlns:xlink="http://www.w3.org/1999/xlink" x="0px" y="0px"
	 viewBox="0 0 141.7 141.7" style="enable-background:new 0 0 141.7 141.7;" xml:space="preserve">
<style type="text/css">
	.st0{fill:#FBAA19;}
</style>
<g>
	<path class="st0" d="M125.7,23.8c0.3-2.3-0.4-4.5-2-6.1c-1.6-1.6-3.8-2.3-6.1-2c-2.6,0.4-5.4-0.2-7.9-1.6C98.9,8,83.9,6.4,68.3,9.7
		c-15,3.2-29.1,10.4-38.6,19.9c-9.5,9.5-16.8,23.5-20,38.5C6.5,83.9,8,98.6,14.1,109.5c1.4,2.5,2,5.3,1.6,7.9
		c-0.3,2.3,0.4,4.5,2,6.1c1.6,1.6,3.8,2.3,6.1,2c0.5-0.1,1-0.1,1.5-0.1c2.2,0,4.4,0.6,6.4,1.7c10.8,6.1,25.8,7.6,41.4,4.3
		c15-3.2,29.1-10.5,38.6-19.9c9.5-9.5,16.8-23.5,20-38.5c3.3-15.7,1.8-30.4-4.3-41.3C125.9,29.2,125.3,26.4,125.7,23.8z M19,103.5
		c-0.4,0.1-0.9,0.2-1.3,0.2c-1.1,0-2.1-0.4-2.9-1.2c-0.4-0.4-0.8-1-1-1.6c-0.7-2.2-1.3-4.5-1.8-6.9c-0.4-2.2,1.1-4.3,3.3-4.7
		c2.3-0.4,4.3,1.1,4.7,3.3c0.4,2,0.9,4,1.5,5.8C22.2,100.5,21.1,102.8,19,103.5z M28.3,50.5c-5.5,10-8.8,21.8-9,32.5
		c0,2.2-1.9,4-4,4h-0.1c-1.1,0-2-0.4-2.8-1.2c-0.8-0.8-1.2-1.8-1.2-2.9c0.2-11.9,3.9-25.1,10-36.2c1-1.9,3.6-2.6,5.5-1.6
		C28.6,46.1,29.4,48.5,28.3,50.5z M51.7,103.3c-0.7,0.8-1.8,1.2-2.9,1.2h0c-1.1,0-2.1-0.4-2.8-1.2c-0.8-0.8-1.2-1.8-1.2-2.8
		c0-1.1,0.4-2.1,1.2-2.9c1.5-1.5,4.2-1.5,5.7,0c0.8,0.8,1.2,1.8,1.2,2.9C52.8,101.5,52.4,102.5,51.7,103.3z M55.6,51.5
		c-0.7,0.7-1.8,1.2-2.8,1.2h0c-1.1,0-2.1-0.4-2.8-1.2c-0.7-0.7-1.2-1.8-1.2-2.8c0-1.1,0.4-2.1,1.2-2.9c1.5-1.5,4.2-1.5,5.7,0
		c0.8,0.8,1.2,1.8,1.2,2.9C56.8,49.8,56.4,50.8,55.6,51.5z M81.5,105.3c-0.7,0.7-1.8,1.2-2.8,1.2l0-1.4v1.4c-1.1,0-2.1-0.4-2.8-1.2
		c-0.8-0.7-1.2-1.8-1.2-2.8c0-1.1,0.4-2.1,1.2-2.9c1.5-1.5,4.2-1.5,5.7,0c0.8,0.7,1.2,1.8,1.2,2.9C82.7,103.5,82.3,104.5,81.5,105.3
		z M89.5,37.6c-0.8,0.8-1.8,1.2-2.8,1.2h0c-1.1,0-2.1-0.4-2.8-1.2c-0.8-0.8-1.2-1.8-1.2-2.9c0-1,0.4-2.1,1.2-2.8
		c1.5-1.5,4.2-1.5,5.7,0c0.8,0.8,1.2,1.8,1.2,2.9C90.7,35.8,90.3,36.9,89.5,37.6z M105.5,65.5c-0.8,0.8-1.8,1.2-2.9,1.2h0
		c-1.1,0-2.1-0.4-2.9-1.2c-0.8-0.8-1.2-1.8-1.2-2.9c0-1,0.4-2.1,1.2-2.8c1.5-1.5,4.2-1.5,5.7,0c0.8,0.8,1.2,1.8,1.2,2.9
		C106.6,63.7,106.2,64.7,105.5,65.5z M130.2,54.9c0.5,12.9-3.2,27.4-9.9,39.7c-0.7,1.3-2.1,2.1-3.5,2.1c-0.7,0-1.3-0.2-1.9-0.5
		c-0.3-0.2-0.6-0.4-0.9-0.7c-1.3-1.3-1.5-3.2-0.7-4.8c6.1-11.1,9.4-24,9-35.5c0-1.1,0.3-2.1,1.1-2.9c0.7-0.8,1.7-1.2,2.8-1.3h0
		C128.3,51,130.1,52.7,130.2,54.9z M125.7,48.9c-0.3,0.1-0.6,0.1-1,0.1c-1.1,0-2.1-0.4-2.9-1.2c-0.5-0.5-0.9-1.2-1.1-1.9
		c-0.4-1.8-1-3.6-1.7-5.3c-0.8-2.1,0.1-4.4,2.2-5.3c2-0.8,4.4,0.2,5.3,2.2c0.9,2.1,1.6,4.3,2.1,6.5
		C129.2,46.2,127.9,48.4,125.7,48.9z"/>
</g>
<g>
	<path d="M134.5,28c-0.5-1-0.8-2-0.7-2.8c0.7-4.8-0.9-9.5-4.3-12.9c-3.4-3.4-8.1-5-12.9-4.3c-0.9,0.1-1.9-0.1-2.8-0.7
		c-12.5-7-29.5-8.9-47-5.2C50.3,5.6,34.7,13.7,24.2,24.2C13.6,34.8,5.6,50.3,2,66.8c-3.8,17.7-1.9,34.3,5.2,46.9
		c0.5,0.9,0.8,1.9,0.7,2.8c-0.7,4.8,0.9,9.5,4.3,12.9c3.4,3.4,8,5,12.9,4.3c0.8-0.1,1.9,0.1,2.8,0.7c8.3,4.6,18.5,7.1,29.5,7.1
		c5.7,0,11.6-0.6,17.5-1.9c16.5-3.5,32.1-11.6,42.6-22.1c10.6-10.5,18.6-26,22.1-42.5C143.4,57.3,141.6,40.6,134.5,28z M17.9,123.7
		c-1.6-1.6-2.3-3.8-2-6.1c0.4-2.6-0.2-5.4-1.6-7.9C8.1,98.9,6.6,84.2,9.9,68.5c3.2-15,10.5-29.1,20-38.5
		c9.5-9.5,23.5-16.7,38.6-19.9c15.6-3.3,30.6-1.7,41.4,4.3c2.5,1.4,5.3,2,7.9,1.6c2.3-0.3,4.5,0.4,6.1,2c1.6,1.6,2.3,3.8,2,6.1
		c-0.3,2.6,0.2,5.4,1.6,7.9c6.1,10.9,7.7,25.6,4.3,41.3c-3.2,15-10.5,29.1-20,38.5c-9.5,9.5-23.5,16.7-38.6,19.9
		c-15.6,3.3-30.6,1.7-41.4-4.3c-2-1.1-4.2-1.7-6.4-1.7c-0.5,0-1,0-1.5,0.1C21.8,126,19.5,125.3,17.9,123.7z"/>
	<path d="M20.2,92.9c-0.4-2.2-2.4-3.7-4.7-3.3c-2.2,0.4-3.7,2.5-3.3,4.7c0.4,2.4,1,4.8,1.8,6.9c0.2,0.6,0.5,1.1,1,1.6
		c0.8,0.8,1.8,1.2,2.9,1.2c0.4,0,0.9-0.1,1.3-0.2c2.1-0.7,3.2-3,2.5-5.1C21,96.9,20.5,94.9,20.2,92.9z"/>
	<path d="M121,46.2c0.2,0.7,0.5,1.4,1.1,1.9c0.8,0.8,1.8,1.2,2.9,1.2c0.3,0,0.6,0,1-0.1c2.2-0.5,3.5-2.7,3-4.9
		c-0.5-2.2-1.2-4.4-2.1-6.5c-0.8-2-3.3-3-5.3-2.2c-2.1,0.8-3,3.2-2.2,5.3C120,42.6,120.6,44.4,121,46.2z"/>
	<path d="M26.8,45.3c-1.9-1-4.5-0.3-5.5,1.6c-6.1,11.1-9.7,24.3-10,36.2c0,1.1,0.4,2.2,1.2,2.9c0.7,0.7,1.7,1.2,2.8,1.2h0.1
		c2.2,0,4-1.8,4-4c0.2-10.6,3.5-22.5,9-32.5C29.5,48.8,28.8,46.3,26.8,45.3z M15.4,85.8L15.4,85.8L15.4,85.8L15.4,85.8z"/>
	<path d="M114.9,96.4c0.6,0.3,1.3,0.5,1.9,0.5c1.5,0,2.8-0.8,3.5-2.1c6.8-12.3,10.4-26.8,9.9-39.7c-0.1-2.2-1.8-3.9-4.2-3.9h0
		c-1.1,0-2.1,0.5-2.8,1.3c-0.7,0.8-1.1,1.8-1.1,2.9c0.4,11.5-2.9,24.4-9,35.5c-0.9,1.6-0.6,3.5,0.7,4.8
		C114.2,96,114.5,96.2,114.9,96.4z"/>
	<path d="M86.8,39.1L86.8,39.1c1.1,0,2.1-0.4,2.9-1.2c0.7-0.8,1.2-1.8,1.2-2.8c0-1.1-0.4-2.1-1.2-2.9c-1.5-1.5-4.2-1.5-5.7,0
		C83.2,33,82.8,34,82.8,35c0,1.1,0.4,2.1,1.2,2.9C84.7,38.6,85.7,39.1,86.8,39.1z"/>
	<path d="M102.7,66.9L102.7,66.9c1.1,0,2.1-0.4,2.9-1.2c0.7-0.8,1.2-1.8,1.2-2.8c0-1.1-0.4-2.1-1.2-2.9c-1.5-1.5-4.2-1.5-5.7,0
		c-0.8,0.8-1.2,1.8-1.2,2.8c0,1,0.4,2.1,1.2,2.9C100.6,66.5,101.7,66.9,102.7,66.9z"/>
	<path d="M52.9,53L52.9,53c1.1,0,2.1-0.4,2.9-1.2C56.5,51.1,57,50,57,49c0-1.1-0.4-2.1-1.2-2.9c-1.5-1.5-4.2-1.5-5.7,0
		c-0.8,0.8-1.2,1.8-1.2,2.9c0,1.1,0.4,2.1,1.2,2.8C50.8,52.6,51.9,53,52.9,53z"/>
	<path d="M78.8,106.7v-1.4v0l0,0v0V106.7c1.1,0,2.1-0.4,2.9-1.2c0.8-0.8,1.2-1.8,1.2-2.8c0-1.1-0.4-2.1-1.2-2.9
		c-1.5-1.5-4.2-1.5-5.7,0c-0.8,0.7-1.2,1.8-1.2,2.8c0,1.1,0.4,2.1,1.2,2.8C76.7,106.3,77.8,106.7,78.8,106.7z"/>
	<path d="M48.9,104.7L48.9,104.7c1.1,0,2.1-0.4,2.9-1.2c0.8-0.7,1.2-1.8,1.2-2.8c0-1.1-0.4-2.1-1.2-2.9c-1.5-1.5-4.2-1.5-5.7,0
		c-0.8,0.8-1.2,1.8-1.2,2.9c0,1.1,0.4,2.1,1.2,2.8C46.8,104.3,47.9,104.7,48.9,104.7z M48.9,103.3L48.9,103.3L48.9,103.3L48.9,103.3
		z"/>
</g>
</svg>
