<?xml version="1.0" encoding="utf-8"?>
<!-- Generator: Adobe Illustrator 19.0.0, SVG Export Plug-In . SVG Version: 6.00 Build 0)  -->
<svg version="1.1" id="Layer_1" xmlns="http://www.w3.org/2000/svg" xmlns:xlink="http://www.w3.org/1999/xlink" x="0px" y="0px"
	 viewBox="0 0 141.7 141.7" style="enable-background:new 0 0 141.7 141.7;" xml:space="preserve">
<path d="M129.3,113.7V43.5c0-17.8-14.7-33.1-35.8-37.5V3.7c0-2-1.9-3.7-4.3-3.7h-33C53.9,0,52,1.7,52,3.7V6
	c-21.1,4.4-35.8,19.7-35.8,37.5v13.1H4.3c-2.4,0-4.3,1.7-4.3,3.7c0,2,1.9,3.7,4.3,3.7h11.9v31.6H4.3c-2.4,0-4.3,1.7-4.3,3.7
	c0,2,1.9,3.7,4.3,3.7h11.9v23.2c-1.9,0.6-3.3,2.1-3.3,4v7.1c0,2.3,2.2,4.2,5,4.2H23c2.7,0,5-1.9,5-4.2v-7.1c0-1.8-1.3-3.3-3.2-3.9
	v-23.2h96v10.6c-7.2,1.6-12.4,7-12.4,13.2c0,7.5,7.5,13.7,16.6,13.7c9.2,0,16.6-6.1,16.6-13.7C141.7,120.7,136.5,115.3,129.3,113.7z
	 M60.5,9.5V7.4h24.4v2.1H60.5z M125,133.2c-4.4,0-8.1-2.8-8.1-6.3c0-2.2,1.5-4.2,3.8-5.3v5.3c0,2.1,1.9,3.7,4.3,3.7
	c2.4,0,4.3-1.7,4.3-3.7v-5.3c2.3,1.1,3.8,3.1,3.8,5.3C133.1,130.4,129.5,133.2,125,133.2z M120.7,43.5v52.1h-96V43.5
	c0-13.7,11.1-25.8,27.3-29.9c0.3,1.8,2.1,3.3,4.2,3.3h33c2.2,0,4-1.4,4.3-3.3C109.6,17.8,120.7,29.9,120.7,43.5z"/>
</svg>
