<?xml version="1.0" encoding="utf-8"?>
<!-- Generator: Adobe Illustrator 19.0.0, SVG Export Plug-In . SVG Version: 6.00 Build 0)  -->
<svg version="1.1" id="Layer_1" xmlns="http://www.w3.org/2000/svg" xmlns:xlink="http://www.w3.org/1999/xlink" x="0px" y="0px"
	 viewBox="0 0 141.7 141.7" style="enable-background:new 0 0 141.7 141.7;" xml:space="preserve">
<style type="text/css">
	.st0{fill:#FBAA19;}
</style>
<g>
	<path class="st0" d="M67.6,58.8l-37.5-10v31.6c0,7,14.1,16.6,40.5,16.6c26.4,0,40.5-9.6,40.5-16.6V48.8l-37.5,10
		C71.6,59.3,69.6,59.3,67.6,58.8z"/>
	<path class="st0" d="M133.3,29.6c0-3-1.7-5.6-4-6.2L70.7,7.9L69.4,8L11.8,23.4c-2.3,0.6-4,3.2-4,6.2c0,3,1.7,5.6,4,6.2l58.7,15.5
		l1.2-0.2l57.5-15.4C131.6,35.2,133.3,32.6,133.3,29.6z"/>
</g>
<g>
	<path d="M133.1,112.2l-2.2,1.9c-3.2,2.8-6.2,13.5-6.2,18.4c0,5,3.8,9,8.4,9c4.6,0,8.4-4.1,8.4-9c0-4.9-3-15.6-6.2-18.4L133.1,112.2
		z"/>
	<path d="M141.5,29.8c0-6.6-4-12.3-9.8-13.8L73.8,0.6c-1.9-0.5-4-0.5-6,0L10.1,16c-5.8,1.5-9.8,7.2-9.8,13.8c0,6.6,4,12.3,9.8,13.8
		l12.4,3.3v33.7c0,15.3,18.1,24.5,48.4,24.5c16.3,0,29.4-2.7,37.7-7.7c8.8-5.3,10.7-12.1,10.7-16.8V46.9l12.4-3.3
		C137.4,42.1,141.5,36.4,141.5,29.8z M30.4,49.1l37.5,10c2,0.5,4,0.5,6,0l37.5-10v31.6c0,7-14.1,16.6-40.5,16.6
		c-26.4,0-40.5-9.6-40.5-16.6V49.1z M70.8,51.5L12.1,36c-2.3-0.6-4-3.2-4-6.2c0-3,1.7-5.6,4-6.2L69.7,8.3l1.3-0.2l58.7,15.5
		c2.3,0.6,4,3.2,4,6.2c0,3-1.7,5.6-4,6.2L72.1,51.4L70.8,51.5z"/>
	<path d="M129.1,55.5v46.2c0,2.2,1.8,3.9,3.9,3.9c2.2,0,3.9-1.8,3.9-3.9V55.5c0-2.2-1.8-3.9-3.9-3.9
		C130.9,51.5,129.1,53.3,129.1,55.5z"/>
</g>
</svg>
