<svg xmlns:svg="http://www.w3.org/2000/svg" xmlns="http://www.w3.org/2000/svg" viewBox="0 0 189 189" height="189" width="189" xml:space="preserve" version="1.1">
  <style>
    .s0{fill:#fbac31;}.s1{fill:#000;}
  </style>
  <defs>
    <clipPath clipPathUnits="userSpaceOnUse">
      <path d="M0 141.7H141.7V0H0Z"/>
    </clipPath>
  </defs>
  <g transform="matrix(1.3333333,0,0,-1.3333333,0,188.97333)">
    <g clip-path="url(#clipPath18)">
      <g transform="translate(83.1387,28.6045)">
        <path d="M0 0C0-2.4-2.1-4.3-4.6-4.3-7.2-4.3-9.3-2.4-9.3 0v30.8c0 2.4 2.1 4.3 4.6 4.3 2.6 0 4.6-1.9 4.6-4.3zm-37.8 0c0-2.4-2.1-4.3-4.6-4.3-2.6 0-4.6 1.9-4.6 4.3v30.8c0 2.4 2.1 4.3 4.6 4.3 2.6 0 4.6-1.9 4.6-4.3zM12.1 59H-25.7V48.9c0-6.7-6.6-12.1-14.6-12.1-8.1 0-14.6 5.4-14.6 12.1V59h-4.3c-3.6 0-7.1 0.6-10.4 1.9l-0.8 0.3V-3.5c0-8.5 9.1-15.3 20.3-15.3H2.9c11.2 0 20.3 6.9 20.3 15.3V61.3L22.5 61C19.2 59.7 15.7 59 12.1 59" fill="#fbac31"/>
      </g>
      <g transform="translate(132.1602,37.8125)">
        <path d="m0 0v39.3c0 4.1-4.7 7.5-10.3 7.5h-6.1V-7.5h6.1C-4.7-7.5 0-4.1 0 0" fill="#fbac31"/>
      </g>
      <g transform="translate(23.9658,96.1992)">
        <path d="m0 0h8.9c1.1 0 2.2-0.4 3-1h0.4v-0.3c0.8-0.8 1.3-1.8 1.3-2.9v-14.4c0-1.9 2.4-3.6 5.3-3.6 2.9 0 5.3 1.6 5.3 3.6v14.4c0 1.1 0.5 2.2 1.3 2.9v0.3h0.4C26.7-0.4 27.7 0 28.8 0h42.4c8.1 0 14.7 4.9 14.7 10.9 0 6-6.6 10.9-14.7 10.9-0.3 0-0.7 0-1.1 0l-1.5-0.1-1.7 1c-1.2 0.9-1.8 2.1-1.8 3.4 0 6-6.6 11-14.7 11-5.1 0-9.8-2-12.5-5.2-0.9-1.1-2.3-1.7-3.7-1.7h-0.9l-1.1 0.4c-2.1 0.8-4.4 1.3-6.9 1.3-6.6 0-12.4-3.3-14.2-8.1L10.7 22.1 8.7 21.2C8 20.9 7.5 20.8 6.9 20.8L5.4 21C3.7 21.5 1.9 21.8 0 21.8-8.1 21.8-14.7 16.9-14.7 10.9-14.7 4.9-8.1 0 0 0" fill="#fff"/>
      </g>
      <g transform="translate(40.8413,63.7637)">
        <path d="m0 0c-2.6 0-4.6-1.9-4.6-4.3v-30.8c0-2.4 2.1-4.3 4.6-4.3 2.6 0 4.6 1.9 4.6 4.3V-4.3C4.6-1.9 2.6 0 0 0" fill="#000"/>
      </g>
      <g transform="translate(78.6387,63.7637)">
        <path d="m0 0c-2.6 0-4.6-1.9-4.6-4.3v-30.8c0-2.4 2.1-4.3 4.6-4.3 2.6 0 4.6 1.9 4.6 4.3V-4.3C4.6-1.9 2.6 0 0 0" fill="#000"/>
      </g>
      <g transform="translate(132.3008,37.8945)">
        <path d="m0 0c0-4.1-4.7-7.5-10.3-7.5h-6.1v54.2h6.1C-4.7 46.8 0 43.3 0 39.3ZM-36.9 58.4H-79.3c-1.1 0-2.2-0.4-3-1h-0.4v-0.3c-0.8-0.8-1.3-1.8-1.3-2.9V39.7c0-1.9-2.4-3.6-5.3-3.6-2.9 0-5.3 1.6-5.3 3.6v14.4c0 1.1-0.5 2.2-1.3 2.9v0.3h-0.4c-0.8 0.6-1.8 1-3 1h-8.9c-8.1 0-14.7 4.9-14.7 10.9 0 6 6.6 10.9 14.7 10.9 1.9 0 3.7-0.3 5.4-0.8l1.4-0.2c0.6 0 1.1 0.1 1.8 0.3l2 1 0.6 1.6c1.7 4.7 7.6 8.1 14.2 8.1 2.5 0 4.8-0.4 6.9-1.3l1.1-0.4h0.9c1.4 0 2.8 0.6 3.7 1.7 2.7 3.3 7.4 5.2 12.5 5.2 8.1 0 14.6-4.9 14.7-11 0-1.3 0.6-2.5 1.8-3.4l1.7-1 1.5 0.1c0.4 0 0.8 0 1.1 0 8.1 0 14.7-4.9 14.7-10.9 0-6-6.6-10.9-14.7-10.9m11.2-71.1c0-8.5-9.1-15.3-20.3-15.3h-53c-11.2 0-20.3 6.9-20.3 15.3v64.8l0.8-0.3c3.3-1.3 6.8-1.9 10.4-1.9h4.3V39.7c0-6.7 6.6-12.1 14.6-12.1 8.1 0 14.6 5.4 14.6 12.1v10.1h37.8c3.6 0 7.1 0.7 10.4 1.9l0.8 0.3zM3.3 50.8c-3.7 2.9-8.5 4.5-13.6 4.5h-6.1v3.8c2.3 3.1 3.5 6.6 3.5 10.1 0 9.8-9 18.1-21 19.3l-0.3 0c-2.4 8.9-12.2 15.3-23.4 15.3-6.5 0-12.8-2.2-17.3-6l-0.3-0.2-0.5 0.1c-10.6 2.6-22.7-1.5-28-9.3l-0.1-0.1-0.5 0.1c-1.2 0.2-2.5 0.2-3.8 0.2-13.2 0-24-8.7-24-19.5 0-3.6 1.2-7.1 3.5-10.1v-71.9c0-13.2 13.3-23.9 29.6-23.9h53c14.8 0 27.3 8.9 29.3 20.6h6.4C0.5-16 9.3-8.8 9.3 0v39.3c0 4.4-2.1 8.5-6 11.6" fill="#000"/>
      </g>
    </g>
  </g>
</svg>
