<svg height="189" width="189" viewBox="0 0 189 189" xmlns="http://www.w3.org/2000/svg">
  <path d="M110.9 150.8c0 3.2-2.8 5.8-6.2 5.8-3.4 0-6.2-2.6-6.2-5.8v-41c0-3.2 2.8-5.8 6-5.8 3.6 0 6.2 2.6 6.2 5.8zm-50.4 0c0 3.2-2.8 5.8-6.2 5.8-3.4 0-6.1-2.6-6.1-5.8v-41c0-3.2 2.8-5.8 6.1-5.8 3.5 0 6.2 2.6 6.2 5.8zM127 72.2H76.6v13.4c0 9-8.8 16.2-19.5 16.2-10.8 0-19.4-7.2-19.4-16.2V72.2h-5.8c-4.8 0-9.4-.8-13.8-2.6l-1.1-.4v86.3c0 11.3 12.1 20.4 27 20.4h70.7c15 0 27-9.2 27-20.4V69.1l-.8.4c-4.4 1.7-9.1 2.7-14 2.7M176.2 138.6V86.2c0-5.5-6.3-10-13.7-10h-8.2v72.4h8.2c7.4 0 13.7-4.6 13.7-10" fill="#fbac31"/>
  <path d="M32 60.7h11.8c1.5 0 3 .5 4 1.3h.6v.4c1 1.1 1.7 2.4 1.7 4v19.1c0 2.5 3.2 4.8 7 4.8s7.1-2.1 7.1-4.8V66.3c0-1.5.7-3 1.8-3.9V62h.5c1-.8 2.4-1.3 3.9-1.3h56.5c10.8 0 19.6-6.5 19.6-14.5s-8.8-14.6-19.6-14.6h-1.5l-2 .2-2.2-1.4a5.6 5.6 0 01-2.4-4.5c0-8-8.8-14.7-19.6-14.7a22 22 0 00-16.7 7 6.4 6.4 0 01-5 2.2h-1.1l-1.5-.5c-2.8-1-5.9-1.7-9.2-1.7-8.8 0-16.5 4.4-19 10.8l-.5 2.2-2.6 1.2c-1 .4-1.6.6-2.4.6l-2-.3c-2.3-.7-4.7-1-7.2-1-10.8 0-19.6 6.5-19.6 14.5S21.2 60.7 32 60.7" fill="#fff"/>
  <path d="M54.5 104c-3.5 0-6.2 2.5-6.2 5.7v41c0 3.3 2.8 5.8 6.2 5.8 3.4 0 6-2.5 6-5.7v-41.1c0-3.2-2.6-5.7-6-5.7M104.9 104c-3.5 0-6.2 2.5-6.2 5.7v41c0 3.3 2.8 5.8 6.2 5.8 3.4 0 6-2.5 6-5.7v-41.1c0-3.2-2.6-5.7-6-5.7"/>
  <path d="M176.4 138.4c0 5.5-6.3 10-13.7 10h-8.2V76.2h8.2c7.4-.2 13.7 4.5 13.7 9.8zm-49.2-77.8H70.7c-1.5 0-3 .5-4 1.3H66v.4c-1 1-1.7 2.4-1.7 3.9v19.3c0 2.5-3.2 4.8-7 4.8s-7.1-2.1-7.1-4.8V66.3c0-1.5-.7-3-1.8-3.9V62H48c-1-.8-2.4-1.3-4-1.3H32.1c-10.8 0-19.6-6.5-19.6-14.5s8.8-14.6 19.6-14.6c2.6 0 5 .4 7.2 1.1l1.9.3c.8 0 1.5-.2 2.4-.4l2.7-1.4.8-2c2.2-6.4 10.1-10.9 18.9-10.9 3.3 0 6.4.5 9.2 1.7l1.5.6h1.2c1.8 0 3.7-.8 4.9-2.3 3.6-4.4 9.9-7 16.7-7 10.8 0 19.4 6.6 19.6 14.7 0 1.8.8 3.4 2.4 4.6l2.2 1.3 2-.1h1.5c10.8 0 19.6 6.5 19.6 14.5s-8.8 14.5-19.6 14.5m15 94.8C142.1 167 130 176 115 176H44.4c-15 0-27-9.2-27-20.4V69.2l1 .4c4.4 1.8 9 2.6 13.9 2.6H38v13.3c0 9 8.8 16.1 19.5 16.1 10.8 0 19.4-7.2 19.4-16V72h50.4c4.8 0 9.5-.9 13.9-2.5l1-.4zm38.6-84.9c-5-3.9-11.3-6-18.1-6h-8.2v-5c3.1-4.2 4.7-8.9 4.7-13.5 0-13-12-24.2-28-25.8h-.4C127.6 8.6 114.5 0 99.6 0c-8.7 0-17 3-23 8l-.5.3-.6-.1c-14.2-3.5-30.3 2-37.4 12.4l-.1.1-.7-.1c-1.6-.3-3.3-.3-5-.3-17.6 0-32 11.6-32 26a22 22 0 004.6 13.5v95.8c0 17.6 17.8 32 39.5 32h70.7c19.7 0 36.4-12 39-27.6h8.6c14.4-.2 26.1-9.8 26.1-21.6V86c0-5.8-2.8-11.3-8-15.4"/>
</svg>
