<?xml version="1.0" encoding="UTF-8" standalone="no"?>
<svg
   xmlns:dc="http://purl.org/dc/elements/1.1/"
   xmlns:cc="http://creativecommons.org/ns#"
   xmlns:rdf="http://www.w3.org/1999/02/22-rdf-syntax-ns#"
   xmlns:svg="http://www.w3.org/2000/svg"
   xmlns="http://www.w3.org/2000/svg"
   viewBox="0 0 188.97333 188.97333"
   height="188.97333"
   width="188.97333"
   xml:space="preserve"
   id="svg2"
   version="1.1"><metadata
     id="metadata8"><rdf:RDF><cc:Work
         rdf:about=""><dc:format>image/svg+xml</dc:format><dc:type
           rdf:resource="http://purl.org/dc/dcmitype/StillImage" /></cc:Work></rdf:RDF></metadata><defs
     id="defs6"><clipPath
       id="clipPath18"
       clipPathUnits="userSpaceOnUse"><path
         id="path16"
         d="M 0,141.73 H 141.73 V 0 H 0 Z" /></clipPath></defs><g
     transform="matrix(1.3333333,0,0,-1.3333333,0,188.97333)"
     id="g10"><g
       id="g12"><g
         clip-path="url(#clipPath18)"
         id="g14"><g
           transform="translate(83.1387,28.6045)"
           id="g20"><path
             id="path22"
             style="fill:#fbac31;fill-opacity:1;fill-rule:nonzero;stroke:none"
             d="M 0,0 C 0,-2.36 -2.079,-4.283 -4.641,-4.283 -7.2,-4.283 -9.285,-2.36 -9.285,0 v 30.795 c 0,2.359 2.085,4.282 4.644,4.282 2.562,0 4.641,-1.923 4.641,-4.282 z m -37.794,0 c 0,-2.36 -2.085,-4.283 -4.644,-4.283 -2.56,0 -4.644,1.923 -4.644,4.283 v 30.795 c 0,2.359 2.084,4.282 4.644,4.282 2.559,0 4.644,-1.923 4.644,-4.282 z M 12.094,59.04 H -25.679 V 48.923 c 0,-6.676 -6.558,-12.112 -14.616,-12.112 -8.059,0 -14.617,5.436 -14.617,12.112 V 59.04 h -4.261 c -3.638,0 -7.142,0.648 -10.414,1.923 l -0.766,0.303 V -3.529 c 0,-8.46 9.124,-15.34 20.34,-15.34 H 2.939 c 11.211,0 20.332,6.88 20.332,15.34 V 61.268 L 22.51,60.971 C 19.241,59.69 15.737,59.04 12.094,59.04" /></g><g
           transform="translate(132.1602,37.8125)"
           id="g24"><path
             id="path26"
             style="fill:#fbac31;fill-opacity:1;fill-rule:nonzero;stroke:none"
             d="m 0,0 v 39.275 c 0,4.057 -4.728,7.483 -10.321,7.483 h -6.137 V -7.48 h 6.137 C -4.728,-7.48 0,-4.057 0,0" /></g><g
           transform="translate(23.9658,96.1992)"
           id="g28"><path
             id="path30"
             style="fill:#fbac31;fill-opacity:1;fill-rule:nonzero;stroke:none"
             d="m 0,0 h 8.908 c 1.134,0 2.176,-0.376 2.984,-1.001 h 0.383 v -0.332 c 0.791,-0.766 1.28,-1.804 1.28,-2.944 v -14.394 c 0,-1.928 2.436,-3.556 5.323,-3.556 2.883,0 5.32,1.628 5.32,3.556 v 14.394 c 0,1.14 0.489,2.18 1.282,2.947 v 0.329 h 0.38 C 26.668,-0.376 27.71,0 28.845,0 h 42.422 c 8.091,0 14.674,4.889 14.674,10.896 0,6.013 -6.583,10.904 -14.674,10.904 -0.325,0 -0.694,-0.013 -1.124,-0.042 l -1.492,-0.103 -1.688,0.988 c -1.195,0.909 -1.805,2.11 -1.805,3.385 -0.028,6.031 -6.611,10.951 -14.673,10.951 -5.118,0 -9.796,-1.954 -12.509,-5.23 -0.877,-1.054 -2.255,-1.681 -3.691,-1.681 h -0.869 l -1.082,0.398 c -2.081,0.843 -4.425,1.285 -6.89,1.285 -6.591,0 -12.415,-3.311 -14.161,-8.052 L 10.699,22.111 8.727,21.15 C 8.011,20.897 7.452,20.802 6.891,20.802 L 5.443,21.018 C 3.7,21.537 1.861,21.8 0,21.8 -8.095,21.8 -14.678,16.909 -14.678,10.896 -14.678,4.889 -8.095,0 0,0" /></g><g
           transform="translate(40.8413,63.7637)"
           id="g32"><path
             id="path34"
             style="fill:#373535;fill-opacity:1;fill-rule:nonzero;stroke:none"
             d="m 0,0 c -2.56,0 -4.644,-1.923 -4.644,-4.282 v -30.795 c 0,-2.361 2.084,-4.283 4.644,-4.283 2.559,0 4.643,1.922 4.643,4.283 V -4.282 C 4.643,-1.923 2.559,0 0,0" /></g><g
           transform="translate(78.6387,63.7637)"
           id="g36"><path
             id="path38"
             style="fill:#373535;fill-opacity:1;fill-rule:nonzero;stroke:none"
             d="m 0,0 c -2.559,0 -4.645,-1.923 -4.645,-4.282 v -30.795 c 0,-2.361 2.086,-4.283 4.645,-4.283 2.563,0 4.641,1.922 4.641,4.283 V -4.282 C 4.641,-1.923 2.563,0 0,0" /></g><g
           transform="translate(132.3008,37.8945)"
           id="g40"><path
             id="path42"
             style="fill:#373535;fill-opacity:1;fill-rule:nonzero;stroke:none"
             d="m 0,0 c 0,-4.057 -4.727,-7.48 -10.32,-7.48 h -6.137 v 54.238 h 6.137 C -4.727,46.758 0,43.332 0,39.275 Z M -36.928,58.387 H -79.35 c -1.134,0 -2.175,-0.377 -2.984,-1.001 h -0.379 v -0.329 c -0.795,-0.767 -1.283,-1.807 -1.283,-2.948 V 39.715 c 0,-1.927 -2.438,-3.555 -5.32,-3.555 -2.887,0 -5.323,1.628 -5.323,3.555 v 14.394 c 0,1.141 -0.489,2.179 -1.28,2.945 v 0.332 h -0.383 c -0.807,0.624 -1.85,1.001 -2.984,1.001 h -8.908 c -8.095,0 -14.678,4.888 -14.678,10.896 0,6.013 6.583,10.904 14.678,10.904 1.861,0 3.7,-0.263 5.444,-0.782 l 1.447,-0.216 c 0.561,0 1.12,0.095 1.836,0.348 l 1.972,0.961 0.584,1.588 c 1.746,4.741 7.569,8.052 14.161,8.052 2.465,0 4.809,-0.443 6.891,-1.285 l 1.082,-0.398 h 0.869 c 1.435,0 2.812,0.627 3.689,1.68 2.715,3.277 7.391,5.231 12.51,5.231 8.063,0 14.645,-4.92 14.674,-10.951 0,-1.275 0.609,-2.477 1.805,-3.385 l 1.687,-0.988 1.492,0.103 c 0.43,0.029 0.799,0.042 1.123,0.042 8.092,0 14.676,-4.891 14.676,-10.904 0,-6.008 -6.584,-10.896 -14.676,-10.896 m 11.178,-71.124 c 0,-8.46 -9.121,-15.34 -20.332,-15.34 h -52.953 c -11.215,0 -20.339,6.88 -20.339,15.34 v 64.795 l 0.766,-0.303 c 3.273,-1.275 6.776,-1.923 10.414,-1.923 h 4.261 V 39.715 c 0,-6.677 6.558,-12.112 14.617,-12.112 8.058,0 14.617,5.435 14.617,12.112 v 10.117 h 37.771 c 3.645,0 7.149,0.65 10.416,1.931 l 0.762,0.297 z M 3.27,50.838 c -3.672,2.884 -8.5,4.475 -13.59,4.475 h -6.137 v 3.837 c 2.291,3.061 3.504,6.559 3.504,10.133 0,9.819 -9.047,18.123 -21.047,19.314 l -0.289,0.029 c -2.381,8.871 -12.195,15.292 -23.42,15.292 -6.502,0 -12.803,-2.17 -17.289,-5.96 l -0.27,-0.227 -0.539,0.132 c -10.564,2.573 -22.708,-1.47 -27.985,-9.3 l -0.09,-0.135 -0.523,0.066 c -1.249,0.169 -2.523,0.248 -3.789,0.248 -13.214,0 -23.966,-8.729 -23.966,-19.459 0,-3.582 1.213,-7.08 3.498,-10.124 v -71.896 c 0,-13.18 13.293,-23.906 29.627,-23.906 h 52.953 c 14.766,0 27.328,8.85 29.328,20.608 h 6.434 C 0.492,-16.035 9.289,-8.84 9.289,0 v 39.275 c 0,4.413 -2.135,8.518 -6.019,11.563" /></g></g></g></g></svg>
