<?xml version="1.0" encoding="utf-8"?>
<!-- Generator: Adobe Illustrator 19.0.0, SVG Export Plug-In . SVG Version: 6.00 Build 0)  -->
<svg version="1.1" id="Layer_1" xmlns="http://www.w3.org/2000/svg" xmlns:xlink="http://www.w3.org/1999/xlink" x="0px" y="0px"
	 viewBox="0 0 141.7 141.7" style="enable-background:new 0 0 141.7 141.7;" xml:space="preserve">
<style type="text/css">
	.st0{fill:#FBAA19;}
</style>
<g>
	<path class="st0" d="M95.2,54.1H57.5v10.1c0,6.7-6.6,12.1-14.6,12.1c-8.1,0-14.6-5.4-14.6-12.1V54.1H24c-3.6,0-7.1-0.6-10.4-1.9
		l-0.8-0.3v64.8c0,8.5,9.1,15.3,20.3,15.3h53c11.2,0,20.3-6.9,20.3-15.3V51.9l-0.8,0.3C102.4,53.4,98.9,54.1,95.2,54.1z M45.3,113.1
		c0,2.4-2.1,4.3-4.6,4.3c-2.6,0-4.6-1.9-4.6-4.3V82.3c0-2.4,2.1-4.3,4.6-4.3c2.6,0,4.6,1.9,4.6,4.3V113.1z M83.1,113.1
		c0,2.4-2.1,4.3-4.6,4.3c-2.6,0-4.6-1.9-4.6-4.3V82.3c0-2.4,2.1-4.3,4.6-4.3c2.6,0,4.6,1.9,4.6,4.3V113.1z"/>
	<path class="st0" d="M132.2,103.9V64.6c0-4.1-4.7-7.5-10.3-7.5h-6.1v54.2h6.1C127.4,111.4,132.2,108,132.2,103.9z"/>
	<path class="st0" d="M24,45.5h8.9c1.1,0,2.2,0.4,3,1h0.4v0.3c0.8,0.8,1.3,1.8,1.3,2.9v14.4c0,1.9,2.4,3.6,5.3,3.6
		c2.9,0,5.3-1.6,5.3-3.6V49.8c0-1.1,0.5-2.2,1.3-2.9v-0.3h0.4c0.8-0.6,1.8-1,3-1h42.4c8.1,0,14.7-4.9,14.7-10.9
		c0-6-6.6-10.9-14.7-10.9c-0.3,0-0.7,0-1.1,0l-1.5,0.1l-1.7-1c-1.2-0.9-1.8-2.1-1.8-3.4c0-6-6.6-11-14.7-11c-5.1,0-9.8,2-12.5,5.2
		c-0.9,1.1-2.3,1.7-3.7,1.7h-0.9l-1.1-0.4c-2.1-0.8-4.4-1.3-6.9-1.3c-6.6,0-12.4,3.3-14.2,8.1l-0.6,1.6l-2,1
		c-0.7,0.3-1.3,0.3-1.8,0.3l-1.4-0.2c-1.7-0.5-3.6-0.8-5.4-0.8c-8.1,0-14.7,4.9-14.7,10.9C9.3,40.6,15.9,45.5,24,45.5z"/>
</g>
<g>
	<path d="M40.8,78c-2.6,0-4.6,1.9-4.6,4.3V113c0,2.4,2.1,4.3,4.6,4.3c2.6,0,4.6-1.9,4.6-4.3V82.2C45.5,79.9,43.4,78,40.8,78z"/>
	<path d="M78.6,78c-2.6,0-4.6,1.9-4.6,4.3V113c0,2.4,2.1,4.3,4.6,4.3c2.6,0,4.6-1.9,4.6-4.3V82.2C83.3,79.9,81.2,78,78.6,78z"/>
	<path d="M135.6,53c-3.7-2.9-8.5-4.5-13.6-4.5h-6.1v-3.8c2.3-3.1,3.5-6.6,3.5-10.1c0-9.8-9-18.1-21-19.3l-0.3,0
		C95.6,6.3,85.8-0.1,74.6-0.1c-6.5,0-12.8,2.2-17.3,6L57,6.1L56.5,6c-10.6-2.6-22.7,1.5-28,9.3l-0.1,0.1l-0.5-0.1
		c-1.2-0.2-2.5-0.2-3.8-0.2c-13.2,0-24,8.7-24,19.5c0,3.6,1.2,7.1,3.5,10.1v71.9c0,13.2,13.3,23.9,29.6,23.9h53
		c14.8,0,27.3-8.8,29.3-20.6h6.4c10.8,0,19.6-7.2,19.6-16V64.6C141.6,60.1,139.5,56,135.6,53z M106.6,116.6
		c0,8.5-9.1,15.3-20.3,15.3h-53c-11.2,0-20.3-6.9-20.3-15.3V51.8l0.8,0.3C17,53.4,20.5,54,24.1,54h4.3v10.1
		c0,6.7,6.6,12.1,14.6,12.1c8.1,0,14.6-5.4,14.6-12.1V54h37.8c3.6,0,7.1-0.7,10.4-1.9l0.8-0.3V116.6z M95.4,45.4H53
		c-1.1,0-2.2,0.4-3,1h-0.4v0.3c-0.8,0.8-1.3,1.8-1.3,2.9v14.4c0,1.9-2.4,3.6-5.3,3.6c-2.9,0-5.3-1.6-5.3-3.6V49.7
		c0-1.1-0.5-2.2-1.3-2.9v-0.3H36c-0.8-0.6-1.8-1-3-1h-8.9c-8.1,0-14.7-4.9-14.7-10.9c0-6,6.6-10.9,14.7-10.9c1.9,0,3.7,0.3,5.4,0.8
		l1.4,0.2c0.6,0,1.1-0.1,1.8-0.3l2-1l0.6-1.6c1.7-4.7,7.6-8.1,14.2-8.1c2.5,0,4.8,0.4,6.9,1.3l1.1,0.4h0.9c1.4,0,2.8-0.6,3.7-1.7
		c2.7-3.3,7.4-5.2,12.5-5.2c8.1,0,14.6,4.9,14.7,11c0,1.3,0.6,2.5,1.8,3.4l1.7,1l1.5-0.1c0.4,0,0.8,0,1.1,0
		c8.1,0,14.7,4.9,14.7,10.9C110,40.6,103.5,45.4,95.4,45.4z M132.3,103.8c0,4.1-4.7,7.5-10.3,7.5h-6.1V57.1h6.1
		c5.6,0,10.3,3.4,10.3,7.5V103.8z"/>
</g>
</svg>
