<svg height="189" width="189" viewBox="0 0 189 189" xmlns="http://www.w3.org/2000/svg">
  <clipPath id="a">
    <path d="M0 141.7h141.7V0H0z"/>
  </clipPath>
  <g clip-path="url(#a)" transform="matrix(1.33333 0 0 -1.33333 0 189)">
    <path d="M70.9 130.5c-32.7 0-59.3-26.3-59.3-58.6s26.6-58.7 59.3-58.7c32.7 0 59.2 26.3 59.2 58.7s-26.5 58.6-59.2 58.6" fill="#f8a10e"/>
    <g fill="#231f20">
      <path d="M39.2 40.3c1-1 2-1.4 3.2-1.4 1.2 0 2.5.4 3.3 1.4l25.4 25 25.4-25c1-1 2-1.4 3.3-1.4 1.1 0 2.4.4 3.2 1.4a4.7 4.7 0 010 6.5l-25.3 25L103 97a4.7 4.7 0 010 6.5 4.7 4.7 0 01-6.6 0L71.1 78.4l-25.4 25a4.8 4.8 0 01-6.6 0 4.7 4.7 0 010-6.5l25.4-25-25.3-25.2a4.4 4.4 0 010-6.4"/>
      <path d="M71.1 67.5l26.4-26.2c.7-.6 1.5-1 2.3-1a3 3 0 012.1 1 3.2 3.2 0 010 4.5l-26.3 26L102 98a3.2 3.2 0 010 4.5c-1.2 1.2-3.3 1.1-4.6 0L71.1 76.2l-26.4 26a3.4 3.4 0 01-4.6 0 3.2 3.2 0 010-4.4l26.5-26-26.4-26.2a3 3 0 010-4.4c.7-.6 1.4-1 2.2-1a3 3 0 012.2 1zm28.7-30.1c-1.6 0-3.2.6-4.4 1.8l-24.3 24-24.3-24a6 6 0 00-8.7 0 5.9 5.9 0 000 8.6l24.3 24-24.4 24a6.2 6.2 0 000 8.7 6.3 6.3 0 004.4 1.8c1.7 0 3.2-.7 4.4-1.8l24.3-24 24.3 24a6.4 6.4 0 004.4 1.9 6 6 0 004.3-1.8 6.2 6.2 0 000-8.7l-24.2-24 24.2-24a6.2 6.2 0 00-4.3-10.5"/>
      <path d="M71.1 130.5c32.7 0 59.3-26.3 59.3-58.6S103.8 13.2 71 13.2c-32.7 0-59.3 26.3-59.3 58.7s26.6 58.6 59.3 58.6M71.1 4a68.3 68.3 0 0168.6 67.9 68.3 68.3 0 01-68.6 67.8A68.3 68.3 0 012.5 72 68.3 68.3 0 0171 3.9"/>
      <path d="M71.1 129c-31.8 0-57.8-25.6-57.8-57.1s26-57.2 57.8-57.2c31.9 0 57.8 25.6 57.8 57.2s-26 57-57.8 57m0-117.2c-33.5 0-60.8 27-60.8 60.2s27.3 60 60.8 60 60.8-26.9 60.8-60S104.6 11.7 71 11.7m0 126.5C34.1 138.2 4 108.5 4 72A66.8 66.8 0 0171 5.5c37 0 67.1 29.7 67.1 66.4a66.8 66.8 0 01-67.1 66.3m0-135.7C32.4 2.5 1 33.5 1 71.9s31.4 69.3 70.1 69.3 70.1-31 70.1-69.3S109.8 2.5 71.1 2.5"/>
    </g>
  </g>
</svg>
