<?xml version="1.0" encoding="UTF-8" standalone="no"?>
<svg
   xmlns:dc="http://purl.org/dc/elements/1.1/"
   xmlns:cc="http://creativecommons.org/ns#"
   xmlns:rdf="http://www.w3.org/1999/02/22-rdf-syntax-ns#"
   xmlns:svg="http://www.w3.org/2000/svg"
   xmlns="http://www.w3.org/2000/svg"
   viewBox="0 0 188.97333 188.97333"
   height="188.97333"
   width="188.97333"
   xml:space="preserve"
   id="svg2"
   version="1.1"><metadata
     id="metadata8"><rdf:RDF><cc:Work
         rdf:about=""><dc:format>image/svg+xml</dc:format><dc:type
           rdf:resource="http://purl.org/dc/dcmitype/StillImage" /></cc:Work></rdf:RDF></metadata><defs
     id="defs6"><clipPath
       id="clipPath18"
       clipPathUnits="userSpaceOnUse"><path
         id="path16"
         d="M 0,141.73 H 141.73 V 0 H 0 Z" /></clipPath></defs><g
     transform="matrix(1.3333333,0,0,-1.3333333,0,188.97333)"
     id="g10"><g
       id="g12"><g
         clip-path="url(#clipPath18)"
         id="g14"><g
           transform="translate(70.8652,130.5078)"
           id="g20"><path
             id="path22"
             style="fill:#f8a10e;fill-opacity:1;fill-rule:nonzero;stroke:none"
             d="m 0,0 c -32.709,0 -59.265,-26.273 -59.265,-58.634 0,-32.361 26.556,-58.634 59.265,-58.634 32.71,0 59.266,26.273 59.266,58.634 C 59.266,-26.273 32.71,0 0,0" /></g><g
           transform="translate(39.1738,40.2607)"
           id="g24"><path
             id="path26"
             style="fill:#231f20;fill-opacity:1;fill-rule:nonzero;stroke:none"
             d="m 0,0 c 0.934,-0.925 2.102,-1.388 3.271,-1.388 1.167,0 2.412,0.463 3.27,1.388 L 31.929,25.117 57.316,0 c 0.935,-0.925 2.103,-1.388 3.272,-1.388 1.168,0 2.414,0.463 3.27,1.388 1.792,1.771 1.792,4.7 0,6.549 L 38.549,31.59 63.857,56.708 c 1.793,1.771 1.793,4.7 0,6.548 -1.791,1.85 -4.749,1.773 -6.619,0 L 31.929,38.139 6.541,63.179 c -1.792,1.773 -4.751,1.773 -6.619,0 -1.792,-1.771 -1.792,-4.7 0,-6.549 L 25.309,31.59 0,6.472 C -1.87,4.7 -1.87,1.771 0,0" /></g><g
           transform="translate(71.1025,67.4883)"
           id="g28"><path
             id="path30"
             style="fill:#231f20;fill-opacity:1;fill-rule:nonzero;stroke:none"
             d="m 0,0 26.442,-26.161 c 0.622,-0.615 1.41,-0.954 2.217,-0.954 0.833,0 1.645,0.339 2.17,0.907 1.252,1.238 1.241,3.229 0.024,4.485 L 4.489,4.361 30.872,30.545 c 1.208,1.193 1.198,3.184 -0.019,4.439 -1.154,1.191 -3.249,1.152 -4.511,-0.044 L 0.003,8.801 -26.441,34.883 c -1.18,1.167 -3.294,1.156 -4.533,-0.02 -1.183,-1.17 -1.173,-3.16 0.044,-4.416 L -4.487,4.366 -30.872,-21.82 c -0.628,-0.596 -0.96,-1.359 -0.959,-2.172 0,-0.815 0.331,-1.576 0.934,-2.147 0.645,-0.637 1.431,-0.976 2.239,-0.976 0.832,0 1.643,0.34 2.171,0.908 z m 28.659,-30.115 c -1.602,0 -3.139,0.646 -4.326,1.821 L 0,-4.221 -24.333,-28.294 c -1.04,-1.123 -2.673,-1.821 -4.325,-1.821 -1.604,0 -3.14,0.647 -4.326,1.822 -1.183,1.118 -1.847,2.654 -1.847,4.3 -10e-4,1.646 0.664,3.183 1.871,4.326 L -8.752,4.359 -33.06,28.335 c -2.382,2.456 -2.372,6.341 -10e-4,8.683 1.205,1.144 2.757,1.763 4.393,1.763 1.646,0 3.186,-0.626 4.335,-1.763 l 24.33,-23.997 24.256,24.072 c 1.228,1.165 2.795,1.794 4.435,1.794 1.651,0 3.185,-0.645 4.319,-1.815 2.358,-2.431 2.347,-6.316 -0.025,-8.659 L 8.751,4.364 32.984,-19.612 c 2.381,-2.455 2.37,-6.34 0,-8.683 -1.038,-1.122 -2.671,-1.82 -4.325,-1.82" /></g><g
           transform="translate(71.1025,130.4844)"
           id="g32"><path
             id="path34"
             style="fill:#231f20;fill-opacity:1;fill-rule:nonzero;stroke:none"
             d="m 0,0 c 32.71,0 59.266,-26.273 59.266,-58.634 0,-32.361 -26.556,-58.634 -59.266,-58.634 -32.709,0 -59.265,26.273 -59.265,58.634 C -59.265,-26.273 -32.709,0 0,0 m 0,-126.514 c 37.85,0 68.61,30.436 68.61,67.88 0,37.446 -30.76,67.88 -68.61,67.88 -37.848,0 -68.61,-30.436 -68.61,-67.88 0,-37.446 30.762,-67.88 68.61,-67.88" /></g><g
           transform="translate(71.1025,128.9844)"
           id="g36"><path
             id="path38"
             style="fill:#231f20;fill-opacity:1;fill-rule:nonzero;stroke:none"
             d="m 0,0 c -31.852,0 -57.765,-25.63 -57.765,-57.134 0,-31.504 25.913,-57.134 57.765,-57.134 31.853,0 57.766,25.63 57.766,57.134 C 57.766,-25.63 31.853,0 0,0 m 0,-117.268 c -33.506,0 -60.765,26.976 -60.765,60.134 C -60.765,-23.976 -33.506,3 0,3 33.506,3 60.766,-23.976 60.766,-57.134 60.766,-90.292 33.506,-117.268 0,-117.268 M 0,9.246 c -37.004,0 -67.11,-29.778 -67.11,-66.38 0,-36.601 30.106,-66.38 67.11,-66.38 37.005,0 67.11,29.779 67.11,66.38 0,36.602 -30.105,66.38 -67.11,66.38 m 0,-135.76 c -38.659,0 -70.11,31.124 -70.11,69.38 0,38.256 31.451,69.38 70.11,69.38 38.659,0 70.11,-31.124 70.11,-69.38 0,-38.256 -31.451,-69.38 -70.11,-69.38" /></g></g></g></g></svg>