<svg height="189" width="189" viewBox="0 0 189 189" xmlns="http://www.w3.org/2000/svg">
  <clipPath id="a">
    <path d="M0 141.7h141.7V0H0z"/>
  </clipPath>
  <g clip-path="url(#a)" transform="matrix(1.33333 0 0 -1.33333 0 189)">
    <path d="M125.7 92.8l-1-.1a4 4 0 00-3.8 3c-.5 2-1 3.7-1.7 5.4a4 4 0 002.2 5.2c2 .9 4.4-.1 5.2-2.2a45 45 0 002.1-6.4 4 4 0 00-3-5m4.5-5.9a79.2 79.2 0 00-10-39.6 4 4 0 10-7 3.9c6 11 9.3 24 8.9 35.4a4 4 0 001 3 4 4 0 007-2.6m-24.6-10.6a4 4 0 00-7 2.8c0 1 .5 2.1 1.2 2.9a4.2 4.2 0 005.7 0 4 4 0 000-5.7M89.6 104a4 4 0 00-5.7 5.7 4.2 4.2 0 005.7 0 4 4 0 000-5.7m-8-67.6a4 4 0 00-2.8-1.2v1.4-1.4a4 4 0 00-2.9 6.9 4.2 4.2 0 005.7 0 4 4 0 000-5.7M55.6 90.2a4 4 0 00-5.7 5.7 4.2 4.2 0 005.7 0 4 4 0 000-5.7m-4-51.7a4 4 0 00-6.9 2.8c0 1 .5 2.1 1.2 2.9a4.2 4.2 0 005.8 0 4 4 0 000-5.7M28.3 91.3a72.8 72.8 0 01-9-32.5 4 4 0 00-4-4h-.1a4 4 0 00-4 4.2c.3 11.9 4 25 10 36.1 1 2 3.6 2.7 5.5 1.6a4 4 0 001.6-5.4m-9.3-53a4 4 0 00-5.2 2.5c-.7 2.1-1.3 4.5-1.7 6.9a4 4 0 008 1.4c.3-2 .8-4 1.4-5.8a4 4 0 00-2.5-5m106.7 79.6a7.2 7.2 0 01-8.1 8.1c-2.6-.3-5.4.3-8 1.6a60.3 60.3 0 01-41.3 4.4c-15-3.2-29-10.5-38.5-20a78.5 78.5 0 01-20-38.5 59.4 59.4 0 014.3-41.3c1.4-2.4 2-5.2 1.7-7.8a7.1 7.1 0 018-8.1h1.6c2.2 0 4.3-.5 6.4-1.6C42.5 8.6 57.5 7 73 10.3a78.7 78.7 0 0138.6 20 78.5 78.5 0 0120 38.5 59.4 59.4 0 01-4.4 41.3c-1.4 2.4-2 5.2-1.6 7.8" fill="#fbac31"/>
    <path d="M18 18a7.1 7.1 0 00-2 6.1c.3 2.6-.3 5.4-1.7 7.9a59.3 59.3 0 00-4.4 41.3c3.2 15 10.5 29 20 38.5a78.7 78.7 0 0038.6 20 60.3 60.3 0 0041.3-4.4c2.5-1.4 5.3-2 8-1.6a7.2 7.2 0 008-8.1c-.3-2.6.2-5.4 1.6-7.9a59.4 59.4 0 004.4-41.3c-3.2-15-10.5-29-20-38.5a78.7 78.7 0 00-38.5-20 60.3 60.3 0 00-41.4 4.4A13.1 13.1 0 0124 16c-2.2-.3-4.5.4-6 2m116.5 95.8c-.6.9-.8 2-.7 2.8a15.2 15.2 0 01-17.2 17.2c-.9-.2-1.9 0-2.8.6a68.3 68.3 0 01-47 5.2 87 87 0 01-42.6-22.1A86.8 86.8 0 012 74.9 67.4 67.4 0 017.3 28c.5-1 .7-2 .6-2.8-.6-4.8 1-9.5 4.3-12.9 3.4-3.3 8-5 13-4.3.8.1 1.8-.1 2.7-.6C36.2 2.7 46.4.3 57.4.3a87 87 0 0160.1 24 86.8 86.8 0 0122.2 42.5 67.3 67.3 0 01-5.2 47"/>
    <path d="M20.2 48.8a4 4 0 01-8-1.4c.5-2.4 1-4.7 1.8-7A4 4 0 0119 38a4 4 0 012.5 5.2c-.6 1.8-1 3.7-1.4 5.7M121 95.5a4 4 0 014.9-3 4 4 0 013 4.9 45 45 0 01-2.1 6.5c-.9 2-3.3 3-5.3 2.2a4 4 0 01-2.2-5.3c.7-1.7 1.3-3.5 1.7-5.3M15.4 56zm11.4 40.5c-1.8 1-4.4.3-5.4-1.6a81.1 81.1 0 01-10-36.2 4 4 0 014-4.1 4 4 0 014 4 72.8 72.8 0 009 32.4 4 4 0 01-1.6 5.5M114.9 45.3c.6-.3 1.3-.5 2-.5a4 4 0 013.5 2.1 79.2 79.2 0 0110 39.7 4 4 0 01-4.3 3.9c-1 0-2-.5-2.8-1.3a4 4 0 01-1-3 71 71 0 00-9-35.4 4 4 0 011.6-5.5M86.8 102.7c1 0 2.1.4 2.9 1.1a4 4 0 010 5.7 4.2 4.2 0 01-5.8 0 4 4 0 012.8-6.9M102.7 74.8a4 4 0 014 4 4 4 0 01-1.1 2.9 4.2 4.2 0 01-5.7 0 4 4 0 012.8-6.9M53 88.7a4 4 0 012.8 7 4.2 4.2 0 01-5.7 0 4 4 0 010-5.8 4 4 0 012.8-1.2M78.8 35v1.4V35a4 4 0 014 4 4 4 0 01-1.1 2.9 4.2 4.2 0 01-5.7 0 4 4 0 012.8-6.9M49 38.4zm0-1.4a4 4 0 014 4 4 4 0 01-1.2 2.9 4.2 4.2 0 01-5.7 0 4 4 0 01-1.2-2.9 4 4 0 014-4"/>
  </g>
</svg>
