<?xml version="1.0" encoding="UTF-8" standalone="no"?>
<svg
   xmlns:dc="http://purl.org/dc/elements/1.1/"
   xmlns:cc="http://creativecommons.org/ns#"
   xmlns:rdf="http://www.w3.org/1999/02/22-rdf-syntax-ns#"
   xmlns:svg="http://www.w3.org/2000/svg"
   xmlns="http://www.w3.org/2000/svg"
   viewBox="0 0 188.97333 188.97333"
   height="188.97333"
   width="188.97333"
   xml:space="preserve"
   id="svg2"
   version="1.1"><metadata
     id="metadata8"><rdf:RDF><cc:Work
         rdf:about=""><dc:format>image/svg+xml</dc:format><dc:type
           rdf:resource="http://purl.org/dc/dcmitype/StillImage" /></cc:Work></rdf:RDF></metadata><defs
     id="defs6"><clipPath
       id="clipPath18"
       clipPathUnits="userSpaceOnUse"><path
         id="path16"
         d="M 0,141.73 H 141.73 V 0 H 0 Z" /></clipPath></defs><g
     transform="matrix(1.3333333,0,0,-1.3333333,0,188.97333)"
     id="g10"><g
       id="g12"><g
         clip-path="url(#clipPath18)"
         id="g14"><g
           transform="translate(125.748,92.7905)"
           id="g20"><path
             id="path22"
             style="fill:#fbac31;fill-opacity:1;fill-rule:nonzero;stroke:none"
             d="m 0,0 c -0.316,-0.073 -0.639,-0.111 -0.955,-0.111 -1.075,0 -2.085,0.419 -2.855,1.185 -0.518,0.509 -0.889,1.172 -1.064,1.902 -0.447,1.848 -1.026,3.63 -1.72,5.298 -0.845,2.066 0.148,4.426 2.2,5.271 C -2.38,14.379 0.055,13.36 0.879,11.351 1.741,9.245 2.44,7.064 2.97,4.868 3.494,2.712 2.162,0.526 0,0 m 4.416,-5.955 c 0.459,-12.893 -3.166,-27.351 -9.935,-39.659 -0.709,-1.297 -2.062,-2.098 -3.547,-2.098 -0.671,0 -1.343,0.174 -1.938,0.496 -0.344,0.19 -0.644,0.42 -0.912,0.686 -1.261,1.26 -1.539,3.227 -0.688,4.791 6.092,11.082 9.357,24.016 8.953,35.495 -0.044,1.074 0.338,2.102 1.081,2.892 0.731,0.79 1.73,1.243 2.81,1.281 h 0.006 c 2.325,0 4.094,-1.706 4.17,-3.884 m -24.71,-10.571 c -0.759,-0.758 -1.796,-1.186 -2.855,-1.186 h -0.011 c -1.075,0 -2.112,0.431 -2.861,1.183 -0.752,0.763 -1.184,1.801 -1.178,2.851 -0.006,1.049 0.426,2.09 1.19,2.848 1.506,1.523 4.225,1.477 5.709,0 0.753,-0.755 1.179,-1.794 1.179,-2.854 0,-1.049 -0.426,-2.085 -1.173,-2.842 m -15.934,27.844 c -0.763,-0.755 -1.8,-1.179 -2.849,-1.179 h -0.032 c -1.06,0 -2.091,0.427 -2.839,1.174 -0.759,0.752 -1.19,1.799 -1.179,2.864 -0.011,1.036 0.415,2.08 1.179,2.84 1.517,1.526 4.219,1.475 5.71,0.008 0.759,-0.774 1.184,-1.815 1.178,-2.872 0.006,-1.036 -0.419,-2.077 -1.168,-2.835 m -7.985,-67.637 c -0.743,-0.741 -1.78,-1.178 -2.839,-1.178 l -0.03,1.396 v -1.396 c -1.053,0 -2.088,0.437 -2.838,1.189 -0.753,0.741 -1.187,1.788 -1.182,2.846 0,1.062 0.434,2.103 1.187,2.85 1.518,1.504 4.212,1.493 5.707,-0.006 0.754,-0.747 1.19,-1.788 1.18,-2.856 0.01,-1.057 -0.426,-2.093 -1.185,-2.845 M -70.1,-2.608 c -0.745,-0.749 -1.782,-1.18 -2.841,-1.18 h -0.03 c -1.067,0 -2.102,0.434 -2.847,1.185 -0.742,0.734 -1.176,1.775 -1.176,2.843 0,1.06 0.429,2.098 1.179,2.851 1.534,1.526 4.214,1.488 5.71,0.008 0.755,-0.763 1.184,-1.802 1.184,-2.859 0,-1.063 -0.429,-2.101 -1.179,-2.848 m -3.987,-51.716 c -0.74,-0.753 -1.783,-1.183 -2.855,-1.183 h -0.011 c -1.056,0 -2.093,0.43 -2.847,1.183 -0.753,0.758 -1.184,1.793 -1.184,2.845 0,1.058 0.428,2.094 1.179,2.851 1.547,1.532 4.236,1.483 5.718,0.005 0.755,-0.757 1.187,-1.798 1.181,-2.856 0.006,-1.058 -0.426,-2.099 -1.181,-2.845 M -97.45,-1.526 c -5.493,-9.991 -8.766,-21.824 -8.976,-32.467 -0.041,-2.18 -1.85,-3.957 -4.036,-3.957 h -0.085 c -1.051,0.027 -2.036,0.447 -2.773,1.183 -0.77,0.763 -1.201,1.831 -1.182,2.927 0.238,11.912 3.868,25.103 9.964,36.192 1.03,1.886 3.6,2.633 5.486,1.592 1.944,-1.066 2.661,-3.521 1.602,-5.47 m -9.336,-53.032 c -0.418,-0.142 -0.855,-0.213 -1.294,-0.213 -1.065,0 -2.109,0.437 -2.863,1.188 -0.426,0.415 -0.764,0.959 -0.966,1.553 -0.739,2.187 -1.335,4.52 -1.763,6.94 -0.388,2.191 1.084,4.284 3.275,4.676 2.279,0.387 4.296,-1.112 4.678,-3.27 0.36,-2.028 0.851,-3.969 1.46,-5.762 0.71,-2.109 -0.426,-4.398 -2.527,-5.112 M -0.082,25.139 c 0.306,2.257 -0.431,4.469 -2.03,6.069 -1.594,1.586 -3.799,2.338 -6.07,2.028 -2.609,-0.357 -5.404,0.226 -7.881,1.618 -10.787,6.067 -25.759,7.64 -41.354,4.339 -15.033,-3.188 -29.094,-10.448 -38.578,-19.922 -9.486,-9.47 -16.76,-23.511 -19.95,-38.522 -3.349,-15.734 -1.807,-30.396 4.344,-41.297 1.398,-2.487 1.971,-5.277 1.616,-7.871 -0.303,-2.257 0.437,-4.47 2.036,-6.062 1.594,-1.592 3.807,-2.333 6.078,-2.038 0.499,0.07 1.007,0.108 1.52,0.108 2.154,0 4.353,-0.599 6.354,-1.716 10.791,-6.073 25.772,-7.648 41.356,-4.344 15.037,3.188 29.099,10.454 38.58,19.928 9.487,9.467 16.757,23.508 19.951,38.519 3.34,15.739 1.801,30.404 -4.345,41.297 -1.398,2.48 -1.976,5.274 -1.627,7.866" /></g><g
           transform="translate(17.9458,18.041)"
           id="g24"><path
             id="path26"
             style="fill:#000000;fill-opacity:1;fill-rule:nonzero;stroke:none"
             d="m 0,0 c -1.6,1.592 -2.339,3.805 -2.035,6.063 0.354,2.593 -0.219,5.384 -1.616,7.871 -6.152,10.9 -7.695,25.562 -4.345,41.296 3.19,15.011 10.464,29.052 19.95,38.522 9.484,9.474 23.546,16.734 38.578,19.923 15.594,3.3 30.567,1.728 41.354,-4.339 2.477,-1.393 5.272,-1.976 7.881,-1.619 2.272,0.311 4.477,-0.441 6.07,-2.028 1.6,-1.599 2.336,-3.812 2.03,-6.069 -0.348,-2.592 0.23,-5.385 1.627,-7.865 6.146,-10.893 7.685,-25.558 4.345,-41.298 C 110.646,35.447 103.375,21.406 93.888,11.938 84.408,2.465 70.345,-4.801 55.308,-7.99 39.725,-11.293 24.744,-9.719 13.952,-3.646 11.951,-2.529 9.752,-1.93 7.599,-1.93 7.086,-1.93 6.578,-1.967 6.078,-2.037 3.808,-2.332 1.594,-1.592 0,0 m 116.525,95.709 c -0.535,0.952 -0.764,1.955 -0.654,2.818 0.654,4.775 -0.918,9.466 -4.325,12.861 -3.384,3.374 -8.072,4.985 -12.877,4.32 -0.873,-0.115 -1.865,0.12 -2.822,0.657 -12.488,7.026 -29.486,8.901 -46.991,5.197 C 32.33,118.057 16.799,110.001 6.242,99.457 -4.322,88.907 -12.393,73.397 -15.9,56.9 c -3.752,-17.654 -1.903,-34.322 5.211,-46.935 0.539,-0.949 0.771,-1.945 0.657,-2.807 -0.657,-4.775 0.917,-9.457 4.32,-12.859 3.376,-3.379 8.034,-4.998 12.885,-4.317 0.843,0.12 1.872,-0.13 2.816,-0.664 8.256,-4.638 18.458,-7.091 29.503,-7.091 5.672,0 11.559,0.636 17.492,1.89 16.527,3.51 32.057,11.567 42.619,22.119 10.557,10.541 18.625,26.049 22.135,42.549 3.756,17.652 1.904,34.317 -5.213,46.924" /></g><g
           transform="translate(20.1763,48.8379)"
           id="g28"><path
             id="path30"
             style="fill:#000000;fill-opacity:1;fill-rule:nonzero;stroke:none"
             d="m 0,0 c -0.383,2.158 -2.399,3.658 -4.678,3.271 -2.191,-0.392 -3.663,-2.486 -3.275,-4.677 0.428,-2.42 1.023,-4.752 1.763,-6.94 0.202,-0.593 0.54,-1.138 0.965,-1.552 0.754,-0.752 1.799,-1.188 2.864,-1.188 0.439,0 0.877,0.07 1.294,0.213 2.101,0.713 3.237,3.002 2.527,5.111 C 0.852,-3.969 0.359,-2.027 0,0" /></g><g
           transform="translate(121.0215,95.4985)"
           id="g32"><path
             id="path34"
             style="fill:#000000;fill-opacity:1;fill-rule:nonzero;stroke:none"
             d="m 0,0 c 0.174,-0.73 0.545,-1.393 1.064,-1.902 0.77,-0.766 1.78,-1.185 2.854,-1.185 0.316,0 0.639,0.038 0.955,0.111 2.162,0.526 3.494,2.712 2.971,4.868 C 7.314,4.088 6.615,6.269 5.752,8.375 4.928,10.384 2.494,11.403 0.48,10.569 -1.572,9.724 -2.566,7.364 -1.721,5.298 -1.027,3.63 -0.447,1.848 0,0" /></g><g
           transform="translate(15.4321,55.9727)"
           id="g36"><path
             id="path38"
             style="fill:#000000;fill-opacity:1;fill-rule:nonzero;stroke:none"
             d="M 0,0 V 0 -0.006 Z M 11.411,40.494 C 9.525,41.535 6.955,40.788 5.926,38.902 -0.172,27.813 -3.801,14.623 -4.039,2.709 -4.059,1.613 -3.627,0.545 -2.857,-0.217 -2.12,-0.953 -1.135,-1.373 -0.084,-1.4 H 0 c 2.187,0 3.996,1.777 4.037,3.957 0.21,10.642 3.483,22.476 8.977,32.467 1.058,1.949 0.34,4.404 -1.603,5.47" /></g><g
           transform="translate(114.8906,45.3066)"
           id="g40"><path
             id="path42"
             style="fill:#000000;fill-opacity:1;fill-rule:nonzero;stroke:none"
             d="m 0,0 c 0.596,-0.322 1.268,-0.496 1.938,-0.496 1.486,0 2.839,0.801 3.548,2.098 6.768,12.308 10.393,26.766 9.934,39.659 -0.076,2.178 -1.844,3.884 -4.17,3.884 H 11.244 C 10.164,45.106 9.166,44.654 8.434,43.864 7.691,43.074 7.309,42.046 7.354,40.972 7.758,29.493 4.492,16.559 -1.6,5.477 -2.451,3.912 -2.172,1.945 -0.912,0.686 -0.645,0.42 -0.344,0.189 0,0" /></g><g
           transform="translate(86.7852,102.6611)"
           id="g44"><path
             id="path46"
             style="fill:#000000;fill-opacity:1;fill-rule:nonzero;stroke:none"
             d="M 0,0 H 0.033 C 1.082,0 2.119,0.425 2.883,1.18 3.631,1.938 4.057,2.979 4.051,4.014 4.057,5.072 3.631,6.113 2.871,6.887 1.381,8.353 -1.32,8.405 -2.838,6.878 -3.602,6.118 -4.027,5.074 -4.018,4.039 -4.027,2.973 -3.598,1.927 -2.838,1.174 -2.09,0.428 -1.059,0 0,0" /></g><g
           transform="translate(102.7344,74.8105)"
           id="g48"><path
             id="path50"
             style="fill:#000000;fill-opacity:1;fill-rule:nonzero;stroke:none"
             d="m 0,0 h 0.012 c 1.058,0 2.095,0.428 2.855,1.186 0.746,0.757 1.172,1.793 1.172,2.842 0,1.06 -0.426,2.099 -1.178,2.854 -1.484,1.477 -4.203,1.523 -5.709,0 C -3.613,6.124 -4.045,5.083 -4.039,4.034 -4.045,2.984 -3.613,1.946 -2.859,1.183 -2.111,0.431 -1.074,0 0,0" /></g><g
           transform="translate(52.9243,88.7344)"
           id="g52"><path
             id="path54"
             style="fill:#000000;fill-opacity:1;fill-rule:nonzero;stroke:none"
             d="M 0,0 H 0.029 C 1.088,0 2.125,0.431 2.871,1.18 3.621,1.927 4.05,2.965 4.05,4.028 4.05,5.085 3.621,6.124 2.865,6.887 1.369,8.367 -1.311,8.405 -2.844,6.879 -3.595,6.126 -4.023,5.088 -4.023,4.028 -4.023,2.96 -3.59,1.919 -2.848,1.186 -2.102,0.434 -1.067,0 0,0" /></g><g
           transform="translate(78.8125,35.0254)"
           id="g56"><path
             id="path58"
             style="fill:#000000;fill-opacity:1;fill-rule:nonzero;stroke:none"
             d="M 0,0 V 1.396 1.398 1.396 L 0.031,0 C 1.09,0 2.127,0.438 2.869,1.178 3.629,1.93 4.064,2.967 4.055,4.023 4.064,5.092 3.629,6.133 2.875,6.879 1.379,8.379 -1.314,8.389 -2.832,6.885 -3.586,6.139 -4.02,5.098 -4.02,4.035 -4.025,2.977 -3.59,1.93 -2.838,1.189 -2.088,0.438 -1.053,0 0,0" /></g><g
           transform="translate(48.9419,38.4121)"
           id="g60"><path
             id="path62"
             style="fill:#000000;fill-opacity:1;fill-rule:nonzero;stroke:none"
             d="m 0,0 v 0 -0.002 z m 0,-1.396 h 0.011 c 1.073,0 2.115,0.429 2.854,1.183 C 3.621,0.533 4.053,1.574 4.047,2.631 4.053,3.689 3.621,4.73 2.865,5.488 1.384,6.965 -1.305,7.014 -2.852,5.482 -3.603,4.725 -4.031,3.689 -4.031,2.631 -4.031,1.58 -3.6,0.545 -2.847,-0.213 -2.094,-0.967 -1.057,-1.396 0,-1.396" /></g></g></g></g></svg>
