<?xml version="1.0" encoding="utf-8"?>
<!-- Generator: Adobe Illustrator 19.0.0, SVG Export Plug-In . SVG Version: 6.00 Build 0)  -->
<svg version="1.1" id="Layer_1" xmlns="http://www.w3.org/2000/svg" xmlns:xlink="http://www.w3.org/1999/xlink" x="0px" y="0px"
	 viewBox="0 0 141.7 141.7" style="enable-background:new 0 0 141.7 141.7;" xml:space="preserve">
<style type="text/css">
	.st0{fill:#FBAA19;}
</style>
<g>
	<path class="st0" d="M8.3,120.3c0,7.1,6.5,12.9,14.5,12.9h96.1c7.9,0,14.4-5.8,14.4-12.9c0-4.8-3-9.1-7.5-11.4l-5.9,9.4v-14.5
		l4.1,0l-3.5-2.2c1.2-2,1.8-4.1,1.8-6.3c0-7.1-6.4-12.8-14.2-12.9l-6.3-0.1l2.6-5.9c1.3-2.9,1.3-5.6,1.3-5.6
		c0-16.6-9.7-22.2-17.6-24c0,1.2-0.1,2.4-0.5,3.6c-1.5,5-5.6,7.5-12.3,7.5l-2.3,0h-22c-7.9,0-14.3,5.8-14.3,12.9
		c0,1.9,0.4,3.8,1.3,5.4l3.2,6.1h-7.4c-8,0-14.5,5.8-14.5,12.9c0,2.2,0.6,4.4,1.9,6.3l-3.5,2.2v0.1l1,4
		C12.5,109.5,8.3,114.6,8.3,120.3z"/>
</g>
<g>
	<path d="M129.7,101.6c0.7-2,1-4.1,1-6.2c0-9.9-7.3-18.3-17.1-20.6c0.4-2.1,0.4-3.6,0.4-3.8c0-27.8-22.1-32.2-28.9-32.9l-0.6,0
		c-2.1,0-4,1.1-5,3c-1,1.8-0.9,3.9,0.1,5.6c0.2,0.4,0.4,0.8,0.1,1.6c-0.2,0.6-0.5,1.6-4.4,1.6l-24.3,0c-12.5,0-22.6,9.5-22.6,21.3
		c0,1.2,0.1,2.4,0.3,3.6c-10.1,2.1-17.8,10.6-17.8,20.8c0,2.1,0.3,4.2,1,6.2c-7.2,3.7-11.9,10.8-11.9,18.8
		c0,11.7,10.2,21.3,22.7,21.3H119c12.5,0,22.6-9.5,22.6-21.3C141.6,112.4,136.9,105.3,129.7,101.6z M119,133.3H22.9
		c-8,0-14.5-5.8-14.5-12.9c0-5.7,4.3-10.8,10.4-12.4l-1-4v-0.1l3.5-2.2c-1.2-1.9-1.9-4.1-1.9-6.3c0-7.1,6.5-12.9,14.5-12.9h7.4
		L38,76.3c-0.8-1.6-1.3-3.5-1.3-5.4c0-7.1,6.4-12.9,14.3-12.9h22l2.3,0c6.7,0,10.8-2.5,12.3-7.5c0.4-1.2,0.5-2.4,0.5-3.6
		c7.8,1.8,17.6,7.4,17.6,24c0,0-0.1,2.7-1.3,5.6l-2.6,5.9l6.3,0.1c7.9,0.1,14.2,5.9,14.2,12.9c0,2.2-0.6,4.4-1.8,6.3l3.5,2.2l-4.1,0
		v14.5l5.9-9.4c4.5,2.2,7.5,6.6,7.5,11.4C133.3,127.5,126.9,133.3,119,133.3z"/>
	<path d="M40.1,46.3c2.6,0,4.7-2,4.7-4.5V20.1c0-2.5-2.1-4.5-4.7-4.5c-2.6,0-4.7,2-4.7,4.5v21.6C35.4,44.2,37.5,46.3,40.1,46.3z"/>
	<path d="M63.1,40.2c2.6,0,4.7-2.1,4.7-4.7V4.8c0-2.6-2.1-4.7-4.7-4.7c-2.6,0-4.7,2.1-4.7,4.7v30.8C58.4,38.1,60.5,40.2,63.1,40.2z"
		/>
</g>
</svg>
