<?xml version="1.0" encoding="UTF-8" standalone="no"?>
<svg
   xmlns:dc="http://purl.org/dc/elements/1.1/"
   xmlns:cc="http://creativecommons.org/ns#"
   xmlns:rdf="http://www.w3.org/1999/02/22-rdf-syntax-ns#"
   xmlns:svg="http://www.w3.org/2000/svg"
   xmlns="http://www.w3.org/2000/svg"
   viewBox="0 0 188.97333 188.97333"
   height="188.97333"
   width="188.97333"
   xml:space="preserve"
   id="svg2"
   version="1.1"><metadata
     id="metadata8"><rdf:RDF><cc:Work
         rdf:about=""><dc:format>image/svg+xml</dc:format><dc:type
           rdf:resource="http://purl.org/dc/dcmitype/StillImage" /></cc:Work></rdf:RDF></metadata><defs
     id="defs6"><clipPath
       id="clipPath18"
       clipPathUnits="userSpaceOnUse"><path
         id="path16"
         d="M 0,141.73 H 141.73 V 0 H 0 Z" /></clipPath></defs><g
     transform="matrix(1.3333333,0,0,-1.3333333,0,188.97333)"
     id="g10"><g
       id="g12"><g
         clip-path="url(#clipPath18)"
         id="g14"><g
           transform="translate(8.2573,21.4482)"
           id="g20"><path
             id="path22"
             style="fill:#fbac31;fill-opacity:1;fill-rule:nonzero;stroke:none"
             d="m 0,0 c 0,-7.118 6.495,-12.912 14.473,-12.912 h 96.08 c 7.925,0 14.365,5.794 14.365,12.912 -0.005,4.773 -2.995,9.133 -7.538,11.353 L 111.521,1.91 v 14.528 l 4.118,0.009 -3.484,2.226 c 1.216,1.953 1.829,4.081 1.829,6.322 0,7.055 -6.393,12.848 -14.247,12.921 l -6.333,0.061 2.607,5.852 c 1.285,2.892 1.345,5.606 1.345,5.633 0,16.602 -9.742,22.169 -17.575,23.958 0.043,-1.178 -0.108,-2.386 -0.473,-3.6 -1.506,-4.986 -5.644,-7.511 -12.322,-7.511 l -2.301,0.035 H 42.681 c -7.903,0 -14.333,-5.769 -14.333,-12.858 0,-1.923 0.446,-3.78 1.296,-5.414 l 3.188,-6.141 h -7.436 c -7.978,0 -14.472,-5.795 -14.472,-12.924 0,-2.177 0.645,-4.353 1.871,-6.29 L 9.333,16.47 v -0.072 l 1.021,-3.999 C 4.258,10.786 0,5.69 0,0" /></g><g
           transform="translate(118.959,8.457)"
           id="g24"><path
             id="path26"
             style="fill:#373535;fill-opacity:1;fill-rule:nonzero;stroke:none"
             d="m 0,0 h -96.08 c -7.979,0 -14.473,5.794 -14.473,12.912 0,5.691 4.258,10.786 10.354,12.4 l -1.022,3.999 v 0.071 l 3.463,2.247 c -1.226,1.937 -1.871,4.113 -1.871,6.29 0,7.129 6.494,12.924 14.473,12.924 h 7.435 l -3.189,6.141 c -0.85,1.634 -1.295,3.492 -1.295,5.414 0,7.089 6.43,12.858 14.332,12.858 h 22.005 l 2.301,-0.035 c 6.677,0 10.816,2.525 12.322,7.511 0.365,1.214 0.516,2.422 0.473,3.601 7.833,-1.79 17.575,-7.357 17.575,-23.959 0,-0.027 -0.06,-2.741 -1.345,-5.633 l -2.607,-5.852 6.333,-0.061 C -2.962,50.755 3.431,44.962 3.431,37.907 3.431,35.666 2.817,33.538 1.602,31.585 L 5.086,29.359 0.968,29.35 V 14.822 l 5.859,9.443 C 11.37,22.045 14.359,17.686 14.365,12.912 14.365,5.794 7.925,0 0,0 m 10.704,31.673 c 0.65,2.007 0.984,4.113 0.984,6.234 0,9.891 -7.274,18.279 -17.053,20.638 0.408,2.083 0.425,3.567 0.425,3.829 0,27.829 -22.101,32.237 -28.874,32.924 l -0.604,0.03 c -2.096,0 -4.016,-1.135 -5.016,-2.962 -0.957,-1.759 -0.897,-3.911 0.146,-5.6 0.216,-0.354 0.382,-0.79 0.141,-1.587 -0.173,-0.589 -0.474,-1.579 -4.42,-1.579 l -24.306,0.035 c -12.455,0 -22.59,-9.527 -22.59,-21.277 0,-1.227 0.113,-2.45 0.328,-3.65 -10.144,-2.133 -17.752,-10.644 -17.752,-20.789 0,-2.122 0.344,-4.228 1.012,-6.246 -7.205,-3.661 -11.936,-10.839 -11.936,-18.761 0,-11.744 10.194,-21.29 22.731,-21.29 H 0 c 12.473,0 22.623,9.546 22.623,21.297 -0.011,7.926 -4.731,15.104 -11.919,18.754" /></g><g
           transform="translate(40.1133,95.4717)"
           id="g28"><path
             id="path30"
             style="fill:#373535;fill-opacity:1;fill-rule:nonzero;stroke:none"
             d="m 0,0 c 2.57,0 4.667,2.04 4.667,4.547 v 21.626 c 0,2.548 -2.054,4.541 -4.667,4.541 -2.623,0 -4.677,-1.993 -4.677,-4.541 V 4.547 C -4.677,2.04 -2.58,0 0,0" /></g><g
           transform="translate(63.0801,101.5024)"
           id="g32"><path
             id="path34"
             style="fill:#373535;fill-opacity:1;fill-rule:nonzero;stroke:none"
             d="m 0,0 c 2.57,0 4.667,2.105 4.667,4.694 v 30.769 c 0,2.583 -2.097,4.686 -4.667,4.686 -2.58,0 -4.677,-2.103 -4.677,-4.686 V 4.694 C -4.677,2.105 -2.58,0 0,0" /></g></g></g></g></svg>