<svg height="189" width="189" viewBox="0 0 189 189" xmlns="http://www.w3.org/2000/svg">
  <clipPath id="a">
    <path d="M0 142h142V0H0z"/>
  </clipPath>
  <g clip-path="url(#a)" transform="matrix(1.33333 0 0 -1.33333 0 189)">
    <path d="M70 18c3 0 5 1 5 4v53c0 3-2 5-5 5-2 0-5-2-5-5V22c0-3 3-4 5-4m-24 0c3 0 5 1 5 4v53c0 3-2 5-5 5s-5-2-5-5V22c0-3 2-4 5-4m72 88H22c-3 0-5 2-5 5s2 4 5 4h96c3 0 5-2 5-4s-2-5-5-5m-4-88c0-5-5-9-10-9H36c-5 0-9 4-9 9v80h87zM56 129c0 2 2 4 5 4h19c2 0 5-2 5-4v-5H56zm67-5H94v9c0 5-4 9-9 9H56c-6 0-10-4-10-9v-9H17c-5 0-10-4-10-9v-9c0-4 5-8 10-8V18C17 8 26 0 36 0h68c11 0 19 8 19 18v80c6 0 10 4 10 8v9c0 5-4 9-10 9M94 18c3 0 5 1 5 4v53c0 3-2 5-5 5-2 0-5-2-5-5V22c0-3 3-4 5-4" fill="#231f20" fill-rule="evenodd"/>
    <g fill="#f8a10e">
      <path d="M118 115H22c-3 0-5-2-5-4s2-5 5-5h96c3 0 5 2 5 5s-2 4-5 4M85 129c0 2-3 4-5 4H61c-3 0-5-2-5-4v-5h29zM41 75c0 3 2 5 5 5s5-2 5-5V22c0-3-2-4-5-4s-5 1-5 4zm24 0c0 3 3 5 5 5 3 0 5-2 5-5V22c0-3-2-4-5-4-2 0-5 1-5 4zm24 0c0 3 3 5 5 5 3 0 5-2 5-5V22c0-3-2-4-5-4-2 0-5 1-5 4zM27 18c0-5 4-9 9-9h68c5 0 10 4 10 9v80H27z"/>
    </g>
  </g>
</svg>
