<svg height="189" width="189" viewBox="0 0 189 189" xmlns="http://www.w3.org/2000/svg">
  <clipPath id="a">
    <path d="M0 142h142V0H0z"/>
  </clipPath>
  <g clip-path="url(#a)" transform="matrix(1.33333 0 0 -1.33333 0 189)">
    <g fill="#fbac31">
      <path d="M42 48c-4 0-7 3-7 7s3 8 7 8 7-4 7-8-3-7-7-7m13-1c1 2 4 2 6 0 2-3 6-4 10-4s7 1 10 4c1 2 4 2 6 0s2-4 0-6c-4-5-10-8-16-8s-12 3-16 8c-2 2-2 4 0 6m45 16c4 0 7-4 7-8s-3-7-7-7-7 3-7 7 3 8 7 8m-33 49c-3 0-5-2-5-6s3-8 7-8c6 0 10 5 10 12 0 8-8 20-22 20-21-7-35-28-35-52V45c0-14 4-23 13-29 8-4 20-7 36-7s27 3 35 7c9 6 14 15 14 29v33c0 28-19 51-44 54a31 31 0 0012-22c0-12-9-21-19-21-9 0-16 8-16 17s6 15 14 15c2 0 4-2 4-4 0-3-2-5-4-5M13 49v18c-3-2-4-5-4-9s1-8 4-9M128 67V49c3 1 5 5 5 9s-2 7-5 9"/>
    </g>
    <path d="M42 63c-4 0-7-4-7-8s3-7 7-7 7 3 7 7-3 8-7 8M100 63c-4 0-7-4-7-8s3-7 7-7 7 3 7 7-3 8-7 8"/>
    <path d="M13 67V49c-2 1-4 5-4 9s2 7 4 9M71 9c-16 0-28 3-36 7-9 6-13 15-13 29v33c0 24 14 45 35 52 14 0 22-12 22-20 0-7-4-12-10-12-4 0-7 4-7 8 0 3 2 6 5 6 2 0 4 2 4 5 0 2-2 4-4 4-8 0-14-6-14-15s7-17 16-17c10 0 19 9 19 21a30 30 0 01-11 22c24-3 43-26 43-54V45c0-14-5-23-14-29-8-4-19-7-35-7m62 49c0-4-2-8-5-9v18c3-2 5-5 5-9m-5 19v1c0 35-25 64-57 64s-58-29-58-64v-1C6 74 0 67 0 58s6-17 14-19c1-14 7-24 17-30 9-6 22-9 40-9 17 0 30 3 40 9s16 16 17 30c8 2 14 10 14 19s-6 16-14 19"/>
    <path d="M81 47c-3-3-6-4-10-4s-7 1-10 4c-2 2-5 2-6 0-2-2-2-4 0-6 4-5 10-8 16-8s12 3 16 8c2 2 2 4 0 6s-4 2-6 0"/>
  </g>
</svg>
