<?xml version="1.0" encoding="utf-8"?>
<!-- Generator: Adobe Illustrator 19.0.0, SVG Export Plug-In . SVG Version: 6.00 Build 0)  -->
<svg version="1.1" id="Layer_1" xmlns="http://www.w3.org/2000/svg" xmlns:xlink="http://www.w3.org/1999/xlink" x="0px" y="0px"
	 viewBox="0 0 141.7 141.7" style="enable-background:new 0 0 141.7 141.7;" xml:space="preserve">
<style type="text/css">
	.st0{fill:#FBAA19;}
</style>
<g>
	<path class="st0" d="M66.8,29.7c-2.7,0-4.9,2.5-4.9,5.6c0,4.5,3.2,8.2,7.2,8.2c5.5,0,10-5.1,10-11.3c0-8.5-7.8-20.3-22.5-20.6
		c-20.4,6.9-34.6,28.3-34.6,52.1v33.2c0,13.5,4.4,22.8,13.4,28.4c7.9,4.9,19.5,7.3,35.4,7.3c16,0,27.5-2.4,35.4-7.3
		c9-5.6,13.4-14.9,13.4-28.4V63.6c0-27.7-19-50.9-43.2-54.1c1,0.8,2,1.7,2.8,2.7c5.2,5.6,8.4,13,8.4,20c0,11.3-8.3,20.5-18.6,20.5
		c-8.7,0-15.7-7.8-15.7-17.3c0-8.1,6-14.7,13.4-14.7c2.4,0,4.3,2,4.3,4.6C71,27.7,69.1,29.7,66.8,29.7z M99.7,79.1
		c3.8,0,6.9,3.4,6.9,7.5c0,4.1-3.1,7.5-6.9,7.5c-3.8,0-6.9-3.4-6.9-7.5C92.8,82.5,95.9,79.1,99.7,79.1z M54.6,94.5
		c1.6-1.8,4.5-1.8,6.2,0c2.7,3,6.3,4.6,10,4.6c3.8,0,7.4-1.6,10-4.6c1.6-1.8,4.5-1.8,6.2,0c1.6,1.8,1.6,4.6,0,6.3
		c-4.3,4.8-10.1,7.4-16.2,7.4c-6.1,0-11.9-2.6-16.2-7.4C53,99,53,96.3,54.6,94.5z M41.8,94.1c-3.8,0-6.9-3.4-6.9-7.5
		c0-4.1,3.1-7.5,6.9-7.5c3.8,0,6.9,3.4,6.9,7.5C48.8,90.8,45.7,94.1,41.8,94.1z"/>
	<path class="st0" d="M13.4,93.1V74.9c-2.9,1.8-4.8,5.3-4.8,9.1C8.5,87.9,10.5,91.4,13.4,93.1z"/>
	<path class="st0" d="M128.2,74.9v18.2c2.9-1.8,4.8-5.2,4.8-9.1C133,80.2,131.1,76.7,128.2,74.9z"/>
</g>
<g>
	<path d="M41.9,79.2c-3.8,0-6.9,3.4-6.9,7.5c0,4.1,3.1,7.5,6.9,7.5c3.8,0,6.9-3.4,6.9-7.5C48.8,82.5,45.7,79.2,41.9,79.2z"/>
	<path d="M99.8,79.2c-3.8,0-6.9,3.4-6.9,7.5c0,4.1,3.1,7.5,6.9,7.5c3.8,0,6.9-3.4,6.9-7.5C106.7,82.5,103.6,79.2,99.8,79.2z"/>
	<path d="M128.3,65.2v-1.6C128.3,28.6,102.5,0,70.9,0C39.2,0,13.5,28.6,13.5,63.6v1.6C5.6,67.3,0.1,75.1,0.1,84.1
		c0,9.1,5.7,16.9,13.7,18.9c1.3,13.6,7.2,23.8,17.4,30.2c9.2,5.8,22.2,8.5,39.7,8.5c17.5,0,30.5-2.8,39.7-8.5
		c10.2-6.4,16.1-16.5,17.4-30.2c8-2,13.7-9.8,13.7-18.9C141.6,75.1,136.1,67.3,128.3,65.2z M133.1,84.1c0,3.8-1.9,7.3-4.8,9.1V75
		C131.2,76.7,133.1,80.2,133.1,84.1z M70.9,132.6c-16,0-27.5-2.4-35.4-7.3c-9-5.6-13.4-14.9-13.4-28.4V63.6
		c0-23.8,14.2-45.2,34.6-52.1c14.7,0.3,22.5,12.2,22.5,20.6c0,6.3-4.5,11.3-10,11.3c-4,0-7.2-3.7-7.2-8.2c0-3.1,2.2-5.6,4.9-5.6
		c2.4,0,4.3-2,4.3-4.6c0-2.5-1.9-4.6-4.3-4.6c-7.4,0-13.4,6.6-13.4,14.7c0,9.5,7.1,17.3,15.7,17.3c10.3,0,18.6-9.2,18.6-20.5
		c0-6.9-3.1-14.4-8.4-20c-0.9-0.9-1.8-1.8-2.8-2.7c24.2,3.2,43.2,26.3,43.2,54.1v33.2c0,13.5-4.4,22.8-13.4,28.4
		C98.4,130.2,86.8,132.6,70.9,132.6z M13.5,75v18.2c-2.9-1.8-4.8-5.2-4.8-9.1C8.6,80.2,10.5,76.7,13.5,75z"/>
	<path d="M80.9,94.5c-2.7,3-6.2,4.6-10,4.6c-3.8,0-7.4-1.6-10-4.6c-1.6-1.8-4.5-1.8-6.2,0c-1.6,1.8-1.6,4.5,0,6.3
		c4.3,4.8,10.1,7.4,16.2,7.4c6.1,0,11.9-2.6,16.2-7.4c1.6-1.8,1.6-4.6,0-6.3C85.4,92.7,82.5,92.7,80.9,94.5z"/>
</g>
</svg>
