<svg height="189" width="189" viewBox="0 0 189 189" xmlns="http://www.w3.org/2000/svg">
  <clipPath id="a">
    <path d="M0 141.7h141.7V0H0z"/>
  </clipPath>
  <g clip-path="url(#a)" transform="matrix(1.33333 0 0 -1.33333 0 189)">
    <g fill="#fbac31">
      <path d="M93.5 128c-.3-1.7-2-3.2-4.3-3.2h-33c-2.2 0-4 1.5-4.2 3.3-16.1-4.1-27.3-16.2-27.3-30v-52h96v52c0 13.8-11 25.9-27.2 30M117 14.8c0-3.5 3.6-6.3 8-6.3 4.5 0 8.1 2.8 8.1 6.3 0 2.2-1.5 4.2-3.8 5.3v-5.3c0-2-1.9-3.7-4.3-3.7s-4.3 1.6-4.3 3.7v5.3c-2.3-1.1-3.7-3.1-3.7-5.3M60.5 132.2H85v2.1H60.5z"/>
    </g>
    <path d="M120.8 98V46h-96v52c0 13.8 11 25.9 27.2 30 .3-1.9 2-3.3 4.3-3.3h33c2.2 0 4 1.4 4.2 3.3 16.1-4.1 27.3-16.2 27.3-30M125 8.5c-4.5 0-8.1 2.8-8.1 6.3 0 2.2 1.5 4.2 3.8 5.3v-5.3c0-2 1.9-3.7 4.3-3.7 2.3 0 4.3 1.7 4.3 3.7V20c2.3-1.1 3.7-3.1 3.7-5.3 0-3.5-3.6-6.3-8-6.3M60.5 134.2H85v-2H60.5zM129.4 28v70.2c0 17.8-14.7 33.1-35.8 37.5v2.3c0 2-2 3.7-4.3 3.7h-33c-2.4 0-4.3-1.6-4.3-3.7v-2.3c-21.2-4.4-35.8-19.7-35.8-37.5V85H4.3C2 85 0 83.3 0 81.3s2-3.7 4.3-3.7h11.9V46H4.3C2 46 0 44.3 0 42.2c0-2 2-3.6 4.3-3.6h11.9V15.4c-2-.6-3.3-2.2-3.3-4v-7c0-2.4 2.2-4.3 5-4.3H23c2.7 0 5 2 5 4.3v7c0 1.8-1.3 3.3-3.2 4v23.2h96V27.9c-7.3-1.5-12.4-7-12.4-13.2C108.4 7.2 116 1 125.1 1c9.1 0 16.6 6.2 16.6 13.7 0 6.2-5.1 11.7-12.3 13.2"/>
  </g>
</svg>
