<svg height="189" width="189" viewBox="0 0 189 189" xmlns="http://www.w3.org/2000/svg">
  <clipPath id="a">
    <path d="M0 141.7h141.7V0H0z"/>
  </clipPath>
  <g clip-path="url(#a)" transform="matrix(1.33333 0 0 -1.33333 0 189)">
    <path d="M8.3 21.4c0-7 6.5-12.9 14.4-12.9h96.1c8 0 14.4 5.8 14.4 13 0 4.7-3 9-7.6 11.3l-5.8-9.4v14.5h4.1l-3.5 2.2c1.2 2 1.8 4.1 1.8 6.3 0 7.1-6.4 12.9-14.2 13h-6.3l2.6 5.9c1.3 2.9 1.3 5.6 1.3 5.6 0 16.6-9.7 22.2-17.6 24a11 11 0 00-.4-3.6c-1.5-5-5.7-7.5-12.4-7.5H51c-7.9 0-14.3-5.8-14.3-12.9 0-1.9.5-3.7 1.3-5.4l3.2-6.1h-7.4c-8 0-14.5-5.8-14.5-13 0-2.1.6-4.3 1.9-6.2l-3.5-2.3 1-4c-6-1.7-10.3-6.8-10.3-12.5" fill="#fbac31"/>
    <path d="M119 8.5H22.9c-8 0-14.5 5.8-14.5 12.9 0 5.7 4.3 10.8 10.4 12.4l-1 4 3.4 2.3c-1.2 2-1.9 4.1-1.9 6.3 0 7.1 6.5 12.9 14.5 12.9h7.4L38 65.4c-.8 1.7-1.2 3.5-1.2 5.5 0 7 6.4 12.8 14.3 12.8h24.3c6.7 0 10.8 2.5 12.3 7.5.4 1.2.5 2.4.5 3.6 7.8-1.8 17.6-7.4 17.6-24 0 0-.1-2.7-1.4-5.6l-2.6-5.9h6.3c7.9 0 14.3-5.9 14.3-13 0-2.2-.6-4.3-1.8-6.3l3.4-2.2h-4V23.3l5.8 9.4c4.5-2.2 7.5-6.6 7.5-11.3 0-7.1-6.4-13-14.3-13m10.7 31.7c.6 2 1 4.1 1 6.3 0 9.9-7.3 18.2-17.1 20.6.4 2 .4 3.6.4 3.8 0 27.9-22 32.3-28.9 33h-.6c-2 0-4-1.2-5-3-1-1.7-.9-3.9.2-5.6.2-.3.4-.8.1-1.6-.2-.6-.5-1.5-4.4-1.5H51c-12.5 0-22.6-9.5-22.6-21.3l.3-3.6a21.7 21.7 0 01-17.7-20.8c0-2.1.3-4.3 1-6.3A21.3 21.3 0 010 21.4C.1 9.6 10.3 0 23 0h96c12.5 0 22.7 9.5 22.7 21.3 0 7.9-4.7 15-12 18.7M40.1 95.5c2.6 0 4.7 2 4.7 4.5v21.6c0 2.6-2 4.6-4.7 4.6-2.6 0-4.7-2-4.7-4.6V100c0-2.5 2.1-4.5 4.7-4.5M63 101.5c2.7 0 4.7 2.1 4.7 4.7V137c0 2.5-2 4.7-4.6 4.7a4.7 4.7 0 01-4.7-4.7v-30.8c0-2.6 2.1-4.7 4.7-4.7"/>
  </g>
</svg>
