<svg height="189" width="189" viewBox="0 0 189 189" xmlns="http://www.w3.org/2000/svg">
  <clipPath id="a">
    <path d="M0 141.7h141.7V0H0z"/>
  </clipPath>
  <g clip-path="url(#a)" transform="matrix(1.33333 0 0 -1.33333 0 189)">
    <path d="M67.6 82.9l-37.5 10V61.3c0-7 14-16.6 40.5-16.6 26.4 0 40.5 9.6 40.5 16.6v31.6l-37.5-10c-2-.5-4-.5-6 0" fill="#fbac31"/>
    <path d="M133.3 112.1c0 3-1.7 5.6-4 6.2l-58.6 15.5-1.3-.1-57.6-15.4c-2.2-.6-4-3.2-4-6.2s1.8-5.6 4-6.1l58.8-15.6 1.2.2 57.5 15.4c2.3.6 4 3.2 4 6.1" fill="#fbac31"/>
    <path d="M133 29.6l-2.1-2c-3.2-2.7-6.2-13.4-6.2-18.3 0-5 3.7-9 8.4-9 4.6 0 8.4 4 8.4 9 0 4.9-3 15.6-6.2 18.3zM70.8 90.2l-58.7 15.5c-2.3.6-4 3.2-4 6.2s1.7 5.6 4 6.2l57.6 15.4 1.2.1 58.7-15.5c2.3-.6 4-3.2 4-6.2s-1.7-5.6-4-6.2L72.1 90.3zm-40.4 2.5l37.5-10c2-.5 4-.5 6 0l37.5 10V61c0-7-14.1-16.6-40.5-16.6S30.4 54 30.4 61zm111 19.2c0 6.6-4 12.3-9.8 13.8l-57.8 15.4c-2 .5-4 .5-6 0l-57.7-15.4C4.3 124.2.3 118.5.3 112c0-6.6 4-12.3 9.8-13.8l12.4-3.3V61c0-15.4 18-24.5 48.4-24.5 16.3 0 29.3 2.7 37.7 7.7 8.8 5.3 10.6 12 10.6 16.8v33.7l12.4 3.3a14 14 0 019.9 13.8"/>
    <path d="M129.1 86.2V40.1a4 4 0 018 0v46.1a4 4 0 01-8 0"/>
  </g>
</svg>
