<svg height="189" width="189" viewBox="0 0 189 189" xmlns="http://www.w3.org/2000/svg">
  <clipPath id="a">
    <path d="M0 141.7h141.7V0H0z"/>
  </clipPath>
  <g clip-path="url(#a)" transform="matrix(1.33333 0 0 -1.33333 0 189)">
    <path d="M89.3 76.2H53.6c-2 0-3.6 1.4-3.6 3s1.6 3 3.6 3h35.7c2 0 3.6-1.4 3.6-3s-1.6-3-3.6-3m-75-35.1c-4 0-7.2-2.7-7.2-6V8.9c0-1.6 1.6-3 3.6-3h10.7v35.3zM42.9 5.9H100v29.3c0 3.2-3.2 5.9-7.2 5.9H50c-4 0-7.1-2.7-7.1-6zm78.6 0h10.7c2 0 3.6 1.3 3.6 2.9v26.4c0 3.2-3.2 5.9-7.2 5.9h-7.1zM132.2 0H10.7C4.8 0 0 4 0 8.8v26.4c0 6.5 6.4 11.7 14.3 11.7h7.1v32.3c0 1.6 1.6 3 3.6 3s3.6-1.4 3.6-3V5.9h7.1v29.3c0 6.5 6.4 11.7 14.3 11.7h43c7.8 0 14.2-5.2 14.2-11.7V5.9h7.2v73.3c0 1.6 1.6 3 3.5 3 2 0 3.6-1.4 3.6-3V46.9h7.1c8 0 14.3-5.2 14.3-11.7V8.8c0-4.9-4.8-8.8-10.7-8.8"/>
    <path d="M53.6 81.1c-1.4 0-2.6-.9-2.6-2 0-1 1.2-1.9 2.6-1.9h35.7c1.5 0 2.6 1 2.6 2s-1.1 2-2.6 2zm35.7-5.9H53.6c-2.5 0-4.6 1.8-4.6 4 0 2.1 2 4 4.6 4h35.7c2.6 0 4.6-1.9 4.6-4 0-2.2-2-4-4.6-4m-75-35.1C10.9 40 8 37.9 8 35V8.9c0-1 1.2-2 2.6-2h9.7v33.3zm8.1-35.2H10.7c-2.5 0-4.6 1.7-4.6 3.9v26.4c0 3.8 3.7 6.9 8.2 6.9h8.1zm21.5 2H99v28.3c0 2.7-2.8 4.9-6.2 4.9H50c-3.4 0-6.1-2.2-6.1-5zm57.2-2H41.9v30.3c0 3.8 3.6 6.9 8.1 6.9h43c4.4 0 8-3.1 8-7zm21.4 2h9.7c1.4 0 2.6.9 2.6 1.9v26.4c0 2.7-2.8 4.9-6.2 4.9h-6.1zm9.7-2h-11.7V42h8.1c4.5 0 8.2-3.1 8.2-7V8.9c0-2.2-2-4-4.6-4M14.2 46C7 46 1 41.1 1 35.2V8.8C1 4.5 5.4 1 10.7 1h121.5c5.4 0 9.7 3.5 9.7 7.8v26.4c0 6-6 10.7-13.3 10.7h-8.1v33.3c0 1-1.2 2-2.6 2s-2.5-1-2.5-2V4.9h-9.2v30.3c0 6-6 10.7-13.3 10.7H50c-7.3 0-13.3-4.8-13.3-10.7V4.9h-9.1v74.3c0 1-1.2 2-2.6 2-1.4 0-2.6-1-2.6-2V45.9zM132.3-1H10.7C4.3-1-1 3.4-1 8.8v26.4c0 7 6.9 12.7 15.3 12.7h6.1v31.3c0 2.1 2 4 4.6 4 2.5 0 4.6-1.9 4.6-4V6.9h5.1v28.3c0 7 6.9 12.7 15.3 12.7h43c8.3 0 15.2-5.7 15.2-12.7V6.9h5.2v72.3c0 2.1 2 4 4.5 4s4.6-1.9 4.6-4V47.9h6.1c8.5 0 15.3-5.7 15.3-12.7V8.8c0-5.4-5.2-9.8-11.7-9.8"/>
    <path d="M42.9 70.4H50v23.4H43zm50 0h7.2v23.4h-7.2zm10.7-5.9H89.3c-2 0-3.5 1.3-3.5 3v29.3c0 1.6 1.6 2.9 3.5 2.9h14.3c2 0 3.6-1.3 3.6-3V82.2H118c2 0 3.6 1.3 3.6 3v35.1c0 8.1-8 14.7-17.9 14.7H39.3c-9.8 0-17.9-6.6-17.9-14.7V85c0-1.6 1.6-2.9 3.6-2.9h10.7v14.7c0 1.6 1.6 2.9 3.6 2.9h14.3c2 0 3.6-1.3 3.6-3V67.5c0-1.6-1.6-2.9-3.6-2.9H39.3c-2 0-3.6 1.3-3.6 3v8.7H25c-5.9 0-10.7 4-10.7 8.8v35.2c0 11.3 11.2 20.6 25 20.6h64.3c13.8 0 25-9.3 25-20.6V85c0-4.8-4.8-8.8-10.7-8.8h-10.7v-8.8c0-1.6-1.6-2.9-3.6-2.9M25 23.5H3.6c-2 0-3.6 1.3-3.6 2.9s1.6 3 3.6 3H25c2 0 3.6-1.4 3.6-3s-1.6-3-3.6-3m78.6 0H39.3c-2 0-3.6 1.4-3.6 3s1.6 3 3.6 3h64.3c2 0 3.6-1.4 3.6-3s-1.6-3-3.6-3m35.8 0h-21.5c-2 0-3.5 1.4-3.5 3s1.6 3 3.5 3h21.5c2 0 3.5-1.4 3.5-3s-1.6-3-3.5-3"/>
    <path d="M43.9 71.4H49v21.4H44zm7.1-2H42v25.4H51zm43 2h5v21.4h-5zm7-2h-9v25.4h9zM89.4 98.7c-1.4 0-2.5-.9-2.5-2V67.5c0-1 1.1-1.9 2.5-1.9h14.3c1.5 0 2.6.9 2.6 2v9.7H118c5.4 0 9.7 3.5 9.7 7.8v35.2c0 10.8-10.7 19.6-24 19.6H39.3c-13.2 0-24-8.8-24-19.6V85c0-4.3 4.4-7.8 9.7-7.8h11.7v-9.8c0-1 1.2-1.9 2.6-1.9h14.3c1.4 0 2.6.9 2.6 2v29.3c0 1-1.2 1.9-2.6 1.9H39.3c-1.4 0-2.6-.9-2.6-2V81.2H25c-2.5 0-4.6 1.8-4.6 4v35.1c0 8.7 8.5 15.7 19 15.7h64.2c10.4 0 18.9-7 18.9-15.7V85c0-2.1-2-3.9-4.6-3.9h-11.7v15.7c0 1-1.1 1.9-2.6 1.9zm14.3-35.2H89.3c-2.5 0-4.5 1.8-4.5 4v29.3c0 2.1 2 3.9 4.5 3.9h14.3c2.6 0 4.6-1.8 4.6-4V83.2h9.7c1.4 0 2.6.9 2.6 2v35.1c0 7.6-7.6 13.7-16.9 13.7H39.3c-9.3 0-16.9-6.1-16.9-13.7V85c0-1 1.2-1.9 2.6-1.9h9.7v13.7c0 2.1 2 3.9 4.6 3.9h14.3c2.5 0 4.6-1.8 4.6-4V67.5c0-2.1-2-3.9-4.6-3.9H39.3c-2.5 0-4.6 1.8-4.6 4v7.7H25c-6.4 0-11.7 4.4-11.7 9.8v35.2c0 11.9 11.7 21.6 26 21.6h64.3c14.4 0 26-9.7 26-21.6V85c0-5.4-5.2-9.8-11.7-9.8h-9.7v-7.8c0-2.1-2-3.9-4.6-3.9M3.6 28.3c-1.4 0-2.6-.8-2.6-2s1.2-1.8 2.6-1.8H25c1.4 0 2.6.8 2.6 1.9s-1.2 2-2.6 2zM25 22.5H3.6C1 22.5-1 24.2-1 26.4s2 4 4.6 4H25c2.5 0 4.6-1.8 4.6-4s-2-4-4.6-4m14.3 6c-1.4 0-2.6-1-2.6-2s1.2-2 2.6-2h64.3c1.5 0 2.6 1 2.6 2s-1.1 2-2.6 2zm64.3-6H39.3c-2.5 0-4.6 1.8-4.6 4s2 4 4.6 4h64.3c2.6 0 4.6-1.8 4.6-4s-2-4-4.6-4m14.3 6c-1.4 0-2.5-1-2.5-2s1.1-2 2.5-2h21.5c1.4 0 2.5 1 2.5 2s-1.1 2-2.5 2zm21.5-6h-21.5c-2.5 0-4.5 1.8-4.5 4s2 4 4.5 4h21.5c2.5 0 4.5-1.8 4.5-4s-2-4-4.5-4"/>
    <g fill="#fbac31">
      <path d="M113.4 75.2h-5.2v-7.8c0-2.2-2-4-4.6-4H89.3c-2.5 0-4.5 1.8-4.5 4v7.8H58.2v-7.8c0-2.2-2-4-4.6-4H39.3c-2.5 0-4.6 1.8-4.6 4v7.8h-5.1V6.8h5.1v28.3c0 7 6.9 12.8 15.3 12.8h43c8.3 0 15.2-5.7 15.2-12.8V6.8h5.2zM22.4 85c0-1 1.2-1.9 2.6-1.9h9.7v13.7c0 2.1 2 3.9 4.6 3.9h14.3c2.5 0 4.6-1.8 4.6-4V83.2h26.6v13.7c0 2.1 2 3.9 4.5 3.9h14.3c2.6 0 4.6-1.8 4.6-4V83.2h9.7c1.4 0 2.6.9 2.6 2v35.1c0 7.6-7.6 13.7-16.9 13.7H39.3c-9.3 0-16.9-6.1-16.9-13.7zM128.6 40h-6.1v-9.7h12.3V35c0 2.7-2.8 5-6.2 5M134.8 8.8v13.6h-12.3V6.8h9.7c1.4 0 2.6.9 2.6 2"/>
      <path d="M99 35.1c0 2.7-2.7 5-6 5H50c-3.4 0-6.1-2.3-6.1-5v-4.8H99zM99 22.4H44V6.8H99zM20.4 30.3V40h-6.1c-3.4 0-6.2-2.2-6.2-4.9v-4.8zM99 92.8h-5V71.3h5zM43.9 71.3H49v21.5H44zM10.7 6.8h9.7v15.6H8.1V8.8c0-1 1.2-2 2.6-2"/>
    </g>
  </g>
</svg>
