<?xml version="1.0" encoding="UTF-8" standalone="no"?>
<svg
   xmlns:dc="http://purl.org/dc/elements/1.1/"
   xmlns:cc="http://creativecommons.org/ns#"
   xmlns:rdf="http://www.w3.org/1999/02/22-rdf-syntax-ns#"
   xmlns:svg="http://www.w3.org/2000/svg"
   xmlns="http://www.w3.org/2000/svg"
   viewBox="0 0 188.97333 188.97333"
   height="188.97333"
   width="188.97333"
   xml:space="preserve"
   id="svg2"
   version="1.1"><metadata
     id="metadata8"><rdf:RDF><cc:Work
         rdf:about=""><dc:format>image/svg+xml</dc:format><dc:type
           rdf:resource="http://purl.org/dc/dcmitype/StillImage" /></cc:Work></rdf:RDF></metadata><defs
     id="defs6"><clipPath
       id="clipPath18"
       clipPathUnits="userSpaceOnUse"><path
         id="path16"
         d="M 0,141.73 H 141.73 V 0 H 0 Z" /></clipPath></defs><g
     transform="matrix(1.3333333,0,0,-1.3333333,0,188.97333)"
     id="g10"><g
       id="g12"><g
         clip-path="url(#clipPath18)"
         id="g14"><g
           transform="translate(46.8125,91.7339)"
           id="g20"><path
             id="path22"
             style="fill:#373535;fill-opacity:1;fill-rule:nonzero;stroke:none"
             d="m 0,0 c -4.514,0 -8.187,-3.672 -8.187,-8.187 v -38.957 c 0,-0.4 0.326,-0.726 0.728,-0.726 h 63.692 c 0.4,0 0.724,0.326 0.724,0.726 V -8.187 C 56.957,-3.672 53.284,0 48.771,0 Z M 56.233,-56.37 H -7.459 c -5.088,0 -9.228,4.139 -9.228,9.226 V -8.187 C -16.687,1.015 -9.201,8.5 0,8.5 h 48.771 c 9.201,0 16.686,-7.485 16.686,-16.687 v -38.957 c 0,-5.087 -4.138,-9.226 -9.224,-9.226 m -59.691,-9.922 c -2.45,0 -4.443,-1.997 -4.443,-4.45 0,-2.452 1.993,-4.446 4.443,-4.446 2.455,0 4.452,1.994 4.452,4.446 0,2.453 -1.997,4.45 -4.452,4.45 m 55.684,0 c -2.453,0 -4.447,-1.997 -4.447,-4.45 0,-2.452 1.994,-4.446 4.447,-4.446 2.452,0 4.447,1.994 4.447,4.446 0,2.453 -1.995,4.45 -4.447,4.45 m 13.862,-25.416 h -83.404 c -9.201,0 -16.687,7.486 -16.687,16.687 v 66.38 c 0,17.578 14.302,31.878 31.882,31.878 h 20.858 v -8.5 H -2.121 c -12.893,0 -23.382,-10.487 -23.382,-23.378 v -66.38 c 0,-4.514 3.673,-8.187 8.187,-8.187 h 10.359 c -5.442,1.531 -9.444,6.54 -9.444,12.466 0,7.141 5.806,12.95 12.943,12.95 7.142,0 12.952,-5.809 12.952,-12.95 0,-5.926 -4.005,-10.935 -9.451,-12.466 h 48.684 c -5.445,1.531 -9.448,6.54 -9.448,12.466 0,7.141 5.808,12.95 12.947,12.95 7.138,0 12.947,-5.809 12.947,-12.95 0,-5.926 -4.003,-10.935 -9.447,-12.466 h 10.362 c 4.515,0 8.187,3.673 8.187,8.187 v 66.38 C 74.274,4.25 63.785,14.737 50.894,14.737 H 30.04 v 8.5 h 20.854 c 17.578,0 31.88,-14.3 31.881,-31.878 v -66.38 c 0,-9.201 -7.486,-16.687 -16.687,-16.687" /></g><g
           transform="translate(70.8672,119.52)"
           id="g24"><path
             id="path26"
             style="fill:#373535;fill-opacity:1;fill-rule:nonzero;stroke:none"
             d="M 0,0 -6.482,12.579 H 6.484 Z m 37.148,3.884 -6.481,15.424 c -0.759,1.799 -2.521,2.969 -4.471,2.969 h -52.394 c -1.951,0 -3.713,-1.17 -4.47,-2.969 L -37.152,3.884 c -1.037,-2.471 0.123,-5.314 2.59,-6.353 2.463,-1.025 5.31,0.12 6.352,2.592 l 5.232,12.456 h 5.59 L -5.824,-9.865 H 5.827 l 11.565,22.444 h 5.583 L 28.208,0.123 c 0.782,-1.855 2.581,-2.973 4.47,-2.973 0.631,0 1.265,0.124 1.881,0.381 2.467,1.039 3.628,3.882 2.589,6.353" /></g><g
           transform="translate(99.3232,25.6074)"
           id="g28"><path
             id="path30"
             style="fill:#fbac31;fill-opacity:1;fill-rule:nonzero;stroke:none"
             d="m 0,0 c -2.452,0 -4.446,-1.996 -4.446,-4.449 0,-2.451 1.994,-4.446 4.446,-4.446 2.452,0 4.447,1.995 4.447,4.446 C 4.447,-1.996 2.452,0 0,0" /></g><g
           transform="translate(43.0698,25.6074)"
           id="g32"><path
             id="path34"
             style="fill:#fbac31;fill-opacity:1;fill-rule:nonzero;stroke:none"
             d="m 0,0 c -2.45,0 -4.443,-1.996 -4.443,-4.449 0,-2.451 1.993,-4.446 4.443,-4.446 2.455,0 4.452,1.995 4.452,4.446 C 4.452,-1.996 2.455,0 0,0" /></g><g
           transform="translate(95.584,91.5313)"
           id="g36"><path
             id="path38"
             style="fill:#fbac31;fill-opacity:1;fill-rule:nonzero;stroke:none"
             d="m 0,0 h -48.771 c -4.514,0 -8.187,-3.672 -8.187,-8.187 v -38.958 c 0,-0.4 0.327,-0.724 0.728,-0.724 H 7.463 c 0.399,0 0.724,0.324 0.724,0.724 V -8.187 C 8.187,-3.672 4.514,0 0,0" /></g><g
           transform="translate(112.2695,44.5898)"
           id="g40"><path
             id="path42"
             style="fill:#fbac31;fill-opacity:1;fill-rule:nonzero;stroke:none"
             d="m 0,0 c 0,-5.087 -4.138,-9.226 -9.224,-9.226 h -63.693 c -5.087,0 -9.227,4.139 -9.227,9.226 v 38.958 c 0,9.201 7.486,16.686 16.687,16.686 h 48.77 C -7.485,55.644 0,48.159 0,38.958 Z m -14.563,61.881 h -32.157 -0.216 -20.642 c -12.893,0 -23.382,-10.487 -23.382,-23.378 v -66.381 c 0,-4.514 3.673,-8.185 8.187,-8.185 h 10.359 c -5.442,1.529 -9.444,6.539 -9.444,12.464 0,7.142 5.806,12.951 12.943,12.951 7.142,0 12.952,-5.809 12.952,-12.951 0,-5.925 -4.005,-10.935 -9.451,-12.464 h 48.684 c -5.445,1.529 -9.448,6.539 -9.448,12.464 0,7.142 5.808,12.951 12.947,12.951 7.138,0 12.947,-5.809 12.947,-12.951 0,-5.925 -4.003,-10.935 -9.447,-12.464 H 0.631 c 4.515,0 8.187,3.671 8.187,8.185 V 38.503 C 8.817,51.394 -1.672,61.881 -14.563,61.881" /></g></g></g></g></svg>