<svg height="189" width="189" viewBox="0 0 189 189" xmlns="http://www.w3.org/2000/svg">
  <clipPath id="a">
    <path d="M0 142h142V0H0z"/>
  </clipPath>
  <g clip-path="url(#a)" transform="matrix(1.33333 0 0 -1.33333 0 189)">
    <path d="M47 92c-5 0-8-4-8-8V45v-1h64l1 1v39c0 4-4 8-8 8zm56-57H39c-5 0-9 5-9 10v39c0 9 8 16 17 16h49c9 0 16-7 16-16V45c0-5-4-10-9-10M43 25a4 4 0 110-8 4 4 0 010 8m56 0a4 4 0 110-8 4 4 0 010 8m14-25H29c-9 0-16 8-16 17v66c0 18 14 32 32 32h21v-9H45c-13 0-24-10-24-23V17c0-5 4-8 8-8h11a13 13 0 107 0h49a13 13 0 107 0h10c4 0 8 3 8 8v66c0 13-10 23-23 23H77v9h21c17 0 32-14 32-32V17c0-9-8-17-17-17"/>
    <path d="M71 120l-7 12h13zm37 3l-6 16c-1 2-3 3-5 3H45c-2 0-4-1-5-3l-6-16a5 5 0 019-3l5 12h5l12-22h12l11 22h6l5-12a5 5 0 019 3"/>
    <g fill="#fbac31">
      <path d="M99 26a4 4 0 110-9 4 4 0 010 9M43 26a4 4 0 110-9 4 4 0 010 9M96 92H47c-5 0-8-4-8-9V44h65v39c0 5-4 9-8 9"/>
      <path d="M112 45c0-5-4-10-9-10H39c-5 0-9 5-9 10v39c0 9 8 16 17 16h49c9 0 16-7 16-16zm-14 61H45c-13 0-24-10-24-23V17c0-5 4-8 8-8h11a13 13 0 107 0h49a13 13 0 107 0h10c4 0 8 3 8 8v66c0 13-10 23-23 23"/>
    </g>
  </g>
</svg>
