<svg height="189" width="189" viewBox="0 0 189 189" xmlns="http://www.w3.org/2000/svg">
  <clipPath id="a">
    <path d="M0 141.7h141.7V0H0z"/>
  </clipPath>
  <g clip-path="url(#a)" transform="matrix(1.33333 0 0 -1.33333 0 189)">
    <path d="M86.2 27.4c.2.7.3 1.5.3 2.3 0 6-5.2 10.8-11.7 10.8-1.7 0-3.3-.3-4.7-.9a21.4 21.4 0 01-20.3 13.3 22 22 0 01-17.4-8.4c-1.7.6-3.4 1-5.3 1-8.2 0-14.9-6.3-14.9-14 0-1.2.2-2.5.6-3.7-5.1-1.4-9.3-5.7-9.3-10.8v-.3c0-6.3 6.7-12.5 13.5-12.5h65c6.7 0 11 6.2 11 12.5v.3c0 4.6-2.5 8.6-6.8 10.4z" fill="none" stroke="#000" stroke-miterlimit="10" stroke-width="7"/>
    <path d="M84.9 24.1l-2.7 1.2.6 2.8.2 1.6c0 4-3.7 7.3-8.2 7.3a9 9 0 01-3.4-.6L68.1 35l-1.3 3.3a18 18 0 01-17 11c-5.8 0-11.3-2.5-14.7-7l-1.5-1.9-2.4.8c-1.3.5-2.7.7-4 .7-6.4 0-11.5-4.6-11.5-10.4 0-.8.2-1.7.4-2.6l1-3.5-3.4-1C9.8 23.5 7 20.3 7 17v-.3c0-4.4 5.1-9 10-9h65c4.7 0 7.5 4.5 7.5 9v.3c0 3.3-1.7 6-4.6 7.1M77.6 52.8c5.6-.7 10.6-3.1 14.5-7a70 70 0 0111.4 16.6c.2.4.2 1 0 1.5-.3.5-.8 1-1.5 1.2l-19.3 5.7 22 64.3s.2.3 0 .5c0 .2-.3.5-.7.6-.7.2-1.5-.1-1.7-.7l-22-64-19 5.6a3 3 0 01-2.2-.2c-.5-.4-1-.9-1-1.4-.7-3.3-1.2-6.8-1.3-10.4a35 35 0 0020.8-12.3" fill="#fbac31"/>
    <path d="M105 139.5c-2.5.8-5.2-.5-6-2.9L78.1 75.8l-15.8 4.6c-1.6.5-3.4.3-4.8-.5a5.6 5.6 0 01-2.9-3.7c-.9-4.5-1.4-9.3-1.3-14.1 9.1-1 17.4-5.6 22.5-12.6 6.7-.5 12.6-3.8 16.2-8.8a72.7 72.7 0 0114.7 20.1c.7 1.4.7 3.1 0 4.6-.7 1.4-2 2.5-3.7 3l-15.8 4.7 20.9 60.9c.8 2.3-.6 4.8-3 5.5z" fill="none" stroke="#000" stroke-miterlimit="10" stroke-width="7"/>
  </g>
</svg>
